<svg xmlns="http://www.w3.org/2000/svg" xmlns:xlink="http://www.w3.org/1999/xlink" width="287.132" height="303.396" viewBox="0 0 287.132 303.396">
  <defs>
    <clipPath id="clip-path">
      <path id="Path_9" data-name="Path 9" d="M595.245,254.134c-2.662-.273-5.9,1.741-8.31,1.436-5.656-.713-5.936-4.961-8.8-8.4a11.477,11.477,0,0,0-9.039-4.277,12.141,12.141,0,0,0-9.735,5.84,55.2,55.2,0,0,0-2.775,6.161c-1.941,3.666-.137,2.06-4.633,6.332-4.842,4.594-3.812,3.263-8.7,1.037-6.95-3.165-15.631-1.8-15.174,7.292a8.539,8.539,0,0,0,.686,5.786c2.773,5.737,9.1,10.764,13.276,15.477,4.623,5.22,9.31,12.549,15.666,15.832,9.2,4.751,23.842,3.163,32.031-2.915C600.547,295.706,620.358,256.728,595.245,254.134Z" transform="translate(-527.856 -242.892)" fill="none"/>
    </clipPath>
    <clipPath id="clip-path-2">
      <path id="Path_13" data-name="Path 13" d="M575.124,257.93c-2.586-7.342-10.473-3.386-13.095,1.363a33.642,33.642,0,0,0-2.538,8.488c-.77,3.267.344,6.314-2.358,2.935-3.48-4.354-2.556-11.049-5.974-15.636-4.024-5.405-9.529-4.5-10.249,2.317-.713,6.726,3.306,12.184,4.145,18.428a35.609,35.609,0,0,0,1.567,3.306,2.826,2.826,0,0,1-4.207-1.586c-2.317-1.458-3.889-3.992-6.353-5.393-5.4-3.067-13.187-2.623-11.227,5.564,2.762,11.48,21.952,20.79,31.364,25.32a.051.051,0,0,1,.034.009c3.86,2.06,7.841,1.014,10.692-4.676,3.443-6.882,4.017-15.761,5.457-23.228C573.185,270.966,576.68,262.345,575.124,257.93Z" transform="translate(-524.526 -251.577)" fill="none"/>
    </clipPath>
    <clipPath id="clip-path-3">
      <path id="Path_17" data-name="Path 17" d="M614.35,275.077c-9.93-3-20.009.257-28.668,6,4.97-7.4,10.275-14.622,13.481-23.085,1.182-3.122-2.6-4.881-5.006-3.88-9.192,3.83-13.9,11.049-17.395,19.218a45.716,45.716,0,0,0-5.462-20.114c-1.593-2.875-6.663-1.782-6.406,1.707.624,8.458,1.1,16.93,1.515,25.391-6.487-4.828-16.342-7.011-22.8-5.362a3.468,3.468,0,0,0-.863,6.259,112.183,112.183,0,0,1,21.47,17.951,3.747,3.747,0,0,0,.428.374,9.784,9.784,0,0,0,9.543,4.523c5.64-.447,11.4-5.084,16-7.825l24.96-14.873a3.466,3.466,0,0,0-.795-6.282Z" transform="translate(-541.129 -251.568)" fill="none"/>
    </clipPath>
    <clipPath id="clip-path-4">
      <path id="Path_23" data-name="Path 23" d="M697.3,252.809c-2.662-.274-5.9,1.739-8.31,1.426-5.656-.713-5.936-4.961-8.8-8.4a11.487,11.487,0,0,0-9.039-4.277,12.154,12.154,0,0,0-9.735,5.84,55.2,55.2,0,0,0-2.775,6.162c-1.941,3.664-.137,2.06-4.633,6.332-4.84,4.594-3.812,3.263-8.7,1.035-6.95-3.163-15.631-1.8-15.172,7.294a8.523,8.523,0,0,0,.684,5.785c2.773,5.736,9.1,10.765,13.277,15.477,4.623,5.221,9.31,12.551,15.666,15.834,9.2,4.751,23.842,3.163,32.031-2.917C702.6,294.372,722.408,255.4,697.3,252.809Z" transform="translate(-629.906 -241.557)" fill="none"/>
    </clipPath>
    <clipPath id="clip-path-5">
      <path id="Path_27" data-name="Path 27" d="M677.176,256.6c-2.588-7.342-10.475-3.386-13.1,1.363a33.63,33.63,0,0,0-2.538,8.488c-.768,3.267.344,6.314-2.357,2.933-3.479-4.352-2.555-11.049-5.972-15.634-4.026-5.405-9.531-4.5-10.251,2.317-.713,6.727,3.306,12.184,4.145,18.43a35.391,35.391,0,0,0,1.567,3.3,2.824,2.824,0,0,1-4.206-1.586c-2.317-1.456-3.89-3.99-6.355-5.391-5.4-3.067-13.187-2.623-11.227,5.564,2.762,11.48,21.952,20.79,31.364,25.32a.051.051,0,0,1,.034.009c3.86,2.06,7.841,1.012,10.693-4.676,3.443-6.882,4.017-15.761,5.457-23.228C675.237,269.632,678.732,261.012,677.176,256.6Z" transform="translate(-626.576 -250.243)" fill="none"/>
    </clipPath>
    <clipPath id="clip-path-6">
      <path id="Path_31" data-name="Path 31" d="M716.4,273.743c-9.93-3-20.007.258-28.666,6,4.97-7.4,10.274-14.613,13.48-23.085,1.183-3.122-2.6-4.883-5-3.881-9.194,3.831-13.9,11.049-17.4,19.22a45.694,45.694,0,0,0-5.462-20.114c-1.591-2.876-6.661-1.782-6.4,1.706.622,8.46,1.1,16.93,1.513,25.391-6.487-4.826-16.342-7.009-22.8-5.36a3.47,3.47,0,0,0-.863,6.259,112.119,112.119,0,0,1,21.47,17.951,3.927,3.927,0,0,0,.428.374,9.789,9.789,0,0,0,9.545,4.523c5.638-.447,11.395-5.084,16-7.825l24.958-14.873a3.468,3.468,0,0,0-.795-6.284Z" transform="translate(-643.181 -250.235)" fill="none"/>
    </clipPath>
  </defs>
  <g id="feature-ils-3" transform="translate(-524.526 -112.14)">
    <path id="Path_3" data-name="Path 3" d="M574.712,382.606c-44.245-47.186-48.394-72.919-42.176-87.917,8.673-20.889,37.454-21.009,43.37-45.145,5.168-21.057-13.9-32.546-10.693-56.433,2.507-18.632,16.124-41.442,33.266-43.957,24.749-3.632,35.531,38.2,67.719,38.017,21-.121,27.031-18,48.709-14.85,12.913,1.871,28.85,10.833,33.859,24.949,7.795,21.953-17.464,37.721-10.1,58.808,6.059,17.352,25.779,14.144,35.641,30.3,15.292,25.043-6.8,74.229-36.237,98.607Z" transform="translate(4.477 28.773)" fill="#ffd4d4"/>
    <g id="Group_9" data-name="Group 9" transform="translate(524.526 345.149)">
      <g id="Group_4" data-name="Group 4" transform="translate(5.933 0)">
        <g id="Group_3" data-name="Group 3" clip-path="url(#clip-path)">
          <path id="Path_4" data-name="Path 4" d="M595.245,254.134c-2.662-.273-5.9,1.741-8.31,1.436-5.656-.713-5.936-4.961-8.8-8.4a11.477,11.477,0,0,0-9.039-4.277,12.141,12.141,0,0,0-9.735,5.84,55.2,55.2,0,0,0-2.775,6.161c-1.941,3.666-.137,2.06-4.633,6.332-4.842,4.594-3.812,3.263-8.7,1.037-6.95-3.165-15.631-1.8-15.174,7.292a8.539,8.539,0,0,0,.686,5.786c2.773,5.737,9.1,10.764,13.276,15.477,4.623,5.22,9.31,12.549,15.666,15.832,9.2,4.751,23.842,3.163,32.031-2.915C600.547,295.706,620.358,256.728,595.245,254.134Z" transform="translate(-527.856 -242.892)" fill="#b3d3dd"/>
          <path id="Path_5" data-name="Path 5" d="M562.442,297.309c-4.956-7.793-9.883-15.607-14.871-23.381-3.593-5.6-7.335-10.823-12.847-14.683-1.206-.845-2.349,1.135-1.153,1.973,6.342,4.443,10.234,11.049,14.315,17.464q6.293,9.89,12.583,19.781C561.256,299.7,563.235,298.555,562.442,297.309Z" transform="translate(-523.782 -230.262)" fill="#d2f7ff"/>
          <path id="Path_6" data-name="Path 6" d="M551.494,252.087a1.142,1.142,0,1,0-2.285,0q-.44,26.672.973,53.311c.077,1.463,2.363,1.472,2.285,0Q551.056,278.763,551.494,252.087Z" transform="translate(-511.237 -236.593)" fill="#d2f7ff"/>
          <path id="Path_7" data-name="Path 7" d="M573.13,259.069c-8.326,12.6-14.039,26.644-21.723,39.616a1.142,1.142,0,1,0,1.973,1.153c7.684-12.972,13.4-27.013,21.724-39.616C575.915,259,573.937,257.846,573.13,259.069Z" transform="translate(-509.559 -230.648)" fill="#d2f7ff"/>
          <path id="Path_8" data-name="Path 8" d="M529.254,266.048s16.564,13.852,37.7,13.852,41.558-18.566,41.558-18.566v33.845H528.675Z" transform="translate(-527.215 -228.469)" opacity="0.2"/>
        </g>
      </g>
      <g id="Group_6" data-name="Group 6" transform="translate(0 15.477)">
        <g id="Group_5" data-name="Group 5" clip-path="url(#clip-path-2)">
          <path id="Path_10" data-name="Path 10" d="M575.124,257.93c-2.586-7.342-10.473-3.386-13.095,1.363a33.642,33.642,0,0,0-2.538,8.488c-.77,3.267.344,6.314-2.358,2.935-3.48-4.354-2.556-11.049-5.974-15.636-4.024-5.405-9.529-4.5-10.249,2.317-.713,6.726,3.306,12.184,4.145,18.428a35.609,35.609,0,0,0,1.567,3.306,2.826,2.826,0,0,1-4.207-1.586c-2.317-1.458-3.889-3.992-6.353-5.393-5.4-3.067-13.187-2.623-11.227,5.564,2.762,11.48,21.952,20.79,31.364,25.32a.051.051,0,0,1,.034.009c3.86,2.06,7.841,1.014,10.692-4.676,3.443-6.882,4.017-15.761,5.457-23.228C573.185,270.966,576.68,262.345,575.124,257.93Z" transform="translate(-524.526 -251.577)" fill="#4f9ba3"/>
          <path id="Path_11" data-name="Path 11" d="M566.225,257.968c.481-1.392-1.725-1.991-2.2-.608-4.084,11.854-5.136,24.2-5.565,36.607-1.449-3.589-3.094-7.107-4.546-10.71a195.778,195.778,0,0,1-7.128-21.314,1.142,1.142,0,0,0-2.2.608,196.344,196.344,0,0,0,7.128,21.314c1.639,4.076,3.539,8.05,5.109,12.143a142.777,142.777,0,0,0-25.977-21.23c-1.247-.795-2.391,1.183-1.153,1.973a140.586,140.586,0,0,1,28.57,24.144c0,.264-.014.526-.02.789a1.012,1.012,0,0,0,.727,1.039c.03.118.066.233.094.356.337,1.426,2.541.825,2.2-.608-.08-.342-.178-.674-.273-1.012a1.1,1.1,0,0,0-.2-1.185c-.052-.059-.107-.114-.16-.178-.021-.073-.037-.148-.059-.221C560.9,285.692,561.561,271.51,566.225,257.968Z" transform="translate(-520.908 -247.667)" fill="#6cd3d3"/>
          <path id="Path_12" data-name="Path 12" d="M525.8,270.88s14.709,9.568,22.989,9.568,22.135-7.283,26.134-13.424v28.7h-48.7Z" transform="translate(-523.531 -239.496)" opacity="0.2"/>
        </g>
      </g>
      <g id="Group_8" data-name="Group 8" transform="translate(29.588 15.462)">
        <g id="Group_7" data-name="Group 7" clip-path="url(#clip-path-3)">
          <path id="Path_14" data-name="Path 14" d="M614.35,275.077c-9.93-3-20.009.257-28.668,6,4.97-7.4,10.275-14.622,13.481-23.085,1.182-3.122-2.6-4.881-5.006-3.88-9.192,3.83-13.9,11.049-17.395,19.218a45.716,45.716,0,0,0-5.462-20.114c-1.593-2.875-6.663-1.782-6.406,1.707.624,8.458,1.1,16.93,1.515,25.391-6.487-4.828-16.342-7.011-22.8-5.362a3.468,3.468,0,0,0-.863,6.259,112.183,112.183,0,0,1,21.47,17.951,3.747,3.747,0,0,0,.428.374,9.784,9.784,0,0,0,9.543,4.523c5.64-.447,11.4-5.084,16-7.825l24.96-14.873a3.466,3.466,0,0,0-.795-6.282Z" transform="translate(-541.129 -251.568)" fill="#5db3c1"/>
          <path id="Path_15" data-name="Path 15" d="M590.289,275.89a74.848,74.848,0,0,0-21.134,16.245q6.207-14.916,12.412-29.832c.563-1.354-1.645-1.944-2.2-.6l-11.974,28.78q.089-13.767-.937-27.506c-.109-1.458-2.4-1.467-2.285,0q1.069,14.347.912,28.718c-2.785-7.7-7.406-14.556-15.335-17.958-1.335-.572-2.515,1.388-1.167,1.96,9.179,3.938,13.544,12.608,15.894,21.786v.014a.859.859,0,0,0-.032.38c-.581.779-1.171,1.547-1.725,2.351-.836,1.214,1.135,2.372,1.96,1.165.226-.33.476-.636.713-.962a1.171,1.171,0,0,0,1.828-.9c.018-.535.023-1.085.032-1.629a72.692,72.692,0,0,1,24.177-20.032C592.731,277.2,591.594,275.215,590.289,275.89Z" transform="translate(-535.769 -244.236)" fill="#71d7e2"/>
          <path id="Path_16" data-name="Path 16" d="M545.475,270.55s11.71,9.14,23.7,9.14,30.131-4.428,30.131-4.428V289.4H545.19Z" transform="translate(-537.954 -236.723)" opacity="0.2"/>
        </g>
      </g>
    </g>
    <g id="Group_16" data-name="Group 16" transform="translate(706.387 342.77)">
      <g id="Group_11" data-name="Group 11" transform="translate(5.933 0)">
        <g id="Group_10" data-name="Group 10" clip-path="url(#clip-path-4)">
          <path id="Path_18" data-name="Path 18" d="M697.3,252.809c-2.662-.274-5.9,1.739-8.31,1.426-5.656-.713-5.936-4.961-8.8-8.4a11.487,11.487,0,0,0-9.039-4.277,12.154,12.154,0,0,0-9.735,5.84,55.2,55.2,0,0,0-2.775,6.162c-1.941,3.664-.137,2.06-4.633,6.332-4.84,4.594-3.812,3.263-8.7,1.035-6.95-3.163-15.631-1.8-15.172,7.294a8.523,8.523,0,0,0,.684,5.785c2.773,5.736,9.1,10.765,13.277,15.477,4.623,5.221,9.31,12.551,15.666,15.834,9.2,4.751,23.842,3.163,32.031-2.917C702.6,294.372,722.408,255.4,697.3,252.809Z" transform="translate(-629.906 -241.557)" fill="#b3d3dd"/>
          <path id="Path_19" data-name="Path 19" d="M664.493,295.975c-4.958-7.793-9.885-15.606-14.873-23.379-3.593-5.6-7.335-10.823-12.847-14.683-1.206-.845-2.349,1.135-1.153,1.973,6.342,4.443,10.236,11.049,14.315,17.464l12.583,19.781C663.307,298.366,665.285,297.22,664.493,295.975Z" transform="translate(-625.833 -228.926)" fill="#d2f7ff"/>
          <path id="Path_20" data-name="Path 20" d="M653.548,250.754a1.142,1.142,0,1,0-2.285,0q-.44,26.67.973,53.311c.077,1.463,2.363,1.472,2.285,0Q653.1,277.428,653.548,250.754Z" transform="translate(-613.284 -235.257)" fill="#d2f7ff"/>
          <path id="Path_21" data-name="Path 21" d="M675.18,257.735c-8.326,12.6-14.039,26.646-21.723,39.617a1.142,1.142,0,0,0,1.973,1.153c7.684-12.972,13.4-27.014,21.724-39.616C677.966,257.659,675.987,256.513,675.18,257.735Z" transform="translate(-611.61 -229.313)" fill="#d2f7ff"/>
          <path id="Path_22" data-name="Path 22" d="M631.307,264.714s16.573,13.852,37.7,13.852S710.565,260,710.565,260v33.845H630.728Z" transform="translate(-629.263 -227.133)" opacity="0.2"/>
        </g>
      </g>
      <g id="Group_13" data-name="Group 13" transform="translate(0 15.48)">
        <g id="Group_12" data-name="Group 12" clip-path="url(#clip-path-5)">
          <path id="Path_24" data-name="Path 24" d="M677.176,256.6c-2.588-7.342-10.475-3.386-13.1,1.363a33.63,33.63,0,0,0-2.538,8.488c-.768,3.267.344,6.314-2.357,2.933-3.479-4.352-2.555-11.049-5.972-15.634-4.026-5.405-9.531-4.5-10.251,2.317-.713,6.727,3.306,12.184,4.145,18.43a35.391,35.391,0,0,0,1.567,3.3,2.824,2.824,0,0,1-4.206-1.586c-2.317-1.456-3.89-3.99-6.355-5.391-5.4-3.067-13.187-2.623-11.227,5.564,2.762,11.48,21.952,20.79,31.364,25.32a.051.051,0,0,1,.034.009c3.86,2.06,7.841,1.012,10.693-4.676,3.443-6.882,4.017-15.761,5.457-23.228C675.237,269.632,678.732,261.012,677.176,256.6Z" transform="translate(-626.576 -250.243)" fill="#4f9ba3"/>
          <path id="Path_25" data-name="Path 25" d="M668.274,256.635c.481-1.394-1.725-1.992-2.2-.608-4.083,11.854-5.136,24.2-5.565,36.606-1.449-3.589-3.094-7.107-4.546-10.708a195.766,195.766,0,0,1-7.128-21.314,1.144,1.144,0,0,0-2.2.608,196.677,196.677,0,0,0,7.128,21.314c1.639,4.076,3.539,8.05,5.111,12.141a143,143,0,0,0-25.975-21.23c-1.248-.793-2.392,1.183-1.153,1.973a140.559,140.559,0,0,1,28.57,24.145c0,.264-.014.535-.02.789a1.009,1.009,0,0,0,.729,1.037c.028.119.066.235.093.356.337,1.426,2.541.825,2.2-.606-.08-.342-.178-.675-.273-1.014a1.1,1.1,0,0,0-.2-1.183c-.052-.059-.107-.114-.16-.178-.021-.073-.037-.148-.059-.221C662.947,284.357,663.61,270.176,668.274,256.635Z" transform="translate(-622.957 -246.334)" fill="#6cd3d3"/>
          <path id="Path_26" data-name="Path 26" d="M627.847,269.546s14.709,9.568,22.989,9.568,22.135-7.283,26.134-13.423V294.4H628.277Z" transform="translate(-625.583 -238.162)" opacity="0.2"/>
        </g>
      </g>
      <g id="Group_15" data-name="Group 15" transform="translate(29.59 15.465)">
        <g id="Group_14" data-name="Group 14" clip-path="url(#clip-path-6)">
          <path id="Path_28" data-name="Path 28" d="M716.4,273.743c-9.93-3-20.007.258-28.666,6,4.97-7.4,10.274-14.613,13.48-23.085,1.183-3.122-2.6-4.883-5-3.881-9.194,3.831-13.9,11.049-17.4,19.22a45.694,45.694,0,0,0-5.462-20.114c-1.591-2.876-6.661-1.782-6.4,1.706.622,8.46,1.1,16.93,1.513,25.391-6.487-4.826-16.342-7.009-22.8-5.36a3.47,3.47,0,0,0-.863,6.259,112.119,112.119,0,0,1,21.47,17.951,3.927,3.927,0,0,0,.428.374,9.789,9.789,0,0,0,9.545,4.523c5.638-.447,11.395-5.084,16-7.825l24.958-14.873a3.468,3.468,0,0,0-.795-6.284Z" transform="translate(-643.181 -250.235)" fill="#5db3c1"/>
          <path id="Path_29" data-name="Path 29" d="M692.339,274.559A74.943,74.943,0,0,0,671.206,290.8q6.207-14.916,12.412-29.832c.563-1.353-1.645-1.942-2.2-.6L669.44,289.152q.089-13.766-.936-27.508c-.109-1.456-2.4-1.467-2.286,0q1.069,14.348.912,28.716c-2.785-7.7-7.406-14.554-15.335-17.956-1.335-.572-2.515,1.386-1.167,1.96,9.181,3.938,13.544,12.608,15.9,21.784v.016a.891.891,0,0,0-.032.38c-.581.779-1.171,1.545-1.725,2.349-.836,1.214,1.135,2.372,1.96,1.167.226-.33.476-.638.713-.962a1.171,1.171,0,0,0,1.829-.9c.018-.535.025-1.087.032-1.629a72.66,72.66,0,0,1,24.179-20.032C694.781,275.862,693.644,273.88,692.339,274.559Z" transform="translate(-637.822 -242.9)" fill="#71d7e2"/>
          <path id="Path_30" data-name="Path 30" d="M647.525,269.217s11.712,9.138,23.7,9.138,30.133-4.427,30.133-4.427v14.137H647.24Z" transform="translate(-640.006 -235.389)" opacity="0.2"/>
        </g>
      </g>
    </g>
    <path id="Path_32" data-name="Path 32" d="M752.834,285.517H546.707a3.564,3.564,0,0,1-3.564-3.564h0a3.564,3.564,0,0,1,3.564-3.564H752.834a3.564,3.564,0,0,1,3.564,3.564h0A3.564,3.564,0,0,1,752.834,285.517Z" transform="translate(14.56 130.019)" fill="#5db3c1"/>
    <g id="Group_22" data-name="Group 22" transform="translate(541.289 158.103)">
      <path id="Path_33" data-name="Path 33" d="M637.957,261.479c.777-.023,1.565,0,2.507,0-.274,1.247-.43,2.293-.739,3.284-1.387,4.619-2.866,9.215-4.215,13.849-1,3.425-1.875,6.888-2.807,10.336-.082.31-.191.633-.285.943-.419,1.313-.419,1.326-1.743,1.338-3.523.036-7.032.046-10.555.059q-33.825.037-67.642.061c-.586,0-1.158-.073-1.923-.119.454-3.546.92-6.938,1.337-10.336.335-2.627.645-5.252.909-7.879.143-1.362.178-1.445,1.527-1.338,2.579.216,5.145.478,7.724.6,2.113.109,4.24,0,6.351.037,3.9.071,7.82.262,11.724.237,3.564-.011,7.151-.2,10.733-.381,4.357-.214,8.75-.31,13.084-.811a67.432,67.432,0,0,0,12.093-2.138,15.1,15.1,0,0,0,8.62-5.981,2.969,2.969,0,0,1,2.77-1.426C630.944,261.79,634.455,261.6,637.957,261.479Z" transform="translate(-520.933 -41.317)" fill="#ffbd5c"/>
      <path id="Path_34" data-name="Path 34" d="M627.8,277.73c.6.788,1.169,1.6,1.782,2.434-.713.535-1.385,1.069-2.066,1.575-1,.754-1.069.813-1.9-.2-2.244-2.782-4.418-5.624-6.613-8.442q-2.634-3.347-5.254-6.72c-.406-.515-.788-1.051-1.361-1.816,1.29-.859,2.388-1.588,3.475-2.317.763.955,1.54,1.9,2.292,2.876Q622.988,271.409,627.8,277.73Z" transform="translate(-472.575 -40.71)" fill="#f5f5f5"/>
      <path id="Path_35" data-name="Path 35" d="M658.173,262.887c.1,1.037.251,2.076.394,3.208a11.7,11.7,0,0,1-5.157-2.782,26.534,26.534,0,0,1-3.386-3.046,20.62,20.62,0,0,1-2.949-4.177,34.683,34.683,0,0,1-3.742-13.061,62.293,62.293,0,0,1-.356-7.725,26.036,26.036,0,0,1,5.091-15.351,6.075,6.075,0,0,1,2.495-2.172c.239,1.361.513,2.637.656,3.921a2.264,2.264,0,0,1-.43,1.445A23.94,23.94,0,0,0,646.24,239.2a34.389,34.389,0,0,0,4.489,15.663,13.777,13.777,0,0,0,5.5,5.314A3.3,3.3,0,0,1,658.173,262.887Z" transform="translate(-448.659 -75.484)" fill="#f5f5f5"/>
      <path id="Path_36" data-name="Path 36" d="M649.728,222.076c1.875,11.008,3.605,22.026,5.205,33.147a11.86,11.86,0,0,1-4.728-4.37,35.794,35.794,0,0,1-4.346-13.467,25.462,25.462,0,0,1,1.994-12.941,21.244,21.244,0,0,1,1.426-2.459C649.432,222.012,649.573,222.04,649.728,222.076Z" transform="translate(-446.512 -72.196)" fill="#ffbd5c"/>
      <path id="Path_37" data-name="Path 37" d="M568.224,268.793l-.5,20.2,34.929-.4V265.411L580.668,268.2Z" transform="translate(-507.503 -38.233)" fill="#f5f5f5"/>
      <path id="Path_38" data-name="Path 38" d="M660.235,186.592a3.275,3.275,0,0,1,.788,3.831c-.513,1.29-1.468,1.782-3.247,1.7-.788-.048-1.577-.216-2.365-.287-1.4-.119-1.659.119-1.766,1.456-.013.264.011.526,0,.8-.084,1.923-.848,2.65-2.759,2.411a7.11,7.11,0,0,1-4.763-2.172,1.283,1.283,0,0,0-.119-.155c-.488-.406-.907-1.069-1.682-.713-.645.3-.622.92-.693,1.527-.107.891-.346,1.768-.609,3.046a18.575,18.575,0,0,1-3.986-5.7c-.335-.62.251-.763.729-.846,1.885-.346,3.783-.622,5.646-1.039a30.037,30.037,0,0,0,11.557-5.457c.574-.43.978-.513,1.517.012C659.041,185.553,659.674,186.043,660.235,186.592Z" transform="translate(-451.814 -101.406)" fill="#4f9ba3"/>
      <path id="Path_39" data-name="Path 39" d="M630.639,204.129c.369.356.752.713,1.426,1.361A7.471,7.471,0,0,1,628.59,204a11.538,11.538,0,0,1-4.418-7.928,49.69,49.69,0,0,1,.312-14.814,39.6,39.6,0,0,0-.109-10.692,21.161,21.161,0,0,0-3.27-8.376,1.91,1.91,0,0,1,2.459.859,18.019,18.019,0,0,1,1.718,3.343,35.575,35.575,0,0,1,1.426,17.405c-.369,2.555-.608,5.134-.93,7.69a14.244,14.244,0,0,0,4.862,12.644Z" transform="translate(-465.757 -119.088)" fill="#5db3c1"/>
      <path id="Path_40" data-name="Path 40" d="M636.184,168.93c.107.836-.287,1.027-1.014,1.016-1.135-.037-2.258-.012-3.386-.012v-.178c-4.1-.239-8.178-.478-12.273-.691s-8.2-.406-12.273-.633c-.859-.048-1.72-.132-2.566-.264a1.269,1.269,0,0,1-.891-2.138,2.909,2.909,0,0,1,.919-.74,68.508,68.508,0,0,1,15.652-7.032,9.514,9.514,0,0,1,1.54-.335,3.124,3.124,0,0,0,2.985-2.434,15.5,15.5,0,0,1,2.9-5.361c.635-.777.891-.777,1.542,0a28.547,28.547,0,0,1,6.1,12.715C635.838,164.835,635.922,166.9,636.184,168.93Z" transform="translate(-479.577 -128.849)" fill="#68bed8"/>
      <path id="Path_41" data-name="Path 41" d="M631.855,166.8a17.675,17.675,0,0,1,1.6,8.679,139.435,139.435,0,0,1-18.266-4.931,22.718,22.718,0,0,1-6.136-3.176,3.069,3.069,0,0,1-1.41-3.056c.12-.968.168-1.946.239-2.924a26.981,26.981,0,0,1,3.117-.155c5.683.356,11.354.788,17.037,1.123a2.272,2.272,0,0,1,1.782,1.05A19.263,19.263,0,0,1,631.855,166.8Z" transform="translate(-476.309 -119.708)" fill="#f5f5f5"/>
      <path id="Path_42" data-name="Path 42" d="M675.163,183.157a68.336,68.336,0,0,1,.535,14.481,41.809,41.809,0,0,1-3.653,14.339,3.208,3.208,0,0,1-1.11,1.085,30.491,30.491,0,0,1-13.633,5.524,74.235,74.235,0,0,1-10.243,1.11,18.478,18.478,0,0,1-15.926-7.772,11.986,11.986,0,0,1-2.16-8.226c.356-5.539,1.73-11,1.349-16.595a27.917,27.917,0,0,0-3.272-12.535,12.083,12.083,0,0,1-1.624-4.715,45.03,45.03,0,0,0-2.1-10.459,36.03,36.03,0,0,0-3.208-6.123c-.25-.394-.5-.764-.836-1.247a25.129,25.129,0,0,1,7.307-2.96,42.206,42.206,0,0,1,14.125-1.707,36.354,36.354,0,0,1,16.021,3.963,26.622,26.622,0,0,1,8.107,7.5,53.127,53.127,0,0,1,8.7,16.595A62.785,62.785,0,0,1,675.163,183.157Z" transform="translate(-467.184 -130.6)" fill="#ffbd5c"/>
      <path id="Path_43" data-name="Path 43" d="M587.983,225.508a4.229,4.229,0,0,1,4.477-.346c-1.766,1.456-3.564,2.878-5.3,4.37a15.7,15.7,0,0,0-5.492,8.953,45.041,45.041,0,0,0-.381,5.624,4.32,4.32,0,0,1-2.4-4.118,13.008,13.008,0,0,1,.713-3.856A18,18,0,0,1,587.983,225.508Z" transform="translate(-498.781 -70.089)" fill="#5db3c1"/>
      <path id="Path_44" data-name="Path 44" d="M715.235,343.862c.13,1.624.094,1.661-1.54,1.782-7.462.524-98.914.415-101.958.593-1.946.109-1.946.048-1.426-1.782q3.849-13.325,7.7-26.647c.417-1.456.74-2.937,1.123-4.512,1.766.713,3.425,1.479,5.132,2.064a12.927,12.927,0,0,0,3.1.5,4.083,4.083,0,0,0,2.746-.955A84.673,84.673,0,0,0,643.9,301.5c8.188-9.468,15.614-19.532,23.03-29.6,3.844-5.229,7.736-10.4,11.245-15.861a29.888,29.888,0,0,0,4.382-10.336,6.441,6.441,0,0,0,.132-1.96c-.178-1.647-.406-3.283-.713-4.906a1.351,1.351,0,0,0-.907-.813c-.6-.119-.727.419-.713.92a9.764,9.764,0,0,0,.144,1.982,13.972,13.972,0,0,1-1.219,9.445,47.68,47.68,0,0,1-5.42,8.991c-4.405,6.207-8.93,12.319-13.431,18.444-6.161,8.376-12.571,16.559-19.425,24.366a85.768,85.768,0,0,1-10.637,10.386,5.785,5.785,0,0,1-6.415.909,37.753,37.753,0,0,1-9.2-5.409,208.87,208.87,0,0,1-25.92-23.989,29.007,29.007,0,0,1-6.416-10.388,15.412,15.412,0,0,1-1.027-7.879,15.806,15.806,0,0,1,1.839-4.967,23.545,23.545,0,0,1,8.178-7.677,10.515,10.515,0,0,1,9.169-.526,112.179,112.179,0,0,1,20.6,9.671,8.339,8.339,0,0,0,1.4.727,1.652,1.652,0,0,0,2.078-.691c.968-1.575,1.921-3.176,2.96-4.7,4.441-6.565,8.788-13.216,13.419-19.651a39.192,39.192,0,0,1,13.009-10.839,27.978,27.978,0,0,1,8.274-3.208,10,10,0,0,1,6.613.335,2.07,2.07,0,0,0,.968.155c.633-.025.968-.74.49-1.11a5.4,5.4,0,0,0-2.21-1.206,16.605,16.605,0,0,0-6.506.168,39,39,0,0,0-15.066,7.677,6.641,6.641,0,0,1-1.96,1.146c.455-1.338.848-2.711,1.374-4.024a38.849,38.849,0,0,1,14.062-18.051c.49-.335.98-.681,1.458-1.039,1.247-.932,1.408-1.517.643-2.841-.823-1.426-1.743-2.807-2.627-4.215-.763-1.219-1.527-2.436-2.411-3.856,2.365-.429,4.477-.907,6.615-1.194,6.888-.955,13.775-1.814,20.652-2.757a2.371,2.371,0,0,1,1.994.513c1.72,1.324,2.8.93,3.564-1.123.155-.429.346-.848.513-1.265,1.468.608,2.866,1.194,4.418,1.837a8.044,8.044,0,0,1-.371,1.194c-1.23,2.424-2.434,4.847-3.742,7.223a2.179,2.179,0,0,0-.025,2.162,47.849,47.849,0,0,1,2.007,6.626c1.133,5.168,2.089,10.375,3.186,15.543.622,2.914,1.349,5.8,2.114,8.68a2.441,2.441,0,0,1-.93,2.851,21.465,21.465,0,0,0-6.594,11.509,40.943,40.943,0,0,0-.861,13.216,42.4,42.4,0,0,0,2.614,12.164,20.451,20.451,0,0,0,3.63,6.783c2.817,2.983,5.7,5.932,9.73,7.294a2.509,2.509,0,0,1,1.96,2.351c.381,3.208.871,6.416,1.385,9.623.633,4.06,1.324,8.094,2,12.141.5,2.937,1.087,5.851,1.529,8.8.656,4.38,1.247,8.773,1.814,13.187C714.612,336.543,715.068,341.741,715.235,343.862ZM655.875,335.9a8.663,8.663,0,0,0-.633-1.362c-.549-.823-1.146-1.6-1.755-2.4-3.128-4.085-6.291-8.142-9.383-12.25-.752-1-1.313-2.138-1.994-3.208-.752-1.182-1.23-1.362-2.424-.645a30.692,30.692,0,0,0-3.564,2.459c-1.517,1.217-1.529,1.73-.346,3.259,2.973,3.867,5.932,7.759,8.941,11.6,1.426,1.827,2.878,3.616,4.418,5.346a2.1,2.1,0,0,0,3.307.31,27.968,27.968,0,0,0,2.518-1.923A7.658,7.658,0,0,0,655.875,335.9Z" transform="translate(-496.927 -96.228)" fill="#8bd8ea"/>
      <path id="Path_45" data-name="Path 45" d="M595.973,230.286c.572,1.517.465,1.6-.681,2.365a18.984,18.984,0,0,0-7.533,9.921,35.811,35.811,0,0,0-1.135,4.6c-.13.668-.381.891-1.027.907a38.829,38.829,0,0,1-12.344-1.247,9.765,9.765,0,0,1-5.409-4.07,7.068,7.068,0,0,1-1.085-3.963,24.808,24.808,0,0,1,4.334-14.016,7.5,7.5,0,0,1,5.542-3.062,22.959,22.959,0,0,1,2.375-.2,5.041,5.041,0,0,1,3.844,1.29c.752.645,1.565,1.23,2.329,1.862.549.442.991,1.247,1.827.859.907-.429.656-1.276.585-2.089a37.621,37.621,0,0,1-.178-5.157,7.713,7.713,0,0,1,.909-2.985c.43-.859,1.069-.871,1.754-.2a10.481,10.481,0,0,1,2.52,4.227c.535,1.624.823,3.331,1.337,4.977C594.552,226.31,595.221,228.309,595.973,230.286Z" transform="translate(-508.262 -77.959)" fill="#4f9ba3"/>
      <g id="Group_17" data-name="Group 17" transform="translate(42.664 135.221)">
        <path id="Path_46" data-name="Path 46" d="M616.9,214.082c-.13-.011-.262,0-.394,0q-13.914-.141-27.816-.262c-2.7-.023-5.4,0-8.107,0-.046.155-.082.3-.13.454a15.463,15.463,0,0,1,3.521,6.339c.394,1.265.585,2.579.968,3.844.608,2.017,1.247,4.024,1.96,6.006.275.752.681,1.349,1.768,1.169a7.387,7.387,0,0,1,4.441.741,2.115,2.115,0,0,0,1.313.262,13.27,13.27,0,0,1,7.39.764,65.6,65.6,0,0,1,12.2,5.145c1.852.943,3.714,1.85,5.754,2.878.071-.681.144-1.123.144-1.565.059-7.485.143-14.969.107-22.454C620.009,213.844,620.319,214.633,616.9,214.082Z" transform="translate(-540.21 -213.81)" fill="#f6ca7f"/>
        <path id="Path_47" data-name="Path 47" d="M634.855,293.835c-1.182-.848-2.411-1.648-3.534-2.579q-4.89-4.049-9.694-8.2a152.059,152.059,0,0,1-16.4-16.178,28.869,28.869,0,0,1-5.956-9.525,6.833,6.833,0,0,0-.634-1.458,3.71,3.71,0,0,0-1.133-1.247,6.993,6.993,0,0,1-3.208-3.14,1.6,1.6,0,0,0-1.695-1.069c-.467.023-.932.036-1.385.023a41.438,41.438,0,0,1-11.975-1.445c-3.3-1.069-7.282-4.954-7.294-9.215a27.134,27.134,0,0,1,4.6-15.354,7.069,7.069,0,0,1,3.259-2.8,20.821,20.821,0,0,1,3.785-1.11,8.317,8.317,0,0,1,7.795,1.85,10.046,10.046,0,0,0,1.338.861,11.772,11.772,0,0,1,1.682-9.408c-11.6.346-22.85-.346-34.155.323-.048.453-.132.836-.144,1.217-.107,3.45-.226,6.9-.31,10.336q-.34,13.129-.645,26.241c-.071,3.046-.082,6.1-.13,9.146-.048,3.714.071,7.438-.191,11.138a194.656,194.656,0,0,0-.955,20.439c.023.909.3,1.816.4,2.723.073.681.442.871,1.069.891,3.641.178,7.269.478,10.912.535,11.329.178,22.671-.119,34.013.323,7.879.31,15.771.084,23.662.059,1.982-.012,3.976-.168,5.958-.239.752-.023,1.385,0,1.6-1.026C635.774,294.539,635.871,294.562,634.855,293.835Z" transform="translate(-557.873 -213.788)" fill="#f6ca7f"/>
      </g>
      <g id="Group_18" data-name="Group 18" transform="translate(1.884 88.829)">
        <path id="Path_48" data-name="Path 48" d="M630.253,241.307c-3.069-5.013-5.993-10.111-9-15.162-.059-.094-.107-.178-.166-.274-2.89-4.835-5.827-9.67-8.752-14.494a4.876,4.876,0,0,0-1.862-1.982c-8.356-4.393-16.737-8.762-24.88-13.544a12.205,12.205,0,0,0-1.374-.61v1.326c.036,4.1.144,8.214.1,12.319-.06,5.23-.274,10.459-.371,15.7-.023,1.9.073,1.934,2.055,1.969h.191q13.323.214,26.635.442a31.425,31.425,0,0,0,3.951,0c1.069-.107,1.636-.084,1.923.31a2.6,2.6,0,0,1,.275,1.565c-.071,6.351-.155,12.713-.216,19.068-.036,2.711-.023,5.421-.023,8.132,0,.31-.048.8.119.907a5.555,5.555,0,0,0,2.065,1.05c.31.048.765-.788,1.146-1.23.084-.094.1-.25.167-.356,2.614-4.058,5.181-8.142,7.879-12.154a2.317,2.317,0,0,0,.144-2.983Z" transform="translate(-496.708 -181.94)" fill="#ffbd5c"/>
        <path id="Path_49" data-name="Path 49" d="M592.342,187.894c-.467-.071-.622-.143-.713-.107q-5.678,2.561-11.343,5.145a1.263,1.263,0,0,0-.191,2.09,4.569,4.569,0,0,0,1.468.978c1.039.406,2.114.713,3.188,1.026,1.385.394,1.372.371,2.22-.907q1.9-2.883,3.821-5.767C591.278,189.589,591.755,188.814,592.342,187.894Z" transform="translate(-500.08 -187.778)" fill="#ffbd5c"/>
        <path id="Path_50" data-name="Path 50" d="M571.4,189.778c-3.88-.214-7.759-.346-11.641-.5-.059.168-.12.323-.178.488a67.843,67.843,0,0,0,7.939,7.485c1.695-1.362,3.259-2.782,4.979-3.976,1.11-.764.823-1.707.668-2.627C573,189.694,572.047,189.813,571.4,189.778Z" transform="translate(-515.756 -186.605)" fill="#ffbd5c"/>
        <path id="Path_51" data-name="Path 51" d="M567.57,209.253a13.081,13.081,0,0,0-4.277,5.266c-3.8,8.656-7.88,17.179-11.712,25.81-4.728,10.626-9.324,21.3-13.955,31.96-.825,1.875-1.565,3.785-2.3,5.7-.586,1.54-.49,1.782,1.069,2.233,2.734.811,5.455,1.6,8.214,2.292q10.477,2.6,21,5.061c2.447.574,4.931.968,7.378,1.529,1.8.406,1.827.465,1.885-1.426.276-8.214.561-16.427.741-24.641.239-10.924.371-21.861.549-32.79.013-.465-.012-.932.036-1.385.132-1.171.465-1.529,1.588-1.672.585-.084,1.194-.023,1.791-.061,2.22-.166,4.441-.333,6.722-.513v-31.5a6.6,6.6,0,0,0-.789.356C579.533,200.076,573.576,204.693,567.57,209.253Z" transform="translate(-534.99 -182.037)" fill="#ffbd5c"/>
      </g>
      <path id="Path_52" data-name="Path 52" d="M597.794,198.511c.011,4.764.059,9.538,0,14.3-.061,4.967-.216,9.933-.356,14.887-.036,1.386-.059,1.41-1.5,1.426-1.4.036-2.782.012-4.179.012H564.489a32.106,32.106,0,0,0,.287-8.787c-.214-3.163-.059-6.351-.023-9.527.059-4.177.214-8.344.214-12.523a3.256,3.256,0,0,1,1.625-3.272,32.166,32.166,0,0,0,3.676-3,17.764,17.764,0,0,0,8.214,3.438,17.12,17.12,0,0,0,11.019-1.517,2.069,2.069,0,0,1,2.162-.119,27.914,27.914,0,0,0,4.322,1.4,2.151,2.151,0,0,1,1.743,1.887,8.944,8.944,0,0,1,.068,1.392Z" transform="translate(-510.035 -95.62)" fill="#f5f5f5"/>
      <path id="Path_53" data-name="Path 53" d="M600.388,167.578a10.364,10.364,0,0,1-3.27,8,9.031,9.031,0,0,1-4.9,2.794,5.379,5.379,0,0,1-5.384-1.707,7.413,7.413,0,0,1-2.138-4.573c-.084-1.707-.3-3.414-.31-5.122,0-1.217.275-1.492,1.5-1.623,2.233-.226,9.885-.3,11.462-.287a4.411,4.411,0,0,1,.978.119C599.946,165.525,600.3,165.954,600.388,167.578Z" transform="translate(-494.471 -116.717)" fill="#f5f5f5"/>
      <path id="Path_54" data-name="Path 54" d="M586.764,167.853a11.793,11.793,0,0,1-3.921,8.966,6.822,6.822,0,0,1-5.516,1.754,6.135,6.135,0,0,1-4.477-2.983,14,14,0,0,1-3.069-8.394c.036-1.623.132-1.782,1.755-1.837,2.113-.084,4.225-.192,6.578-.3,1.946.1,4.131.155,6.3.31C586.264,165.513,586.693,166.023,586.764,167.853Z" transform="translate(-505.895 -116.716)" fill="#f5f5f5"/>
      <path id="Path_55" data-name="Path 55" d="M629,152.44a2.335,2.335,0,0,1,2.948,2.721,9.086,9.086,0,0,1-1.247,4.346,23.1,23.1,0,0,1-5.7,6.28,44.9,44.9,0,0,1-13.431,7.9c-3.32,1.1-6.758,1.8-10.158,2.627-2.449.6-4.9,1.158-7.367,1.6a32.652,32.652,0,0,1-10.063.465,49.847,49.847,0,0,1-6.613-1.247c-1.565-.417-2.245-.036-2.579,1.565a33.247,33.247,0,0,0-.713,5.1,32.8,32.8,0,0,1-.919,6.875c-5.6-3.545-12.475-1.05-13.187,4.979a8.085,8.085,0,0,1-3.676-4.763c-3.833-11.2,6.016-20.451,14.839-19.949a7.326,7.326,0,0,0,2.9-.419,77.8,77.8,0,0,0,15.818-8.178A109.415,109.415,0,0,0,612.3,142.624c.943-1.026,1.85-2.078,2.851-3.029,1.206-1.146,2.543-.907,3.115.658a7.057,7.057,0,0,1,.239,2.889c-.059.836-.478,1.648-.62,2.484a1.144,1.144,0,0,0,.371.978,1.176,1.176,0,0,0,1.039-.144,7,7,0,0,0,.871-1.069,18.362,18.362,0,0,1,1.647-1.707,2.09,2.09,0,0,1,2.566-.346,2.3,2.3,0,0,1,1.426,2.4c-.381,1.909-.036,4.01-1.324,5.717-.383.513-.622,1.148-.061,1.6a1.661,1.661,0,0,0,1.839.383,10.237,10.237,0,0,1,2.739-1Z" transform="translate(-517.114 -137.19)" fill="#4f9ba3"/>
      <path id="Path_56" data-name="Path 56" d="M614.392,273.778a4.032,4.032,0,0,1-2.627,3.008c-1.982.729-4.012,1.361-6.059,1.923-.622.178-1.481.513-1.946-.356-.3-.549.274-1.026,1.552-1.386,1.588-.44,3.2-.834,4.751-1.385a8.063,8.063,0,0,0,2.149-1.337,1.167,1.167,0,0,0,.3-1.039c-.084-.214-.645-.333-.991-.346-3.318-.048-6.638.048-9.944-.132-2.555-.143-4.585.348-5.7,2.878a1.683,1.683,0,0,1-.109.167c-.31.5-.788.859-1.313.549-.668-.383-.394-1.026-.12-1.552.3-.574.658-1.11,1.207-2.007-3.08,0-5.719-.082-8.376.012-6.1.216-12.177-.371-18.254-.656a2.073,2.073,0,0,1-2.233-1.8,18.866,18.866,0,0,1-.465-3.921c.071-4.37.275-8.732.43-13.1.107-2.746.095-2.7-2.673-3.208-2.721-.5-5.432-1.11-8.142-1.7-2-.442-3.986-.943-5.981-1.4-.549-.121-1.026-.132-1.133.668-.371,2.744-.789,5.491-1.194,8.224-.49,3.208-1,6.4-1.493,9.6a63.779,63.779,0,0,0-.978,9.276,3.6,3.6,0,0,0,1.921,3.605,13.317,13.317,0,0,0,1.946.943,54.267,54.267,0,0,0,13.228,2.376c4.024.264,8.071.276,12.106.394,1.982.061,3.963.157,5.957.121q5.945-.125,11.892-.383c3.9-.168,7.795-.535,11.7-.572a88.288,88.288,0,0,0,12.022-1.374,21.385,21.385,0,0,0,7.342-2.3,10.437,10.437,0,0,0,4.428-4.25c-4.177-.132-8.13-.262-12.081-.394a.969.969,0,0,0-1.114.848Z" transform="translate(-525.261 -52.679)" fill="#ead6c1"/>
      <path id="Path_57" data-name="Path 57" d="M659.344,206.283a1.155,1.155,0,0,0-1.278-.656c-1.659.082-3.318.143-4.967.107a19.6,19.6,0,0,1-7.759-1.426,7.052,7.052,0,0,0-4.5-1,3.7,3.7,0,0,1-1.934-.335c-.025-.011-.061-.023-.084-.036a11.463,11.463,0,0,1-6.519-5.646,16.526,16.526,0,0,1-1.827-6.237,59.772,59.772,0,0,1,.31-12.893c.2-1.5.228-3.03.394-4.55.109-.966-.321-1.217-1.2-1.36a119.249,119.249,0,0,1-14.387-3.668c-1.385-.394-2.746-.859-4.179-1.326-.13,1.636-.31,3.129-.356,4.633a71.8,71.8,0,0,0-.323,11.687,23.092,23.092,0,0,0,5.061,11.831,19.246,19.246,0,0,0,12.154,7.248c2.662.453,5.361.8,8.071,1a7.194,7.194,0,0,1,2.292.549,5.244,5.244,0,0,1,2.6,2.616,34.668,34.668,0,0,1,1.684,4.633c.346,1.087.417,1.23,1.468,1.087,1.372-.168,2.746-.4,4.118-.6,4.311-.658,8.632-1.3,13.187-1.994C660.668,208.695,659.989,207.5,659.344,206.283Z" transform="translate(-473.952 -114.998)" fill="#ead6c1"/>
      <path id="Path_58" data-name="Path 58" d="M611.7,180.566v-8.62A33.9,33.9,0,0,0,606.886,179C608.545,179.539,610.026,180.028,611.7,180.566Z" transform="translate(-476.878 -111.33)" fill="#ead6c1"/>
      <path id="Path_59" data-name="Path 59" d="M586.326,173.292c.335.713.526,1.171.752,1.6a5.534,5.534,0,0,0,.633.991c.132.132.526.239.6.167a1.566,1.566,0,0,0-.633-2.472,12.444,12.444,0,0,0-1.349-.29Z" transform="translate(-492.957 -110.277)" fill="#ead6c1"/>
      <path id="Path_60" data-name="Path 60" d="M567.826,192.076a25.656,25.656,0,0,0,3.821,1,1.648,1.648,0,0,1,1.479,1.374c.084.453.287.891.356,1.349.43,3.283.882,6.553,1.23,9.848.333,3.152.6,6.328.811,9.491a2.138,2.138,0,0,0,1.171,1.923,18.072,18.072,0,0,0,12.236,2.292,28.561,28.561,0,0,0,4.277-1.492,1.1,1.1,0,0,0,.752-1.247c-.2-2.447-.383-4.883-.645-7.319-.036-.333-.5-.713-.859-.891a12.014,12.014,0,0,0-1.349-.3c-.919-.356-1.816-.752-2.7-1.192a.713.713,0,0,1-.228-1.171,1.283,1.283,0,0,1,1.016-.262,5.317,5.317,0,0,1,1.069.488,10.965,10.965,0,0,0,8.488.144c5.419-2.233,7.629-6.686,8.554-12.273-1.408.107-2.65.191-3.892.3-1.408.109-1.982-.071-1.946-.713.073-1.1,1-.846,1.672-.918,2.03-.2,4.06-.371,6.415-.574-.978-1.946-1.837-3.641-2.686-5.346-1.133-2.3-2.352-4.573-3.354-6.938a12.334,12.334,0,0,1-.872-3.844c-.228-3.03-.431-2.841-3.236-2.746a3.277,3.277,0,0,0-.6.048,2.431,2.431,0,0,0-2.124,1.923,21.593,21.593,0,0,1-2.316,5.229,9.9,9.9,0,0,1-2.818,2.985,7.725,7.725,0,0,1-10.183-.442,16,16,0,0,1-4.908-9.908,9.839,9.839,0,0,1,.013-2.579c.178-1.41.765-1.935,2.208-2.065,1.313-.132,2.65-.2,3.976-.2,3.386,0,6.758.012,10.124.084a3.789,3.789,0,0,1,4.024,2.876c.178.668.585.713,1.2.6a16.523,16.523,0,0,1,3.331-.31c.891.036,1.146-.323,1.278-1.1.3-1.768.335-1.782,2.078-1.982,1.517-.168,3.03-.3,4.56-.406.823-.061,1.146-.442,1.146-1.265.013-2.245.071-4.5.084-6.758a1.588,1.588,0,0,0-.191-.513c-3.564.891-7.055,1.827-10.589,2.637-3.208.741-6.435,1.506-9.707,2.007a36.876,36.876,0,0,1-15.353-.871c-.645-.178-1.016-.025-1.1.681-.216,1.837-.431,3.676-.681,5.524-.264,2.017-.455,4.07-.891,6.059-.49,2.292-1.313,2.482-3.03.991a5.588,5.588,0,0,0-2.017-1.181,6.866,6.866,0,0,0-5.7.846,4.125,4.125,0,0,0-1.814,2.233,10.429,10.429,0,0,0,.369,6.626,13.862,13.862,0,0,0,8.043,7.251Z" transform="translate(-514.295 -121.241)" fill="#ead6c1"/>
      <g id="Group_19" data-name="Group 19" transform="translate(21.722 15.065)" opacity="0.2">
        <path id="Path_61" data-name="Path 61" d="M560.707,190.662l1.094-3.482,3.386-2.885,4.876-.1,3.482,1.991,2.58-13.934,1.394-.1,7.561,1.991,10.744-1.492,18.9-4.478,11.341-7.859,5.074-4.974,1.891-5.87-1.392-3.085s-13.929,17.013-21.788,19.3-31.04,4.676-35.021,4.377-4.377,2.785-5.571,5.373A16.83,16.83,0,0,1,562.7,182.3a30.126,30.126,0,0,1-7.364,1.782l2.288,4.277Z" transform="translate(-538.919 -146.385)"/>
        <path id="Path_62" data-name="Path 62" d="M571.414,179.631c-.994-.8-.795-.6-4.477-1s-7.859-5.168-7.859-5.168l1.591,3.979,6.068,4.277,5.573,1.194S572.4,180.426,571.414,179.631Z" transform="translate(-535.99 -125.205)"/>
        <path id="Path_63" data-name="Path 63" d="M586.7,174.267l-4.179,3.88-3.782,1.194-4.874-2.188-4.079-6.964-.2-4.874-.724.274s-1.465,15.843,8.584,15.843S586.7,174.267,586.7,174.267Z" transform="translate(-528.397 -131.581)"/>
        <path id="Path_64" data-name="Path 64" d="M590.148,173.976l-4.277-1.294,1.782,4.676,2.188-.1Z" transform="translate(-515.035 -125.819)"/>
        <path id="Path_65" data-name="Path 65" d="M592.009,178.144l-5.073.994-2.785-1.991-2.188,2.588,2.188,1.991,5.97-1.591Z" transform="translate(-518.093 -122.326)"/>
        <path id="Path_66" data-name="Path 66" d="M576.753,192.724a16.785,16.785,0,0,0,5.87,2.288l-.4-6.964-8.356-3.582S574.665,191.12,576.753,192.724Z" transform="translate(-524.423 -116.603)"/>
        <path id="Path_67" data-name="Path 67" d="M573.564,191.954l-.6-2.188-11.94,3.386,5.471,4.876Z" transform="translate(-534.465 -112.458)"/>
        <path id="Path_68" data-name="Path 68" d="M579.216,193.715,587.075,197l4.776-7.064-12.735,1.991Z" transform="translate(-520.318 -112.327)"/>
        <path id="Path_69" data-name="Path 69" d="M617.28,227.592l-6.567-12.537s-1.194,8.955-3.88,9.849a7.857,7.857,0,0,1-3.88.6v15.37l2.985,2.538Z" transform="translate(-501.675 -92.68)"/>
        <path id="Path_70" data-name="Path 70" d="M743.8,325.517l-2.985-22.235s-20,11.049-38.352,12.385-20-1.342-20-1.342l-1.641,2.386-15.073-18.8,1.939-2.238,2.985,2.985s26.713-40.293,32.533-52.231a58.042,58.042,0,0,0,5.968-22.237l-.891-6.118s-52.978,59.1-58.2,57.9-42.235-32.234-42.235-32.234l-3.582-3.133a29.341,29.341,0,0,1-11.94-.15,27.964,27.964,0,0,1-10.746-6.268c-1.194,2.835.15,10.147,1.641,12.982s9.1,3.135,12.685,4.329,7.761,2.536,8.358,4.327a25.054,25.054,0,0,0,3.432,8.208,161.81,161.81,0,0,0,12.519,14.089,86.1,86.1,0,0,1-22.368,2.475c-17.21,0-29.212-20.922-30.474-23.215l.479-18.712-.248-18.405L555.075,270.01l-7.56-1.593-1.394,7.561,11.74,2.188s-2.24,13.187-.6,15.86,7.162,2.238,9.1,5.074a6.027,6.027,0,0,1,.445,5.637l-1.939.178h-9.55l-.447,7.462s26.114-.6,33.875,2.089,17.012,11.193,17.012,11.193l30.743.3.082-.3ZM636.042,294.742l-7.385.449.089-.118-55.513-.747-4.623-.713Zm-69.266-13.793-.21,10.227-.05-.132Z" transform="translate(-546.122 -90.322)"/>
        <path id="Path_71" data-name="Path 71" d="M635.4,163.289a37.547,37.547,0,0,1,2.712,4.414c1.344,2.686,1.791,8.506,1.643,11.491s-1.194,14.923-.6,20.137c.4,3.552,3.158,6.756,5.863,9.29a85.242,85.242,0,0,0-10.042-.634c-7.909,0-15.967-7.164-15.967-7.164l5.371,5.82,7.306,3.432,9.55,1.344,4.029,1.342,2.388,7.611,21.34-3.133-.449-.747-2.238-3.732-.508-.105-.237-.342,9.849-2.835,10.3-5.524,2.238-6.865.891-8.656s-13.579,9.55-28.652,6.118-19.246-24.026-19.246-24.026l-3.723-7.169h.141l-.3-3.133-34.025-1.782.15,3.432Z" transform="translate(-501.614 -136.956)"/>
        <path id="Path_72" data-name="Path 72" d="M632.045,172.222l-18.206-4.776L610.7,166.4l-.3,3.432L631.6,178.49Z" transform="translate(-495.846 -130.73)"/>
        <path id="Path_73" data-name="Path 73" d="M647.64,193.086a8.748,8.748,0,0,1-6.415,7.012,38.783,38.783,0,0,0-11.641,7.014l24.176-3.88,4.477-9.55-.891-.3-5.671-3.283.148,2.686-1.641,1.641Z" transform="translate(-480.849 -112.196)"/>
      </g>
      <g id="Group_20" data-name="Group 20" transform="translate(23.972 12.636)">
        <path id="Path_74" data-name="Path 74" d="M562.672,159.866a1.524,1.524,0,0,0-1.818.027.89.89,0,0,0-.41.1,3.386,3.386,0,0,0-1.846,2.44,1.868,1.868,0,0,0,1.837,1.928C562.43,164.446,564.709,161.308,562.672,159.866Z" transform="translate(-538.615 -133.638)" fill="#f5f5f5"/>
        <path id="Path_75" data-name="Path 75" d="M587.768,148.4a14.233,14.233,0,0,0-5.824,4.42c-1.344,1.438-3.03,2.627-4.436,4.019-2.279,1.832-4.209,4.118-1.2,4.99,1.766.519,4.445-1.214,5.867-2.019a26.46,26.46,0,0,0,6.679-5.143C590.653,152.638,592.544,146.946,587.768,148.4Z" transform="translate(-525.972 -142.562)" fill="#f5f5f5"/>
        <path id="Path_76" data-name="Path 76" d="M587.08,145.161a.82.82,0,0,0-.911.4,2.394,2.394,0,0,0-.178,2.687,1.734,1.734,0,0,0,2.513.251C589.97,147.315,588.887,144.35,587.08,145.161Z" transform="translate(-517.45 -145.022)" fill="#f5f5f5"/>
        <path id="Path_77" data-name="Path 77" d="M565.186,169.459c-1.356-1.684-4.756-.274-4.753,1.782a.891.891,0,0,0,1.661.449,1.524,1.524,0,0,1,1.887-.729.845.845,0,0,0,1.037-.159.955.955,0,0,0,.168-1.344Z" transform="translate(-537.18 -126.495)" fill="#f5f5f5"/>
        <path id="Path_78" data-name="Path 78" d="M586.6,176.893q-.873-1.857-1.591-3.778c-.4-1.069-2.121-.6-1.718.472q.8,2.138,1.77,4.206C585.545,178.83,587.082,177.926,586.6,176.893Z" transform="translate(-519.353 -123.526)" fill="#f5f5f5"/>
        <path id="Path_79" data-name="Path 79" d="M564.847,199.644c-1.791-1.173-3.888.713-5.081,1.91-.727.731-1.415,1.5-2.083,2.29a11.776,11.776,0,0,0-2.705,2.851c-1.069,1.722.068,3.106,2.025,2.759,2.65-.47,5.066-3.32,6.71-5.223C564.689,203.089,566.786,200.924,564.847,199.644Z" transform="translate(-541.767 -102.593)" fill="#f5f5f5"/>
        <path id="Path_80" data-name="Path 80" d="M554.848,207.168a1.408,1.408,0,0,0-1.629-.476.859.859,0,0,0-.984.369,2.43,2.43,0,0,0-.15,2.607c.6.85,1.59.526,2.158-.164C554.7,208.947,555.272,207.881,554.848,207.168Z" transform="translate(-543.949 -96.864)" fill="#f5f5f5"/>
        <path id="Path_81" data-name="Path 81" d="M599.485,205.279a8.816,8.816,0,0,0-1.426-1.03,20.414,20.414,0,0,0-7.886-4.02l-.15-.071a.909.909,0,0,0-.74-.014c-1.174-.009-2.008.479-2.069,1.83-.091,1.976,2.613,3.386,4.134,3.976,2.139.83,4.92,3.046,7.358,2.7C600.555,208.386,600.7,206.415,599.485,205.279Z" transform="translate(-516.235 -101.97)" fill="#f5f5f5"/>
        <path id="Path_82" data-name="Path 82" d="M597.957,204.852a.945.945,0,0,0-1.018.6c-1.206.5-.588,2.725,1.039,2.566a1.6,1.6,0,0,0-.021-3.161Z" transform="translate(-509.123 -98.239)" fill="#f5f5f5"/>
        <path id="Path_83" data-name="Path 83" d="M551.767,256.3c-.356-1.128-1.782-2.3-2.851-1.2-.012.012-.016.032-.028.045a.817.817,0,0,0-.515.561c-.392,1.344-1.181,3.308-.39,4.633a1.827,1.827,0,0,0,3.163.087A5.393,5.393,0,0,0,551.767,256.3Z" transform="translate(-547.182 -59.282)" fill="#f5f5f5"/>
        <path id="Path_84" data-name="Path 84" d="M548.922,260.046a.8.8,0,0,0-1.219.429.875.875,0,0,0-.232.371,1.638,1.638,0,0,0,.822,1.991.914.914,0,0,0,1.219-.321,1.756,1.756,0,0,0-.59-2.47Z" transform="translate(-547.385 -55.174)" fill="#f5f5f5"/>
        <path id="Path_85" data-name="Path 85" d="M578.572,221.777a3.9,3.9,0,0,0-2.3-1.563,3.651,3.651,0,0,0-3.448-.339,1.383,1.383,0,0,0-.289,2.138,8.488,8.488,0,0,0,2.962,1.713c.857.374,1.876.836,2.744.225a1.524,1.524,0,0,0,.333-2.174Z" transform="translate(-528.015 -86.703)" fill="#f5f5f5"/>
        <path id="Path_86" data-name="Path 86" d="M578.686,222.56a.836.836,0,0,0-.492-.622.755.755,0,0,0-.233-.091h0a.793.793,0,0,0-.275-.011.873.873,0,0,0-.674.383,1.069,1.069,0,0,0-.146,1.027.907.907,0,0,0,1.31.535.982.982,0,0,0,.51-1.221Z" transform="translate(-524.382 -84.954)" fill="#f5f5f5"/>
        <path id="Path_87" data-name="Path 87" d="M581.457,216.877a.891.891,0,0,0-1.752-.078.969.969,0,0,0,.011.693c.151,1.308.813,3.507,2.284,2.559C583.128,219.322,582.271,217.778,581.457,216.877Z" transform="translate(-522.154 -89.43)" fill="#f5f5f5"/>
        <path id="Path_88" data-name="Path 88" d="M581.555,219.556a.891.891,0,1,0,.891.891A.891.891,0,0,0,581.555,219.556Z" transform="translate(-521.357 -86.732)" fill="#f5f5f5"/>
        <path id="Path_89" data-name="Path 89" d="M573.244,216.779c-1.365-1.306-4.484-1.192-6.212-1.126a5.487,5.487,0,0,0-1.554.314,4.942,4.942,0,0,0-2.372.82,2.921,2.921,0,0,0-1.034,3.8c1.93,3.236,8.568,1.919,10.856-.1a2.411,2.411,0,0,0,.316-3.707Z" transform="translate(-536.15 -89.812)" fill="#f5f5f5"/>
        <path id="Path_90" data-name="Path 90" d="M590.525,216.1a.754.754,0,0,0-.638-.713c-1.839-.4-4.673,1.069-3.921,3.324.626,1.869,4.079,2.39,5.426,1.169C592.8,218.626,591.91,216.883,590.525,216.1Z" transform="translate(-517.308 -90.039)" fill="#f5f5f5"/>
        <path id="Path_91" data-name="Path 91" d="M603.821,217.441a6.349,6.349,0,0,0-5.279-1.41.929.929,0,0,0-.23-.066,6.631,6.631,0,0,0-5.961,1.761,3.536,3.536,0,0,0-.21,4.414c2.516,3.43,8.91,1.713,11.371-.986a2.673,2.673,0,0,0,.308-3.714Z" transform="translate(-512.908 -89.644)" fill="#f5f5f5"/>
        <path id="Path_92" data-name="Path 92" d="M617.981,156.488c-.606-1.376-2.495-1.119-3.814-.588a4.576,4.576,0,0,0-3.161,1.757,1.329,1.329,0,0,0,.665,1.852,5.524,5.524,0,0,0,2.955-.119C615.9,159.152,618.84,158.44,617.981,156.488Z" transform="translate(-497.749 -136.849)" fill="#f5f5f5"/>
        <path id="Path_93" data-name="Path 93" d="M617.154,155.072l-.545-.016a.88.88,0,0,0-.6,1.515.131.131,0,0,0,.013.068.9.9,0,0,0,1.31.535,1.247,1.247,0,0,0,.713-1.208A.909.909,0,0,0,617.154,155.072Z" transform="translate(-493.928 -137.175)" fill="#f5f5f5"/>
        <path id="Path_94" data-name="Path 94" d="M647.988,157.961a12.4,12.4,0,0,0-1.679-1.52.734.734,0,0,0-.269-.442c-1.782-1.447-6.029-4.455-8.494-3.055-2.1,1.2-.608,4.412.109,5.977,1.363,2.983,9,12.831,12.271,6.742C651.28,163.152,649.712,159.876,647.988,157.961Z" transform="translate(-477.714 -139.11)" fill="#f5f5f5"/>
        <path id="Path_95" data-name="Path 95" d="M646.517,162.506a1.575,1.575,0,0,0-1.426.412.919.919,0,0,0-.572.747,2.292,2.292,0,0,0,1.661,2.778,1.848,1.848,0,0,0,2.056-1.654,2.172,2.172,0,0,0-1.72-2.283Z" transform="translate(-471.472 -131.376)" fill="#f5f5f5"/>
        <path id="Path_96" data-name="Path 96" d="M624.941,217.065c-1.49-.891-3.386.422-4.421,1.477a.871.871,0,0,0-.775.38c-.991,1.41-9.782,11.772-4.787,12.606,2.046.342,4.038-1.88,5.273-3.177a23.057,23.057,0,0,0,4.917-6.95C625.67,220.109,626.488,218,624.941,217.065Z" transform="translate(-495.729 -88.91)" fill="#f5f5f5"/>
        <path id="Path_97" data-name="Path 97" d="M613.225,227.5a1.3,1.3,0,0,0-.841-.162.814.814,0,0,0-.224-.029c-1.274.093-1.85,1.782-1.454,2.883a1.574,1.574,0,0,0,2.8.435C614.141,229.743,614.314,228.105,613.225,227.5Z" transform="translate(-497.96 -80.671)" fill="#f5f5f5"/>
        <path id="Path_98" data-name="Path 98" d="M601.857,231.889a.8.8,0,0,0-.246-.317,18.294,18.294,0,0,0-4.339-2.616c-1.069-.444-2.955-1.381-4.138-.822-3.2,1.513,2.138,4.854,3.176,5.542,1.231.822,2.935,2.176,4.539,1.982a1.545,1.545,0,0,0,1.1-.6.759.759,0,0,0,.187-.11,1.8,1.8,0,0,0-.28-3.054Z" transform="translate(-512.393 -80.158)" fill="#f5f5f5"/>
        <path id="Path_99" data-name="Path 99" d="M628.772,203.882a3.252,3.252,0,0,0-1.247-.089.754.754,0,0,0-.948-.037c-1.426.944-5.275,4.248-3.092,6.109,1.153.982,2.372-.178,3.188-1a14.194,14.194,0,0,0,2.628-3.675.9.9,0,0,0-.529-1.308Z" transform="translate(-488.381 -99.206)" fill="#f5f5f5"/>
        <path id="Path_100" data-name="Path 100" d="M643.333,255.154c-1.9-1.1-4.9-.49-7.182.971a1.738,1.738,0,0,0-.579.269c-1.752,1.235-3.564,3.472-3.158,5.792.426,2.381,3.366,2.457,5.239,2.128a9.218,9.218,0,0,0,5.646-3.425C644.586,259.224,645.652,256.5,643.333,255.154Z" transform="translate(-480.93 -59.333)" fill="#f5f5f5"/>
        <path id="Path_101" data-name="Path 101" d="M643.418,250.517a7.178,7.178,0,0,0-2.654,2.094,2.933,2.933,0,0,0,1.335,3.147,2.84,2.84,0,0,0,3.405-.269,2.957,2.957,0,0,0-2.087-4.972Z" transform="translate(-474.411 -62.518)" fill="#f5f5f5"/>
      </g>
      <g id="Group_21" data-name="Group 21">
        <path id="Path_102" data-name="Path 102" d="M631.685,279.958a8.637,8.637,0,0,1,.633,1.362,7.66,7.66,0,0,1-.919,1.2,27.951,27.951,0,0,1-2.518,1.923,2.1,2.1,0,0,1-3.307-.314c-1.54-1.732-3-3.521-4.418-5.346-3.008-3.846-5.968-7.738-8.941-11.6-1.183-1.529-1.171-2.042.346-3.259a30.7,30.7,0,0,1,3.564-2.459c1.194-.713,1.672-.535,2.424.645.681,1.069,1.248,2.2,1.994,3.208,3.092,4.1,6.255,8.165,9.383,12.25C630.539,278.347,631.136,279.144,631.685,279.958Zm-1.313,1.146c-.609-.836-1.182-1.647-1.782-2.434q-4.812-6.321-9.646-12.608c-.752-.978-1.529-1.921-2.292-2.876-1.087.727-2.185,1.456-3.475,2.317.574.765.955,1.3,1.361,1.816q2.614,3.366,5.254,6.72c2.2,2.817,4.37,5.66,6.613,8.442.823,1.014.891.955,1.9.2.684-.508,1.365-1.042,2.069-1.577Z" transform="translate(-473.371 -41.65)" fill="#3c3372"/>
        <path id="Path_103" data-name="Path 103" d="M754.342,388.15c-.264-1.768-.827-7.485-1.041-9.267-.6-4.847-1.135-9.718-1.8-14.565-.561-3.986-1.3-7.962-1.96-11.94-.955-5.8-1.935-11.6-2.878-17.418-.346-2.149-.6-4.321-.968-6.471-.62-3.653-1.372-7.283-1.969-10.937-.891-5.551-1.684-11.115-2.579-16.666q-1.326-8.221-2.769-16.427c-.645-3.641-1.349-7.282-2.126-10.9-1.265-5.945-2.625-11.867-3.921-17.8a56.449,56.449,0,0,0-2.8-10.924,1.767,1.767,0,0,1,.071-1.3c1.29-2.6,2.639-5.168,3.94-7.772a1.994,1.994,0,0,1,1.426-1.23,2.99,2.99,0,0,0,2.423-2.566c.132-.561.3-1.1.43-1.623,1.146,0,2.139.023,3.128-.012a4.1,4.1,0,0,0,3.988-3.45,5.494,5.494,0,0,0-2.126-5.79c-2.2-1.7-2.138-1.768-1.158-4.311A45.151,45.151,0,0,0,744.187,205a74.7,74.7,0,0,0-.643-15.663,36.654,36.654,0,0,0-1.426-6.781,57.005,57.005,0,0,0-9.146-17.491,29.663,29.663,0,0,0-8.019-7.6,30.766,30.766,0,0,0-13.742-4.191,44.238,44.238,0,0,0-17.143,1.148,38.694,38.694,0,0,0-7.652,2.661c-.465.264-.955.729-1.4.681-.394-.046-.74-.656-1.085-1.039a1.14,1.14,0,0,0-1.743-.119c-.251.216-.455.478-.693.713a17.463,17.463,0,0,0-3.666,6.059c-.274.729-.381,1.6-1.527,1.827a61.954,61.954,0,0,0-18.673,8.046,2.317,2.317,0,0,0-1.313,2.256c.025.526-.011,1.069.012,1.588.1,1.458.323,1.743,1.768,1.852,1.385.107,2.78.094,4.167.155,1.276.048,1.3.059,1.336,1.385.013.8,0,1.6-.06,2.388a3.92,3.92,0,0,0,1.577,3.653,34.946,34.946,0,0,0,3.306,2.172,1.941,1.941,0,0,1,1.1,1.647,7.932,7.932,0,0,1-1.994,6.793,14.079,14.079,0,0,0-1.069,1.426c-1.247,1.782-2.543,3.564-3.689,5.407-1.026,1.7-.693,2.687,1.123,3.439a32.2,32.2,0,0,0,4.334,1.385,1.622,1.622,0,0,1,1.443,1.36,22.242,22.242,0,0,0,3.641,7.868A21.289,21.289,0,0,0,686,226.97a71.19,71.19,0,0,0,9.812,1.349,3.921,3.921,0,0,1,3.3,1.862,14.449,14.449,0,0,1,1.494,3.438c.62,2.317.534,2.281-1.9,2.627-2.019.287-4.036.681-6.041,1.1-.932.191-1.051.549-.633,1.41.214.417.478.8.727,1.194,1.313,2.065,2.639,4.118,3.953,6.184,1.2,1.9,1.2,1.9-.609,3.176a40.736,40.736,0,0,0-15.83,22.169,15.068,15.068,0,0,1-2.124,5.3c-2.078,2.65-4.047,5.4-6.059,8.094a9.443,9.443,0,0,1-.727.788c-.239-.155-.383-.2-.442-.31q-9.008-15.06-18-30.146a6.711,6.711,0,0,0-2.625-2.6q-9.725-5.168-19.389-10.434c-2.591-1.426-5.122-2.937-7.713-4.43.31-.549.513-.966.765-1.349q3.208-4.78,6.4-9.573a7.152,7.152,0,0,0,1.026-1.9,1.719,1.719,0,0,0-.346-1.385c-.178-.2-.871-.107-1.247.061-1.923.871-3.8,1.85-5.731,2.721-2.864,1.29-5.765,2.531-8.821,3.869-.192-1.6-.371-3.092-.551-4.573.729-.191,1.23-.371,1.755-.454a15.575,15.575,0,0,0,7.319-3.76,8.884,8.884,0,0,0,2.876-3.963c.693-1.862,1.314-3.742,1.935-5.622a1.821,1.821,0,0,1,1.349-1.481c1.085-.31,1.426-1.027.955-1.994a3.963,3.963,0,0,1-.061-3.208,14.791,14.791,0,0,0,.585-2.711,1.317,1.317,0,0,1,1.219-1.3,10.273,10.273,0,0,0,5.216-3.092,12.7,12.7,0,0,0,3.869-8.452c.191-3.163-1.171-4.692-4.334-4.9q-1.989-.125-3.976-.178c-1.755-.061-1.791-.048-1.782-1.791.036-2.375.155-4.763.191-7.151.013-.713.535-.859.978-1.069a56.548,56.548,0,0,0,11.068-7.342,22.12,22.12,0,0,0,5.157-5.981,10.158,10.158,0,0,0,1.517-5.467A3.958,3.958,0,0,0,646,151.4c-.713.023-1.426.071-2.281.119.239-1.468.417-2.769.681-4.06a4.266,4.266,0,0,0-1.613-4.405,3.7,3.7,0,0,0-4.405-.572c-.274.13-.549.262-.859.4-.216-.823-.357-1.54-.6-2.22a3.625,3.625,0,0,0-5.957-1.782,19.187,19.187,0,0,0-1.552,1.54c-3.45,3.564-6.829,7.223-10.363,10.692a91.551,91.551,0,0,1-24.45,16.751,14.744,14.744,0,0,1-7.95,2.053,10.692,10.692,0,0,0-3.117.549,16.914,16.914,0,0,0-12.929,17.847,12.46,12.46,0,0,0,5.313,9.755,2.438,2.438,0,0,1,1.171,1.695c1.265,6.415,7.21,10.375,12.416,11.45,1.6.323,1.623.262,1.862,1.96.381,2.759.752,5.524,1.085,8.274.239,1.91.442,3.819.645,5.729.109,1.069.06,1.11-1.039,1.11-.191,0-.394-.011-.6-.023-3.76-.143-7.533-.3-11.305-.442a15.822,15.822,0,0,0-1.992.012c-1.1.119-1.468.823-.993,1.827a4.172,4.172,0,0,0,.681.966c1.146,1.194,2.294,2.388,3.487,3.534,1.408,1.374,2.864,2.7,4.416,4.131-.713.609-1.288,1.146-1.91,1.624-3.677,2.807-7.388,5.576-11.049,8.394-2.365,1.827-4.6,3.821-7.045,5.492a6.523,6.523,0,0,0-2.327,2.817c-1.552,3.354-3.128,6.71-4.634,10.087q-8.148,18.177-16.217,36.4c-2.554,5.8-4.965,11.676-7.413,17.527a21.464,21.464,0,0,0-1.123,3.176,1.873,1.873,0,0,0,1.183,2.411c2.221.668,4.428,1.349,6.661,1.934,4.154,1.069,8.333,2.078,12.5,3.129,1.289.333,1.426.524,1.248,1.782-.668,4.644-1.372,9.3-2.065,13.945-.453,3.081-.955,6.148-1.349,9.229a41.1,41.1,0,0,0-.274,4.37,3.947,3.947,0,0,0,1.247,3.235,13.841,13.841,0,0,0,3.844,2.375,36.9,36.9,0,0,0,5.587,1.336c1.481.3,1.6.264,1.481,1.768-.226,2.769-.574,5.524-.891,8.3-.369,3.079-.836,6.161-1.133,9.253-.251,2.6.071,2.876,2.627,2.866q38.787-.091,77.588-.192c3.117,0,6.219.012,9.324-.036,1.194-.023,101.265.066,101.79,0C754.258,389.426,754.461,388.969,754.342,388.15ZM668.752,207.168c-1.672-.535-3.152-1.027-4.812-1.565a33.9,33.9,0,0,1,4.812-7.055Zm68.4,80.644c1.875,11.008,3.605,22.026,5.205,33.147a11.86,11.86,0,0,1-4.728-4.37,35.793,35.793,0,0,1-4.346-13.467,25.463,25.463,0,0,1,1.994-12.941,21.25,21.25,0,0,1,1.426-2.459c.153.027.294.055.449.091Zm-.658-3.653a2.264,2.264,0,0,1-.43,1.445,23.94,23.94,0,0,0-4.548,16.056A34.389,34.389,0,0,0,736,317.323a13.776,13.776,0,0,0,5.5,5.314,3.3,3.3,0,0,1,1.933,2.7c.1,1.037.251,2.076.394,3.208a11.7,11.7,0,0,1-5.157-2.782,26.544,26.544,0,0,1-3.386-3.046,20.625,20.625,0,0,1-2.95-4.177,34.684,34.684,0,0,1-3.742-13.061,62.291,62.291,0,0,1-.356-7.725,26.034,26.034,0,0,1,5.1-15.351,6.076,6.076,0,0,1,2.495-2.172c.239,1.363.513,2.639.661,3.929Zm5.863-61.041a3.275,3.275,0,0,1,.788,3.831c-.513,1.29-1.468,1.782-3.247,1.695-.788-.046-1.577-.214-2.365-.285-1.4-.119-1.659.119-1.766,1.456-.013.264.011.526,0,.8-.084,1.923-.848,2.65-2.759,2.411a7.11,7.11,0,0,1-4.763-2.172,1.277,1.277,0,0,0-.12-.155c-.488-.406-.907-1.069-1.682-.713-.645.3-.622.92-.693,1.527-.107.891-.346,1.768-.609,3.046a18.575,18.575,0,0,1-3.987-5.7c-.335-.62.251-.763.729-.846,1.885-.346,3.783-.622,5.646-1.039a30.037,30.037,0,0,0,11.557-5.457c.574-.43.978-.513,1.517.012C741.16,222.078,741.792,222.568,742.354,223.117Zm-49.007-66.724a42.2,42.2,0,0,1,14.125-1.707,36.332,36.332,0,0,1,16.021,3.963,26.619,26.619,0,0,1,8.107,7.5,53.121,53.121,0,0,1,8.7,16.595,62.793,62.793,0,0,1,1.6,7.748,68.357,68.357,0,0,1,.534,14.481,41.81,41.81,0,0,1-3.653,14.339,3.207,3.207,0,0,1-1.11,1.085,30.491,30.491,0,0,1-13.633,5.524,74.224,74.224,0,0,1-10.243,1.11,18.478,18.478,0,0,1-15.926-7.772,11.989,11.989,0,0,1-2.16-8.226c.356-5.539,1.73-11,1.349-16.595A27.92,27.92,0,0,0,693.79,181.9a12.082,12.082,0,0,1-1.623-4.715,45.026,45.026,0,0,0-2.1-10.459,36.008,36.008,0,0,0-3.208-6.123c-.249-.394-.5-.765-.836-1.247a25.14,25.14,0,0,1,7.323-2.964Zm-.788,33.022a21.163,21.163,0,0,0-3.27-8.376,1.91,1.91,0,0,1,2.459.859,18.02,18.02,0,0,1,1.718,3.343,35.575,35.575,0,0,1,1.426,17.405c-.369,2.555-.608,5.134-.93,7.69a14.244,14.244,0,0,0,4.847,12.63c.369.356.752.713,1.426,1.362a7.471,7.471,0,0,1-3.475-1.492,11.539,11.539,0,0,1-4.418-7.928,49.7,49.7,0,0,1,.312-14.814,39.6,39.6,0,0,0-.1-10.678Zm-30.956-11.9c-.859-.048-1.72-.132-2.566-.264a1.269,1.269,0,0,1-.891-2.138,2.911,2.911,0,0,1,.92-.74,68.506,68.506,0,0,1,15.652-7.032,9.507,9.507,0,0,1,1.54-.335,3.124,3.124,0,0,0,2.985-2.434,15.5,15.5,0,0,1,2.9-5.361c.634-.777.891-.777,1.542,0a28.545,28.545,0,0,1,6.1,12.715c.406,1.992.49,4.058.752,6.088.107.836-.287,1.027-1.014,1.016-1.135-.037-2.258-.012-3.386-.012v-.178c-4.1-.239-8.178-.478-12.273-.691s-8.178-.406-12.261-.633Zm5.086,8.082a3.069,3.069,0,0,1-1.41-3.056c.12-.968.168-1.946.239-2.924a26.976,26.976,0,0,1,3.117-.155c5.683.356,11.354.788,17.037,1.121a2.279,2.279,0,0,1,1.782,1.051,19.257,19.257,0,0,1,2.03,3.386,17.672,17.672,0,0,1,1.6,8.679,139.441,139.441,0,0,1-18.266-4.931,22.721,22.721,0,0,1-6.134-3.17Zm34.2,44.162a5.245,5.245,0,0,0-2.6-2.616A7.2,7.2,0,0,0,696,226.59c-2.711-.2-5.409-.549-8.071-1a19.247,19.247,0,0,1-12.154-7.248,23.091,23.091,0,0,1-5.061-11.831,71.821,71.821,0,0,1,.323-11.687c.046-1.5.226-3,.357-4.633,1.426.467,2.794.932,4.179,1.326a119.232,119.232,0,0,0,14.387,3.666c.891.143,1.313.394,1.2,1.36-.166,1.517-.191,3.046-.394,4.55a59.779,59.779,0,0,0-.31,12.893,16.526,16.526,0,0,0,1.827,6.237,11.464,11.464,0,0,0,6.519,5.646c.023.012.059.025.084.036a3.7,3.7,0,0,0,1.934.335,7.051,7.051,0,0,1,4.5,1,19.6,19.6,0,0,0,7.759,1.426c1.648.036,3.307-.025,4.966-.107a1.155,1.155,0,0,1,1.278.656c.645,1.217,1.324,2.411,2.03,3.666-4.56.691-8.882,1.337-13.187,1.994-1.372.2-2.746.43-4.118.6-1.051.143-1.123,0-1.468-1.087a34.673,34.673,0,0,0-1.691-4.63Zm-77.565,11.628v-1.326a12.208,12.208,0,0,1,1.374.609c8.142,4.787,16.523,9.156,24.88,13.544a4.876,4.876,0,0,1,1.862,1.982c2.924,4.824,5.861,9.659,8.752,14.494.059.1.107.178.166.274,3.01,5.05,5.934,10.158,9,15.162a2.317,2.317,0,0,1-.144,2.972c-2.7,4.011-5.264,8.1-7.879,12.154-.071.109-.084.264-.168.356-.381.442-.836,1.278-1.146,1.23a5.554,5.554,0,0,1-2.065-1.05c-.168-.109-.12-.6-.12-.907,0-2.711-.012-5.421.023-8.132.06-6.351.144-12.713.216-19.068a2.6,2.6,0,0,0-.274-1.565c-.287-.394-.861-.417-1.923-.31a31.43,31.43,0,0,1-3.951,0q-13.323-.214-26.635-.442h-.191c-1.982-.036-2.078-.071-2.055-1.969.1-5.241.31-10.47.371-15.7.046-4.1-.062-8.2-.1-12.309Zm-10.063,42.023a37.573,37.573,0,0,1-.178-5.157,7.716,7.716,0,0,1,.909-2.985c.43-.859,1.069-.871,1.754-.2a10.481,10.481,0,0,1,2.52,4.227c.535,1.623.823,3.331,1.337,4.977.622,2.017,1.29,4.024,2.042,5.993.572,1.517.465,1.6-.681,2.365a18.983,18.983,0,0,0-7.533,9.921,35.879,35.879,0,0,0-1.135,4.6c-.13.668-.381.891-1.026.907a38.829,38.829,0,0,1-12.345-1.247,9.765,9.765,0,0,1-5.408-4.07,7.067,7.067,0,0,1-1.086-3.963,24.806,24.806,0,0,1,4.334-14.016,7.5,7.5,0,0,1,5.539-3.062,22.964,22.964,0,0,1,2.376-.2,5.041,5.041,0,0,1,3.844,1.29c.752.645,1.565,1.23,2.329,1.862.549.442.991,1.247,1.827.859.9-.431.652-1.28.581-2.09Zm-1.814-.788a10.065,10.065,0,0,1-1.338-.861,8.317,8.317,0,0,0-7.805-1.852,20.821,20.821,0,0,0-3.785,1.11,7.069,7.069,0,0,0-3.259,2.8,27.132,27.132,0,0,0-4.6,15.354c.013,4.261,4,8.153,7.294,9.215a41.438,41.438,0,0,0,11.975,1.445c.453.013.918,0,1.385-.023a1.6,1.6,0,0,1,1.695,1.069,6.992,6.992,0,0,0,3.208,3.14,3.71,3.71,0,0,1,1.133,1.247,6.831,6.831,0,0,1,.634,1.458,28.871,28.871,0,0,0,5.956,9.525,152.034,152.034,0,0,0,16.4,16.178q4.8,4.154,9.695,8.2c1.123.93,2.352,1.73,3.534,2.579,1.016.727.92.7.633,2.124-.214,1.026-.846,1-1.6,1.026-1.982.071-3.976.226-5.958.239-7.891.025-15.784.251-23.662-.059-11.341-.442-22.684-.144-34.013-.323-3.642-.061-7.271-.356-10.912-.535-.622-.023-.991-.214-1.069-.891-.107-.907-.381-1.814-.4-2.723a194.74,194.74,0,0,1,.955-20.439c.262-3.7.143-7.424.191-11.138.048-3.044.059-6.1.13-9.146q.3-13.125.645-26.241c.084-3.438.2-6.888.31-10.336.012-.381.1-.764.144-1.217,11.305-.668,22.552.023,34.155-.323a11.772,11.772,0,0,0-1.662,9.392Zm5.371,23.7a45.041,45.041,0,0,0-.381,5.624,4.32,4.32,0,0,1-2.4-4.118,13,13,0,0,1,.713-3.856,18,18,0,0,1,8.376-10.627A4.229,4.229,0,0,1,627.6,293c-1.766,1.456-3.564,2.878-5.3,4.37a15.7,15.7,0,0,0-5.485,8.96Zm8.238-15.353c-1.087.178-1.493-.417-1.768-1.169-.713-1.982-1.349-3.988-1.96-6.006-.383-1.265-.574-2.579-.968-3.844a15.465,15.465,0,0,0-3.521-6.339c.048-.157.084-.3.13-.454,2.711,0,5.409-.023,8.107,0q13.9.127,27.816.262c.132,0,.264-.011.394,0,3.415.551,3.1-.239,3.117,3.32.036,7.485-.048,14.969-.107,22.454,0,.442-.073.891-.144,1.565-2.041-1.028-3.9-1.935-5.754-2.878a65.611,65.611,0,0,0-12.2-5.145,13.269,13.269,0,0,0-7.39-.765,2.115,2.115,0,0,1-1.313-.262,7.387,7.387,0,0,0-4.439-.732Zm-9.039-59.06q5.66-2.595,11.343-5.145c.094-.036.25.036.713.107-.586.92-1.069,1.695-1.552,2.459q-1.916,2.883-3.821,5.767c-.848,1.278-.836,1.3-2.22.907-1.069-.31-2.149-.62-3.188-1.026a4.566,4.566,0,0,1-1.468-.978,1.263,1.263,0,0,1,.192-2.083Zm-.453,4.238a27.918,27.918,0,0,0,4.322,1.4,2.151,2.151,0,0,1,1.743,1.887,8.933,8.933,0,0,1,.061,1.385c.011,4.763.059,9.538,0,14.3-.061,4.967-.216,9.933-.357,14.887-.036,1.386-.059,1.41-1.5,1.426-1.4.036-2.782.012-4.179.012H588.388a32.109,32.109,0,0,0,.287-8.787c-.214-3.163-.059-6.351-.023-9.527.059-4.177.214-8.344.214-12.523a3.255,3.255,0,0,1,1.625-3.272,32.187,32.187,0,0,0,3.676-3,17.763,17.763,0,0,0,8.214,3.438,17.12,17.12,0,0,0,11.019-1.517,2.069,2.069,0,0,1,2.167-.105Zm13.722-32.434c-.071.071-.465-.036-.6-.167a5.523,5.523,0,0,1-.633-.991c-.226-.442-.417-.891-.752-1.6a12.426,12.426,0,0,1,1.349.3,1.566,1.566,0,0,1,.626,2.468Zm7.535-17.443a4.415,4.415,0,0,1,.978.119c1.6.346,1.96.775,2.053,2.4a10.364,10.364,0,0,1-3.27,8,9.03,9.03,0,0,1-4.9,2.794,5.379,5.379,0,0,1-5.384-1.707,7.413,7.413,0,0,1-2.139-4.573c-.084-1.707-.3-3.414-.31-5.122,0-1.217.274-1.493,1.5-1.623,2.226-.221,9.878-.294,11.456-.282Zm-60.04,10.124a8.085,8.085,0,0,1-3.676-4.763c-3.833-11.2,6.016-20.451,14.839-19.949a7.327,7.327,0,0,0,2.9-.419,77.84,77.84,0,0,0,15.818-8.178,109.416,109.416,0,0,0,22.454-19.722c.943-1.027,1.85-2.078,2.851-3.03,1.206-1.146,2.543-.907,3.115.658a7.056,7.056,0,0,1,.239,2.889c-.059.836-.478,1.648-.62,2.484a1.144,1.144,0,0,0,.371.978,1.176,1.176,0,0,0,1.039-.144,7,7,0,0,0,.871-1.069,18.37,18.37,0,0,1,1.647-1.707,2.09,2.09,0,0,1,2.566-.346,2.3,2.3,0,0,1,1.426,2.4c-.381,1.909-.036,4.01-1.324,5.717-.383.513-.622,1.148-.061,1.6a1.661,1.661,0,0,0,1.839.383,10.24,10.24,0,0,1,2.746-1,2.335,2.335,0,0,1,2.948,2.721,9.087,9.087,0,0,1-1.247,4.346,23.066,23.066,0,0,1-5.7,6.278,44.863,44.863,0,0,1-13.431,7.9c-3.32,1.1-6.758,1.8-10.158,2.627-2.447.6-4.9,1.158-7.367,1.6a32.654,32.654,0,0,1-10.063.465,49.854,49.854,0,0,1-6.613-1.247c-1.565-.417-2.245-.036-2.579,1.565a33.246,33.246,0,0,0-.713,5.1,32.8,32.8,0,0,1-.92,6.875c-5.608-3.537-12.485-1.042-13.2,4.986Zm16.333,16.094c-.06-.454-.264-.891-.356-1.349a1.649,1.649,0,0,0-1.479-1.374,25.659,25.659,0,0,1-3.821-1,13.861,13.861,0,0,1-8.035-7.258,10.429,10.429,0,0,1-.369-6.626,4.126,4.126,0,0,1,1.814-2.233,6.866,6.866,0,0,1,5.7-.847,5.588,5.588,0,0,1,2.017,1.182c1.72,1.492,2.543,1.3,3.03-.991.43-1.994.62-4.047.891-6.059.25-1.839.465-3.678.681-5.524.082-.713.453-.861,1.1-.681a36.876,36.876,0,0,0,15.353.871c3.272-.5,6.494-1.265,9.707-2.007,3.534-.811,7.03-1.743,10.589-2.637a1.59,1.59,0,0,1,.19.513c-.012,2.256-.071,4.512-.084,6.758,0,.823-.323,1.2-1.146,1.265-1.529.107-3.044.239-4.56.406-1.743.2-1.782.214-2.078,1.982-.132.775-.381,1.133-1.278,1.1a16.524,16.524,0,0,0-3.331.31c-.62.107-1.026.071-1.2-.6a3.789,3.789,0,0,0-4.024-2.876c-3.366-.071-6.745-.084-10.124-.084-1.326,0-2.662.071-3.976.2-1.444.13-2.03.656-2.208,2.065a9.842,9.842,0,0,0-.012,2.579,16,16,0,0,0,4.908,9.908,7.726,7.726,0,0,0,10.183.442,9.9,9.9,0,0,0,2.817-2.985,21.575,21.575,0,0,0,2.317-5.229,2.431,2.431,0,0,1,2.124-1.923,3.277,3.277,0,0,1,.6-.048c2.8-.094,3.008-.285,3.236,2.746a12.336,12.336,0,0,0,.872,3.844c1,2.365,2.22,4.633,3.354,6.938.848,1.707,1.707,3.4,2.686,5.346-2.363.2-4.393.371-6.415.574-.668.071-1.6-.178-1.672.918-.036.645.535.825,1.946.713,1.248-.107,2.484-.191,3.892-.3-.93,5.587-3.14,10.04-8.554,12.273a10.965,10.965,0,0,1-8.488-.144,5.306,5.306,0,0,0-1.069-.488,1.283,1.283,0,0,0-1.016.262.713.713,0,0,0,.228,1.171c.882.44,1.782.834,2.7,1.192a12.024,12.024,0,0,1,1.349.3c.357.178.823.561.859.891.262,2.436.442,4.872.645,7.319a1.1,1.1,0,0,1-.752,1.247,28.566,28.566,0,0,1-4.277,1.492,18.072,18.072,0,0,1-12.236-2.292,2.138,2.138,0,0,1-1.171-1.923c-.214-3.163-.478-6.339-.811-9.491-.362-3.283-.814-6.553-1.244-9.835Zm21.691-23.424a11.792,11.792,0,0,1-3.921,8.966,6.822,6.822,0,0,1-5.515,1.754A6.136,6.136,0,0,1,600.9,196.8a14,14,0,0,1-3.069-8.394c.036-1.623.132-1.782,1.755-1.837,2.114-.084,4.225-.192,6.578-.3,1.946.1,4.131.155,6.3.31,1.838.15,2.267.659,2.338,2.49ZM579.65,229.916c.059-.166.12-.321.178-.488,3.881.155,7.761.287,11.641.5.645.036,1.6-.084,1.768.871.155.92.442,1.862-.668,2.627-1.72,1.194-3.284,2.614-4.979,3.976a67.846,67.846,0,0,1-7.946-7.481Zm-34.216,97.312c-2.759-.681-5.48-1.481-8.214-2.292-1.552-.454-1.648-.693-1.069-2.233.739-1.91,1.479-3.821,2.3-5.7,4.633-10.66,9.228-21.333,13.955-31.96,3.831-8.631,7.916-17.154,11.712-25.81a13.08,13.08,0,0,1,4.277-5.266c6.005-4.56,11.963-9.179,17.931-13.777a6.594,6.594,0,0,1,.789-.356v31.482c-2.281.178-4.5.356-6.722.513-.6.037-1.206-.023-1.791.061-1.123.143-1.456.5-1.588,1.672-.048.453-.023.92-.036,1.385-.178,10.935-.31,21.871-.549,32.79-.178,8.214-.465,16.427-.741,24.641-.059,1.9-.082,1.839-1.885,1.426-2.447-.561-4.931-.955-7.378-1.529q-10.516-2.447-21-5.038ZM557.6,364.559a13.317,13.317,0,0,1-1.946-.943,3.6,3.6,0,0,1-1.921-3.605,63.8,63.8,0,0,1,.979-9.276c.49-3.208,1-6.389,1.493-9.6.4-2.734.823-5.48,1.194-8.224.107-.8.585-.789,1.133-.668,1.994.453,3.976.953,5.981,1.4,2.711.586,5.421,1.194,8.142,1.7,2.769.5,2.782.453,2.673,3.208-.155,4.37-.357,8.732-.43,13.1a18.867,18.867,0,0,0,.465,3.921,2.073,2.073,0,0,0,2.233,1.8c6.077.285,12.152.871,18.254.656,2.65-.094,5.289-.012,8.376-.012-.549.891-.907,1.426-1.206,2.007-.275.526-.549,1.169.119,1.552.526.31,1-.048,1.313-.549a1.633,1.633,0,0,0,.109-.167c1.121-2.531,3.151-3.03,5.7-2.878,3.306.178,6.626.084,9.944.132.346.012.907.132.991.346a1.167,1.167,0,0,1-.3,1.039,8.062,8.062,0,0,1-2.149,1.336c-1.552.551-3.163.945-4.751,1.385-1.278.356-1.852.838-1.552,1.386.465.871,1.324.535,1.946.356,2.04-.561,4.07-1.194,6.059-1.923a4.033,4.033,0,0,0,2.611-3,.97.97,0,0,1,1.123-.848c3.951.132,7.9.262,12.081.394a10.438,10.438,0,0,1-4.428,4.25,21.381,21.381,0,0,1-7.342,2.3,88.3,88.3,0,0,1-12.022,1.374c-3.9.036-7.8.4-11.7.572q-5.947.251-11.892.383c-1.994.036-3.976-.061-5.958-.121-4.035-.118-8.082-.13-12.106-.394a54.273,54.273,0,0,1-13.228-2.381Zm35.723,23.375q-13.914.014-27.831.025c-.586,0-1.158-.073-1.923-.119.455-3.546.92-6.938,1.336-10.336.335-2.627.645-5.252.909-7.878.143-1.362.178-1.445,1.527-1.338,2.579.216,5.145.478,7.724.6,2.113.109,4.24,0,6.351.037,3.9.071,7.82.262,11.724.237h.317q-.073,9.388-.142,18.781Zm34.966-.03-33.4.029a164.365,164.365,0,0,0,.406-18.831c2.851-.059,5.719-.178,8.582-.328,4.357-.214,8.75-.31,13.084-.811a72.085,72.085,0,0,0,11.33-1.923Zm17.143-1.4c-.419,1.313-.419,1.326-1.743,1.338-3.523.036-7.032.046-10.555.059h-3.056V365.469a14.562,14.562,0,0,0,7.594-5.621,2.969,2.969,0,0,1,2.769-1.426c3.511-.012,7.021-.2,10.53-.323.777-.023,1.565,0,2.507,0-.274,1.247-.43,2.293-.74,3.284-1.387,4.619-2.866,9.215-4.215,13.849-1,3.425-1.875,6.888-2.807,10.336-.089.3-.2.627-.285.937Zm105.276.839c-7.462.524-98.914.415-101.958.594-1.946.109-1.946.048-1.426-1.782q3.849-13.323,7.7-26.646c.417-1.456.739-2.937,1.123-4.512,1.766.713,3.425,1.479,5.132,2.064a12.932,12.932,0,0,0,3.1.5,4.083,4.083,0,0,0,2.746-.955A84.672,84.672,0,0,0,680.908,343.2c8.189-9.468,15.614-19.532,23.03-29.6,3.844-5.229,7.736-10.4,11.245-15.86a29.892,29.892,0,0,0,4.382-10.336,6.462,6.462,0,0,0,.132-1.971c-.178-1.647-.406-3.283-.713-4.906a1.351,1.351,0,0,0-.907-.813c-.6-.119-.727.419-.713.92a9.777,9.777,0,0,0,.144,1.982,13.973,13.973,0,0,1-1.219,9.445,47.682,47.682,0,0,1-5.42,8.99c-4.405,6.207-8.93,12.32-13.431,18.445-6.161,8.376-12.571,16.559-19.425,24.366a85.772,85.772,0,0,1-10.637,10.386,5.785,5.785,0,0,1-6.415.909,37.744,37.744,0,0,1-9.2-5.409,208.757,208.757,0,0,1-25.929-23.962,28.988,28.988,0,0,1-6.415-10.386,15.414,15.414,0,0,1-1.026-7.879,15.806,15.806,0,0,1,1.839-4.967,23.545,23.545,0,0,1,8.178-7.677,10.514,10.514,0,0,1,9.169-.526,112.189,112.189,0,0,1,20.6,9.671,8.342,8.342,0,0,0,1.4.727,1.652,1.652,0,0,0,2.078-.691c.968-1.575,1.921-3.176,2.96-4.7,4.441-6.565,8.787-13.216,13.419-19.651a39.192,39.192,0,0,1,13.009-10.839,27.981,27.981,0,0,1,8.274-3.208,10,10,0,0,1,6.613.335,2.068,2.068,0,0,0,.968.155c.633-.025.968-.741.49-1.11a5.4,5.4,0,0,0-2.21-1.206,16.606,16.606,0,0,0-6.506.167,39,39,0,0,0-15.066,7.677,6.644,6.644,0,0,1-1.96,1.146c.454-1.338.848-2.711,1.374-4.024a38.849,38.849,0,0,1,14.062-18.051c.49-.335.98-.681,1.458-1.039,1.248-.932,1.408-1.517.643-2.841-.823-1.426-1.743-2.807-2.627-4.215-.763-1.219-1.527-2.436-2.411-3.856,2.365-.429,4.477-.907,6.615-1.194,6.888-.955,13.775-1.814,20.652-2.759a2.377,2.377,0,0,1,1.994.515c1.72,1.324,2.8.93,3.564-1.123.155-.43.346-.848.513-1.265,1.468.608,2.865,1.194,4.418,1.837a8.05,8.05,0,0,1-.371,1.194c-1.23,2.424-2.434,4.847-3.742,7.223a2.18,2.18,0,0,0-.025,2.162,47.827,47.827,0,0,1,2.007,6.626c1.133,5.168,2.089,10.375,3.186,15.543.622,2.914,1.349,5.8,2.114,8.68a2.441,2.441,0,0,1-.93,2.851,21.464,21.464,0,0,0-6.594,11.509,40.941,40.941,0,0,0-.861,13.216,42.4,42.4,0,0,0,2.614,12.164,20.45,20.45,0,0,0,3.63,6.783c2.817,2.983,5.7,5.932,9.73,7.294a2.509,2.509,0,0,1,1.96,2.351c.381,3.208.871,6.415,1.385,9.623.633,4.06,1.324,8.094,2,12.141.5,2.937,1.087,5.851,1.529,8.8.656,4.38,1.248,8.773,1.814,13.187.262,2.1.713,7.307.891,9.42.13,1.611.094,1.65-1.54,1.77Z" transform="translate(-533.933 -137.932)" fill="#3c3372"/>
      </g>
    </g>
    <g id="Group_23" data-name="Group 23" transform="translate(605.097 112.14)">
      <path id="Path_104" data-name="Path 104" d="M576.039,117.889l2.757-5.749,2.885,5.685,6.319.846-4.516,4.5,1.148,6.271-5.676-2.9-5.61,3.03,1.007-6.3-4.616-4.4Z" transform="translate(-569.738 -112.14)" fill="#ffbd5c"/>
      <path id="Path_105" data-name="Path 105" d="M589.452,117.889l2.757-5.749,2.885,5.685,6.319.846-4.516,4.5,1.148,6.271-5.676-2.9-5.61,3.03,1.007-6.3-4.616-4.4Z" transform="translate(-559.248 -112.14)" fill="#ffbd5c"/>
      <path id="Path_106" data-name="Path 106" d="M602.865,117.889l2.757-5.749,2.885,5.685,6.319.846-4.516,4.5,1.148,6.271-5.676-2.9-5.61,3.03,1.007-6.3-4.616-4.4Z" transform="translate(-548.758 -112.14)" fill="#ffbd5c"/>
      <path id="Path_107" data-name="Path 107" d="M616.279,117.889l2.757-5.749,2.885,5.685,6.319.846-4.516,4.5,1.148,6.271-5.676-2.9-5.61,3.03,1.007-6.3-4.616-4.4Z" transform="translate(-538.267 -112.14)" fill="#ffbd5c"/>
      <path id="Path_108" data-name="Path 108" d="M629.692,117.889l2.757-5.749,2.885,5.685,6.319.846-4.516,4.5,1.148,6.271-5.676-2.9L627,129.57l1.007-6.3-4.616-4.4Z" transform="translate(-527.777 -112.14)" fill="#ffbd5c"/>
    </g>
  </g>
</svg>
