<svg xmlns="http://www.w3.org/2000/svg" xmlns:xlink="http://www.w3.org/1999/xlink" width="247.276" height="308.662" viewBox="0 0 247.276 308.662">
  <defs>
    <clipPath id="clip-path">
      <path id="Path_125" data-name="Path 125" d="M381.729,252.919c-2.548-.263-5.648,1.666-7.95,1.374-5.414-.682-5.682-4.748-8.421-8.039a10.981,10.981,0,0,0-8.648-4.093,11.622,11.622,0,0,0-9.318,5.588,53.027,53.027,0,0,0-2.655,5.9c-1.855,3.508-.131,1.971-4.434,6.059-4.632,4.4-3.648,3.122-8.324.991-6.651-3.027-14.957-1.719-14.521,6.98a8.156,8.156,0,0,0,.657,5.535c2.652,5.491,8.711,10.3,12.7,14.813,4.424,4.995,8.907,12.009,14.99,15.15,8.8,4.546,22.816,3.027,30.652-2.792C386.8,292.694,405.76,255.4,381.729,252.919Z" transform="translate(-317.242 -242.162)" fill="none"/>
    </clipPath>
    <clipPath id="clip-path-2">
      <path id="Path_129" data-name="Path 129" d="M362.332,256.923c-2.476-7.026-10.024-3.24-12.532,1.3a32.245,32.245,0,0,0-2.427,8.122c-.737,3.126.329,6.042-2.256,2.809-3.33-4.166-2.445-10.573-5.716-14.963-3.852-5.172-9.12-4.306-9.809,2.217-.682,6.436,3.165,11.659,3.968,17.635a33.689,33.689,0,0,0,1.5,3.163,2.7,2.7,0,0,1-4.026-1.518c-2.217-1.395-3.723-3.82-6.08-5.16-5.165-2.935-12.619-2.51-10.744,5.324,2.643,10.986,21.006,19.894,30.014,24.229a.045.045,0,0,1,.032.009c3.7,1.971,7.5.969,10.232-4.475,3.293-6.586,3.844-15.082,5.222-22.227C360.477,269.4,363.821,261.147,362.332,256.923Z" transform="translate(-313.914 -250.843)" fill="none"/>
    </clipPath>
    <clipPath id="clip-path-3">
      <path id="Path_133" data-name="Path 133" d="M400.58,273.331c-9.5-2.873-19.147.246-27.434,5.74,4.756-7.084,9.831-13.984,12.9-22.091,1.132-2.988-2.488-4.671-4.789-3.713-8.8,3.665-13.3,10.573-16.647,18.39a43.727,43.727,0,0,0-5.227-19.248c-1.523-2.751-6.375-1.705-6.129,1.634.6,8.093,1.056,16.2,1.448,24.3-6.206-4.62-15.638-6.709-21.816-5.131a3.319,3.319,0,0,0-.824,5.989,107.331,107.331,0,0,1,20.544,17.178,3.718,3.718,0,0,0,.409.358,9.365,9.365,0,0,0,9.134,4.328c5.4-.428,10.9-4.865,15.307-7.488l23.885-14.233a3.317,3.317,0,0,0-.761-6.011Z" transform="translate(-330.512 -250.834)" fill="none"/>
    </clipPath>
    <clipPath id="clip-path-4">
      <path id="Path_139" data-name="Path 139" d="M456.647,253.76c-2.548-.263-5.648,1.664-7.952,1.364-5.413-.682-5.68-4.748-8.419-8.039a10.982,10.982,0,0,0-8.649-4.093,11.622,11.622,0,0,0-9.316,5.588,52.854,52.854,0,0,0-2.655,5.9c-1.855,3.508-.131,1.971-4.434,6.059-4.632,4.4-3.648,3.124-8.325.992-6.651-3.029-14.956-1.721-14.519,6.978a8.162,8.162,0,0,0,.657,5.537c2.652,5.49,8.709,10.3,12.7,14.811,4.424,4.995,8.909,12.011,14.992,15.15,8.8,4.546,22.816,3.027,30.652-2.79C461.72,293.533,480.678,256.234,456.647,253.76Z" transform="translate(-392.16 -242.992)" fill="none"/>
    </clipPath>
    <clipPath id="clip-path-5">
      <path id="Path_143" data-name="Path 143" d="M437.25,257.758c-2.476-7.026-10.024-3.24-12.532,1.3a32.168,32.168,0,0,0-2.427,8.124c-.737,3.126.329,6.04-2.256,2.807-3.33-4.166-2.447-10.573-5.716-14.963-3.852-5.172-9.12-4.306-9.809,2.217-.682,6.438,3.163,11.659,3.968,17.637a33.438,33.438,0,0,0,1.5,3.162,2.7,2.7,0,0,1-4.026-1.518c-2.217-1.395-3.723-3.82-6.08-5.16-5.165-2.935-12.619-2.51-10.744,5.324,2.643,10.987,21.006,19.894,30.014,24.231h.032c3.7,1.971,7.5.97,10.232-4.475,3.293-6.584,3.842-15.082,5.222-22.227C435.395,270.232,438.744,261.982,437.25,257.758Z" transform="translate(-388.831 -251.678)" fill="none"/>
    </clipPath>
    <clipPath id="clip-path-6">
      <path id="Path_147" data-name="Path 147" d="M475.5,274.165c-9.5-2.873-19.147.246-27.434,5.74,4.756-7.084,9.831-13.984,12.9-22.091,1.132-2.988-2.49-4.671-4.789-3.712-8.8,3.665-13.3,10.573-16.647,18.39a43.727,43.727,0,0,0-5.227-19.248c-1.523-2.751-6.375-1.705-6.129,1.634.6,8.094,1.056,16.2,1.448,24.3-6.207-4.62-15.638-6.709-21.816-5.131a3.319,3.319,0,0,0-.824,5.989,107.393,107.393,0,0,1,20.544,17.178,3.553,3.553,0,0,0,.409.358,9.366,9.366,0,0,0,9.134,4.328c5.4-.428,10.9-4.865,15.307-7.488l23.885-14.231a3.319,3.319,0,0,0-.761-6.013Z" transform="translate(-405.434 -251.669)" fill="none"/>
    </clipPath>
  </defs>
  <g id="feature-ils-2" transform="translate(-302.902 -101.39)">
    <path id="Path_119" data-name="Path 119" d="M347.754,373.542c-42.342-45.154-46.312-69.779-40.36-84.131,8.286-19.983,35.832-20.1,41.5-43.2,4.945-20.15-13.3-31.144-10.232-54,2.4-17.829,15.43-39.657,31.833-42.064,23.684-3.475,34,36.557,64.8,36.38,20.1-.116,25.866-17.224,46.612-14.211,12.357,1.791,27.606,10.367,32.4,23.875,7.459,21.008-16.712,36.1-9.662,56.276,5.8,16.6,24.669,13.535,34.107,28.991,14.633,23.965-6.5,71.032-34.676,94.361Z" transform="translate(1.626 34.237)" fill="#d0f0f9"/>
    <g id="Group_47" data-name="Group 47" transform="translate(321.68 341.452)">
      <g id="Group_42" data-name="Group 42" transform="translate(5.677)">
        <g id="Group_41" data-name="Group 41" clip-path="url(#clip-path)">
          <path id="Path_120" data-name="Path 120" d="M381.729,252.919c-2.548-.263-5.648,1.666-7.95,1.374-5.414-.682-5.682-4.748-8.421-8.039a10.981,10.981,0,0,0-8.648-4.093,11.622,11.622,0,0,0-9.318,5.588,53.027,53.027,0,0,0-2.655,5.9c-1.855,3.508-.131,1.971-4.434,6.059-4.632,4.4-3.648,3.122-8.324.991-6.651-3.027-14.957-1.719-14.521,6.98a8.156,8.156,0,0,0,.657,5.535c2.652,5.491,8.711,10.3,12.7,14.813,4.424,4.995,8.907,12.009,14.99,15.15,8.8,4.546,22.816,3.027,30.652-2.792C386.8,292.694,405.76,255.4,381.729,252.919Z" transform="translate(-317.242 -242.162)" fill="#b3d3dd"/>
          <path id="Path_121" data-name="Path 121" d="M350.564,294.927c-4.744-7.457-9.458-14.935-14.233-22.374-3.438-5.356-7.019-10.356-12.292-14.05-1.155-.808-2.249,1.086-1.1,1.888,6.069,4.251,9.794,10.573,13.7,16.712l12.043,18.929C349.428,297.214,351.323,296.119,350.564,294.927Z" transform="translate(-313.569 -230.774)" fill="#d2f7ff"/>
          <path id="Path_122" data-name="Path 122" d="M340.778,251.3a1.093,1.093,0,0,0-2.186,0q-.421,25.522.931,51.015c.075,1.4,2.261,1.409,2.186,0Q340.356,276.831,340.778,251.3Z" transform="translate(-302.255 -236.484)" fill="#d2f7ff"/>
          <path id="Path_123" data-name="Path 123" d="M361.574,258.313c-7.967,12.058-13.435,25.5-20.788,37.909a1.093,1.093,0,1,0,1.888,1.1c7.353-12.413,12.822-25.851,20.788-37.909C364.239,258.24,362.346,257.142,361.574,258.313Z" transform="translate(-300.742 -231.123)" fill="#d2f7ff"/>
          <path id="Path_124" data-name="Path 124" d="M318.618,265.111s15.86,13.256,36.078,13.256S394.463,260.6,394.463,260.6v32.388h-76.4Z" transform="translate(-316.663 -229.157)" opacity="0.2"/>
        </g>
      </g>
      <g id="Group_44" data-name="Group 44" transform="translate(0 14.804)">
        <g id="Group_43" data-name="Group 43" clip-path="url(#clip-path-2)">
          <path id="Path_126" data-name="Path 126" d="M362.332,256.923c-2.476-7.026-10.024-3.24-12.532,1.3a32.245,32.245,0,0,0-2.427,8.122c-.737,3.126.329,6.042-2.256,2.809-3.33-4.166-2.445-10.573-5.716-14.963-3.852-5.172-9.12-4.306-9.809,2.217-.682,6.436,3.165,11.659,3.968,17.635a33.689,33.689,0,0,0,1.5,3.163,2.7,2.7,0,0,1-4.026-1.518c-2.217-1.395-3.723-3.82-6.08-5.16-5.165-2.935-12.619-2.51-10.744,5.324,2.643,10.986,21.006,19.894,30.014,24.229a.045.045,0,0,1,.032.009c3.7,1.971,7.5.969,10.232-4.475,3.293-6.586,3.844-15.082,5.222-22.227C360.477,269.4,363.821,261.147,362.332,256.923Z" transform="translate(-313.914 -250.843)" fill="#4f9ba3"/>
          <path id="Path_127" data-name="Path 127" d="M354.014,257.174c.459-1.332-1.652-1.9-2.11-.582-3.907,11.344-4.915,23.155-5.324,35.031-1.386-3.436-2.962-6.8-4.35-10.249a187.014,187.014,0,0,1-6.821-20.4,1.093,1.093,0,0,0-2.108.581,187.841,187.841,0,0,0,6.821,20.4c1.571,3.9,3.387,7.7,4.891,11.62a136.58,136.58,0,0,0-24.857-20.316c-1.194-.761-2.287,1.132-1.1,1.888a134.492,134.492,0,0,1,27.34,23.1c0,.252-.012.512-.019.755a.969.969,0,0,0,.7.994c.027.113.063.223.09.341.322,1.364,2.43.79,2.108-.582-.077-.327-.171-.645-.261-.969a1.051,1.051,0,0,0-.194-1.134c-.051-.056-.1-.109-.153-.171-.02-.07-.036-.142-.056-.211C348.916,283.7,349.549,270.131,354.014,257.174Z" transform="translate(-310.648 -247.317)" fill="#6cd3d3"/>
          <path id="Path_128" data-name="Path 128" d="M315.184,269.979s14.076,9.158,22,9.158,21.182-6.97,25.007-12.846v27.473h-46.6Z" transform="translate(-313.017 -239.947)" opacity="0.2"/>
        </g>
      </g>
      <g id="Group_46" data-name="Group 46" transform="translate(28.306 14.789)">
        <g id="Group_45" data-name="Group 45" clip-path="url(#clip-path-3)">
          <path id="Path_130" data-name="Path 130" d="M400.58,273.331c-9.5-2.873-19.147.246-27.434,5.74,4.756-7.084,9.831-13.984,12.9-22.091,1.132-2.988-2.488-4.671-4.789-3.713-8.8,3.665-13.3,10.573-16.647,18.39a43.727,43.727,0,0,0-5.227-19.248c-1.523-2.751-6.375-1.705-6.129,1.634.6,8.093,1.056,16.2,1.448,24.3-6.206-4.62-15.638-6.709-21.816-5.131a3.319,3.319,0,0,0-.824,5.989,107.331,107.331,0,0,1,20.544,17.178,3.718,3.718,0,0,0,.409.358,9.365,9.365,0,0,0,9.134,4.328c5.4-.428,10.9-4.865,15.307-7.488l23.885-14.233a3.317,3.317,0,0,0-.761-6.011Z" transform="translate(-330.512 -250.834)" fill="#5db3c1"/>
          <path id="Path_131" data-name="Path 131" d="M377.855,274.515a71.638,71.638,0,0,0-20.223,15.548q5.936-14.274,11.878-28.547c.539-1.3-1.576-1.861-2.11-.576L355.94,288.48q.084-13.174-.9-26.322c-.1-1.395-2.292-1.405-2.186,0q1.023,13.731.871,27.481c-2.665-7.37-7.087-13.929-14.674-17.185-1.276-.547-2.406,1.327-1.115,1.876,8.784,3.769,12.96,12.065,15.21,20.846v.015a.852.852,0,0,0-.031.363c-.554.745-1.12,1.48-1.649,2.248-.8,1.161,1.086,2.27,1.876,1.117.218-.315.455-.609.682-.921a1.12,1.12,0,0,0,1.75-.865c.019-.512.024-1.039.031-1.559a69.578,69.578,0,0,1,23.138-19.17C380.191,275.76,379.1,273.864,377.855,274.515Z" transform="translate(-325.675 -244.219)" fill="#71d7e2"/>
          <path id="Path_132" data-name="Path 132" d="M334.85,269.816s11.206,8.745,22.681,8.745,28.835-4.236,28.835-4.236v13.53H334.577Z" transform="translate(-327.645 -237.446)" opacity="0.2"/>
        </g>
      </g>
    </g>
    <g id="Group_54" data-name="Group 54" transform="translate(449.44 342.867)">
      <g id="Group_49" data-name="Group 49" transform="translate(5.677 0)">
        <g id="Group_48" data-name="Group 48" clip-path="url(#clip-path-4)">
          <path id="Path_134" data-name="Path 134" d="M456.647,253.76c-2.548-.263-5.648,1.664-7.952,1.364-5.413-.682-5.68-4.748-8.419-8.039a10.982,10.982,0,0,0-8.649-4.093,11.622,11.622,0,0,0-9.316,5.588,52.854,52.854,0,0,0-2.655,5.9c-1.855,3.508-.131,1.971-4.434,6.059-4.632,4.4-3.648,3.124-8.325.992-6.651-3.029-14.956-1.721-14.519,6.978a8.162,8.162,0,0,0,.657,5.537c2.652,5.49,8.709,10.3,12.7,14.811,4.424,4.995,8.909,12.011,14.992,15.15,8.8,4.546,22.816,3.027,30.652-2.79C461.72,293.533,480.678,256.234,456.647,253.76Z" transform="translate(-392.16 -242.992)" fill="#b3d3dd"/>
          <path id="Path_135" data-name="Path 135" d="M425.482,295.762c-4.744-7.457-9.459-14.935-14.233-22.372-3.438-5.358-7.019-10.358-12.292-14.052-1.156-.808-2.249,1.086-1.1,1.888,6.069,4.251,9.794,10.573,13.7,16.712l12.043,18.929C424.346,298.049,426.242,296.954,425.482,295.762Z" transform="translate(-388.487 -231.601)" fill="#d2f7ff"/>
          <path id="Path_136" data-name="Path 136" d="M415.7,252.139a1.093,1.093,0,1,0-2.186,0q-.421,25.524.931,51.017c.075,1.4,2.261,1.409,2.186,0Q415.269,277.666,415.7,252.139Z" transform="translate(-377.173 -237.311)" fill="#d2f7ff"/>
          <path id="Path_137" data-name="Path 137" d="M436.492,259.148c-7.967,12.06-13.435,25.5-20.788,37.909a1.093,1.093,0,0,0,1.888,1.1c7.353-12.413,12.821-25.849,20.788-37.909C439.157,259.078,437.264,257.978,436.492,259.148Z" transform="translate(-375.66 -231.949)" fill="#d2f7ff"/>
          <path id="Path_138" data-name="Path 138" d="M393.536,265.946S409.4,279.2,429.614,279.2s39.767-17.766,39.767-17.766v32.388h-76.4Z" transform="translate(-391.581 -229.983)" opacity="0.2"/>
        </g>
      </g>
      <g id="Group_51" data-name="Group 51" transform="translate(0 14.812)">
        <g id="Group_50" data-name="Group 50" clip-path="url(#clip-path-5)">
          <path id="Path_140" data-name="Path 140" d="M437.25,257.758c-2.476-7.026-10.024-3.24-12.532,1.3a32.168,32.168,0,0,0-2.427,8.124c-.737,3.126.329,6.04-2.256,2.807-3.33-4.166-2.447-10.573-5.716-14.963-3.852-5.172-9.12-4.306-9.809,2.217-.682,6.438,3.163,11.659,3.968,17.637a33.438,33.438,0,0,0,1.5,3.162,2.7,2.7,0,0,1-4.026-1.518c-2.217-1.395-3.723-3.82-6.08-5.16-5.165-2.935-12.619-2.51-10.744,5.324,2.643,10.987,21.006,19.894,30.014,24.231h.032c3.7,1.971,7.5.97,10.232-4.475,3.293-6.584,3.842-15.082,5.222-22.227C435.395,270.232,438.744,261.982,437.25,257.758Z" transform="translate(-388.831 -251.678)" fill="#4f9ba3"/>
          <path id="Path_141" data-name="Path 141" d="M428.933,258.01c.459-1.334-1.652-1.907-2.11-.581-3.907,11.342-4.915,23.153-5.324,35.029-1.388-3.435-2.962-6.8-4.352-10.249a187.321,187.321,0,0,1-6.821-20.394,1.095,1.095,0,0,0-2.11.58,188.077,188.077,0,0,0,6.821,20.4c1.571,3.9,3.387,7.7,4.891,11.62A136.65,136.65,0,0,0,395.072,274.1c-1.194-.761-2.287,1.132-1.1,1.888a134.444,134.444,0,0,1,27.34,23.105c0,.251-.014.512-.019.754a.967.967,0,0,0,.7.994c.027.113.063.223.09.341.322,1.364,2.43.79,2.108-.582-.077-.326-.171-.645-.261-.969a1.049,1.049,0,0,0-.2-1.132c-.049-.056-.1-.111-.152-.171-.02-.07-.036-.142-.058-.21C423.836,284.539,424.468,270.968,428.933,258.01Z" transform="translate(-385.567 -248.151)" fill="#6cd3d3"/>
          <path id="Path_142" data-name="Path 142" d="M390.1,270.815s14.076,9.156,22,9.156,21.182-6.97,25.009-12.846v27.468H390.513Z" transform="translate(-387.937 -240.782)" opacity="0.2"/>
        </g>
      </g>
      <g id="Group_53" data-name="Group 53" transform="translate(28.313 14.798)">
        <g id="Group_52" data-name="Group 52" clip-path="url(#clip-path-6)">
          <path id="Path_144" data-name="Path 144" d="M475.5,274.165c-9.5-2.873-19.147.246-27.434,5.74,4.756-7.084,9.831-13.984,12.9-22.091,1.132-2.988-2.49-4.671-4.789-3.712-8.8,3.665-13.3,10.573-16.647,18.39a43.727,43.727,0,0,0-5.227-19.248c-1.523-2.751-6.375-1.705-6.129,1.634.6,8.094,1.056,16.2,1.448,24.3-6.207-4.62-15.638-6.709-21.816-5.131a3.319,3.319,0,0,0-.824,5.989,107.393,107.393,0,0,1,20.544,17.178,3.553,3.553,0,0,0,.409.358,9.366,9.366,0,0,0,9.134,4.328c5.4-.428,10.9-4.865,15.307-7.488l23.885-14.231a3.319,3.319,0,0,0-.761-6.013Z" transform="translate(-405.434 -251.669)" fill="#5db3c1"/>
          <path id="Path_145" data-name="Path 145" d="M452.771,275.348a71.683,71.683,0,0,0-20.223,15.546q5.94-14.274,11.878-28.547c.541-1.3-1.574-1.861-2.108-.576l-11.46,27.541q.084-13.17-.9-26.322c-.1-1.393-2.292-1.4-2.188,0q1.023,13.73.873,27.48c-2.665-7.37-7.087-13.929-14.674-17.185-1.277-.547-2.406,1.328-1.117,1.876,8.786,3.769,12.96,12.067,15.211,20.848v.014a.852.852,0,0,0-.031.365c-.554.744-1.12,1.479-1.649,2.248-.8,1.161,1.085,2.27,1.876,1.117.218-.315.455-.611.682-.923a1.12,1.12,0,0,0,1.75-.865c.017-.52.024-1.039.031-1.559a69.577,69.577,0,0,1,23.138-19.17C455.113,276.6,454.021,274.7,452.771,275.348Z" transform="translate(-400.601 -245.056)" fill="#71d7e2"/>
          <path id="Path_146" data-name="Path 146" d="M409.769,270.651s11.206,8.747,22.681,8.747,28.835-4.236,28.835-4.236V288.69H409.494Z" transform="translate(-402.571 -238.281)" opacity="0.2"/>
        </g>
      </g>
    </g>
    <g id="Group_57" data-name="Group 57" transform="translate(404.944 101.39)">
      <rect id="Rectangle_7" data-name="Rectangle 7" width="44.335" height="59.113" rx="3.5" fill="#8bd8ea"/>
      <g id="Group_55" data-name="Group 55" transform="translate(5.67 11.41)">
        <rect id="Rectangle_8" data-name="Rectangle 8" width="23" height="3.047" fill="#f5f5f5"/>
        <rect id="Rectangle_9" data-name="Rectangle 9" width="22.998" height="3.047" transform="translate(0.003 6.651)" fill="#f5f5f5"/>
        <rect id="Rectangle_10" data-name="Rectangle 10" width="23" height="3.047" transform="translate(0.009 13.302)" fill="#f5f5f5"/>
        <rect id="Rectangle_11" data-name="Rectangle 11" width="23" height="3.047" transform="translate(0.014 19.951)" fill="#f5f5f5"/>
        <rect id="Rectangle_12" data-name="Rectangle 12" width="23" height="3.047" transform="translate(0.017 26.601)" fill="#f5f5f5"/>
        <rect id="Rectangle_13" data-name="Rectangle 13" width="22.998" height="3.047" transform="translate(0.022 33.252)" fill="#f5f5f5"/>
      </g>
      <g id="Group_56" data-name="Group 56" transform="translate(32.517 10.249)">
        <path id="Path_148" data-name="Path 148" d="M384.67,110.64l-1.705-2.046-1.158.965,1.705,2.046.965,1.158,1.158-.965,3.895-3.24-.965-1.158Z" transform="translate(-381.807 -107.4)" fill="#f5f5f5"/>
        <path id="Path_149" data-name="Path 149" d="M384.672,114.54l-1.705-2.046-1.158.965,1.705,2.046.965,1.158,1.158-.965,3.895-3.24-.965-1.158Z" transform="translate(-381.806 -104.649)" fill="#f5f5f5"/>
        <path id="Path_150" data-name="Path 150" d="M384.675,118.44l-1.705-2.046-1.158.965,1.705,2.046.965,1.158,1.158-.965,3.895-3.24-.965-1.158Z" transform="translate(-381.804 -101.898)" fill="#f5f5f5"/>
        <path id="Path_151" data-name="Path 151" d="M384.677,122.34l-1.705-2.046-1.158.965,1.705,2.046.965,1.158,1.158-.965,3.895-3.24-.965-1.158Z" transform="translate(-381.802 -99.148)" fill="#f5f5f5"/>
        <path id="Path_152" data-name="Path 152" d="M384.684,126.24l-1.705-2.046-1.158.965,1.705,2.046.965,1.158,1.158-.965,3.895-3.24L388.579,123Z" transform="translate(-381.797 -96.397)" fill="#f5f5f5"/>
        <path id="Path_153" data-name="Path 153" d="M384.684,130.14l-1.705-2.046-1.158.965,1.705,2.046.965,1.158,1.158-.965,3.895-3.24-.965-1.158Z" transform="translate(-381.797 -93.646)" fill="#f5f5f5"/>
      </g>
    </g>
    <g id="Group_59" data-name="Group 59" transform="translate(330.631 158.809)">
      <path id="Path_154" data-name="Path 154" d="M342.65,165.552a5.9,5.9,0,1,1-5.9-5.9,5.9,5.9,0,0,1,5.9,5.9Z" transform="translate(-310.914 -117.712)" fill="#5db3c1"/>
      <path id="Path_155" data-name="Path 155" d="M339.123,164.52a3.4,3.4,0,1,1-3.4-3.4,3.4,3.4,0,0,1,3.4,3.4Z" transform="translate(-309.882 -116.68)" fill="#f5f5f5"/>
      <g id="Group_58" data-name="Group 58">
        <path id="Path_156" data-name="Path 156" d="M350.412,146.322C353.021,154.751,345,182.9,345,182.9s-22.51-18.706-25.12-27.135a15.978,15.978,0,1,1,30.528-9.445Z" transform="translate(-319.162 -135.061)" fill="#f6a757"/>
        <path id="Path_157" data-name="Path 157" d="M337.659,144.747a6.774,6.774,0,1,1-8.474-4.47,6.774,6.774,0,0,1,8.474,4.47Z" transform="translate(-315.459 -131.596)" fill="#f5f5f5"/>
      </g>
    </g>
    <g id="Group_63" data-name="Group 63" transform="translate(494.62 168.89)">
      <circle id="Ellipse_2" data-name="Ellipse 2" cx="24.016" cy="24.016" r="24.016" fill="#5db3c1"/>
      <circle id="Ellipse_3" data-name="Ellipse 3" cx="18.991" cy="18.991" r="18.991" transform="translate(5.026 5.027)" fill="#f5f5f5"/>
      <g id="Group_61" data-name="Group 61" transform="translate(14.85 7.326)">
        <path id="Path_158" data-name="Path 158" d="M433.619,156.288a2.979,2.979,0,1,1-2.979-2.979A2.979,2.979,0,0,1,433.619,156.288Z" transform="translate(-421.474 -139.596)" fill="#d0f0f9"/>
        <g id="Group_60" data-name="Group 60" transform="translate(0)">
          <rect id="Rectangle_14" data-name="Rectangle 14" width="1.676" height="12.474" transform="matrix(-0.707, -0.707, 0.707, -0.707, 1.185, 25.655)" fill="#5db3c1"/>
          <rect id="Rectangle_15" data-name="Rectangle 15" width="1.676" height="16.832" transform="translate(8.329)" fill="#5db3c1"/>
        </g>
      </g>
      <g id="Group_62" data-name="Group 62" transform="translate(6.12 24.064)">
        <rect id="Rectangle_16" data-name="Rectangle 16" width="1.117" height="2.374" transform="translate(17.664 15.871)" fill="#5db3c1"/>
        <rect id="Rectangle_17" data-name="Rectangle 17" width="1.117" height="2.374" transform="translate(33.418 1.117) rotate(-90)" fill="#5db3c1"/>
        <rect id="Rectangle_18" data-name="Rectangle 18" width="1.117" height="2.374" transform="translate(0 1.117) rotate(-90)" fill="#5db3c1"/>
      </g>
    </g>
    <path id="Path_159" data-name="Path 159" d="M506.149,285.21H308.9a3.411,3.411,0,0,1-3.411-3.411h0a3.411,3.411,0,0,1,3.411-3.411h197.25a3.411,3.411,0,0,1,3.411,3.411h0A3.411,3.411,0,0,1,506.149,285.21Z" transform="translate(1.824 124.842)" fill="#5db3c1"/>
    <g id="Group_70" data-name="Group 70" transform="translate(302.902 170.457)">
      <path id="Path_160" data-name="Path 160" d="M383.482,149.4a11.333,11.333,0,0,1,3.5,9.255c-.136,1.61-.136,1.61-1.838,1.588-.182-.012-.377,0-.914,0-3.953-.651-8.356-.537-12.578-1.736a5.225,5.225,0,0,1-.936-.481,3.888,3.888,0,0,1,.7-1.023,19.612,19.612,0,0,1,7.255-3.119,3.752,3.752,0,0,0,2.937-2.558c.217-.593.491-1.153.754-1.736S382.971,148.883,383.482,149.4Z" transform="translate(-255.074 -136.826)" fill="#68bed8"/>
      <path id="Path_161" data-name="Path 161" d="M383.87,157.9a20.712,20.712,0,0,1,2.764,5.324A44.166,44.166,0,0,1,374.7,161.16c-1.383-.5-1.473-.709-1.473-2.251a7.471,7.471,0,0,1,.046-1.143c.2-1.68.2-1.68,1.953-1.535,2.193.182,4.4.423,6.593.525a2.558,2.558,0,0,1,2.055,1.146Z" transform="translate(-253.305 -131.817)" fill="#f5f5f5"/>
      <path id="Path_162" data-name="Path 162" d="M389.49,177.419c.182.3.321.628.663,1.325a6.378,6.378,0,0,1-2.8-3.428c-.982-2.718-1.838-5.495-2.706-8.259a37.732,37.732,0,0,0-4.093-9.72c-.058-.078-.012-.229-.046-.844a17.2,17.2,0,0,1,5.142,7.94c.605,2.249.97,4.569,1.427,6.854a18.09,18.09,0,0,0,2.413,6.132Z" transform="translate(-248.164 -131.591)" fill="#5db3c1"/>
      <path id="Path_163" data-name="Path 163" d="M405.151,171a3.269,3.269,0,0,1,.663,2.662,1.083,1.083,0,0,1-.892.481,11.558,11.558,0,0,1-1.792-.5c-1.257-.365-1.738-.034-1.876,1.3-.022.251,0,.5-.012.754-.046.605-.467.8-.924.593a11.03,11.03,0,0,1-1.932-1.154c-1.05-.73-1.073-.788-2.113-.01a.965.965,0,0,1-1.177.194,6.932,6.932,0,0,1-3.411-3.143c2.2-.136,4.093-.171,5.986-.387,1.93-.24,3.839-.651,5.769-.994C404.033,170.689,404.67,170.254,405.151,171Z" transform="translate(-240.28 -121.662)" fill="#4f9ba3"/>
      <path id="Path_164" data-name="Path 164" d="M418.025,160.474a27.171,27.171,0,0,1,1.235,9.265,39.844,39.844,0,0,1-2.331,13.5,20.124,20.124,0,0,1-.822,1.907,6.438,6.438,0,0,1-4.889,3.793c-1.93.333-3.885.561-5.827.812a26.606,26.606,0,0,1-6.809.034,9.02,9.02,0,0,1-7.974-6.066,33.475,33.475,0,0,1-1.576-6.809,19.867,19.867,0,0,0-5.679-11.334,2.333,2.333,0,0,1-.72-2.009,12.466,12.466,0,0,0-1.177-7.21,20.139,20.139,0,0,0-1.93-2.8c-.479-.605-.559-1.1,0-1.656,1.194-1.194,2.307-2.514,3.61-3.581a23.967,23.967,0,0,1,12.406-5.3,17.8,17.8,0,0,1,12.619,3.039A25.3,25.3,0,0,1,418.025,160.474Z" transform="translate(-249.132 -141.208)" fill="#ffbd5c"/>
      <path id="Path_165" data-name="Path 165" d="M319.3,251.53c.034,1.211-.056,1.223-1.291,1.383-2.319.3-2.387.239-2.456-2-.024-.571-.034-1.143-.046-1.714v-2.478h.08c0-1.705-.046-3.428.012-5.13.044-1.269.571-2.091,1.194-2.137.732-.046,1.393.559,1.794,1.68a4.562,4.562,0,0,1,.331,1.279C319.076,245.453,319.22,248.492,319.3,251.53Z" transform="translate(-294.011 -73.078)" fill="#ff5097"/>
      <path id="Path_166" data-name="Path 166" d="M326.112,264.208a.837.837,0,0,1-.182.525c-1.153,1.736-2.251,3.518-3.508,5.174a3.184,3.184,0,0,1-2.775,1.395,7.481,7.481,0,0,1-4.181-2.411,1.765,1.765,0,0,1-.138-1.576c.926-2.011,1.954-3.965,3.017-5.907a1.057,1.057,0,0,1,.948-.365c2.2.754,4.386,1.566,6.569,2.41C326.027,263.523,326.095,263.944,326.112,264.208Z" transform="translate(-294.225 -57.856)" fill="#ddd"/>
      <path id="Path_167" data-name="Path 167" d="M332.431,267.162a10.744,10.744,0,0,1-8.706,12.418,11,11,0,0,1-11.492-5.883A10.83,10.83,0,0,1,315,260.775a1.937,1.937,0,0,1,2.079-.491c.708.251,1.473.355,2.205.537.114.034.194.148.435.341-.561,1.074-1.155,2.171-1.726,3.278a30.832,30.832,0,0,0-1.417,2.9,3.116,3.116,0,0,0,.766,3.644,9.549,9.549,0,0,0,4.8,2.582,4.834,4.834,0,0,0,4.719-2.283c1.153-1.5,2.113-3.143,3.153-4.73.273-.411.537-.853.776-1.223C331.882,265.54,332.237,266.168,332.431,267.162Z" transform="translate(-297.066 -58.468)" fill="#f5f5f5"/>
      <path id="Path_168" data-name="Path 168" d="M347.21,274.5c.617.481.469.984.331,1.509a16.956,16.956,0,0,1-8.5,11.755,29.344,29.344,0,0,1-7.712,3.119,24.035,24.035,0,0,1-12.932-.467,16.972,16.972,0,0,1-6.124-4.067,23.363,23.363,0,0,1-7.128-12.5,20.086,20.086,0,0,1,1.644-12.773,2.115,2.115,0,0,1,2.229-1.364c2.833.1,5.677.114,8.527.17.058.136.126.273.182.411-4.352,5.266-5.254,10.807-1.165,16.53a12.125,12.125,0,0,0,13.206,4.468c6.386-2.023,9.209-6.671,9.072-13.356a11.219,11.219,0,0,1,3.438,2.434C343.954,271.7,345.52,273.176,347.21,274.5Z" transform="translate(-301.597 -58.8)" fill="#4f9ba3"/>
      <path id="Path_169" data-name="Path 169" d="M356.515,201.852a3.033,3.033,0,0,1,.435.012,47.413,47.413,0,0,0-1.235,7.162,43.14,43.14,0,0,0,.914,6.97,3.441,3.441,0,0,1-3.324-2.411,13.4,13.4,0,0,1,.285-9.287A3.735,3.735,0,0,1,356.515,201.852Z" transform="translate(-267.841 -99.6)" fill="#5db3c1"/>
      <path id="Path_170" data-name="Path 170" d="M352.288,210.607a5.024,5.024,0,0,1-1.85,3.724,2.174,2.174,0,0,1-2.3.561,13.926,13.926,0,0,1-3.24-1.908,2.185,2.185,0,0,1-.423-1.748,9.656,9.656,0,0,1,.96-2.856,3.1,3.1,0,0,1,3.62-1.8,4.129,4.129,0,0,1,3.177,3.37C352.266,210.148,352.266,210.342,352.288,210.607Z" transform="translate(-273.603 -96.334)" fill="#4f9ba3"/>
      <path id="Path_171" data-name="Path 171" d="M361.421,215.885c.682.537.549,1.023.286,1.634a9.176,9.176,0,0,1-4.468,4.49,7.333,7.333,0,0,1-7.573-.182,4.562,4.562,0,0,1-2.377-3.736c.788.321,1.337.481,1.816.743a3.973,3.973,0,0,0,4-.217,6.837,6.837,0,0,0,3-6.17,5.628,5.628,0,0,0-4.775-4.981,4.632,4.632,0,0,0-4.9,2.183A7.735,7.735,0,0,0,345.1,214.5c.022.559.092,1.131.148,1.69A2.369,2.369,0,0,1,342,214.83a6.219,6.219,0,0,1,.078-5.677,10.077,10.077,0,0,1,11.255-6.139,10.743,10.743,0,0,1,5.027,1.577,1.485,1.485,0,0,1,.72,1.554,40.254,40.254,0,0,0-.058,4.376A6.68,6.68,0,0,0,361.421,215.885Z" transform="translate(-275.778 -98.908)" fill="#4f9ba3"/>
      <path id="Path_172" data-name="Path 172" d="M348.04,204.572a4.927,4.927,0,0,1,1.611,5.336c-.8-.5-1.5-.892-2.137-1.349-3.209-2.249-6.363-4.558-9.608-6.751-2.193-1.473-4.5-2.788-6.992-4.318a7.363,7.363,0,0,1,5.015-.824,19.546,19.546,0,0,1,7.14,3.816C344.762,201.8,346.372,203.236,348.04,204.572Z" transform="translate(-283.143 -103.349)" fill="#f5f5f5"/>
      <path id="Path_173" data-name="Path 173" d="M351.654,209.669c.97.682.914.663.525,1.806a13.482,13.482,0,0,1-4.434,6.248c-1.988,1.622-2.983,1.68-5.1.263-3.187-2.147-6.421-4.25-9.528-6.523a39.5,39.5,0,0,1-6.787-5.7,3.689,3.689,0,0,1-1.165-2.708,2.407,2.407,0,0,1,.228-.708,8.752,8.752,0,0,1,5.1-4.25,6.434,6.434,0,0,1,4.41.537,45.043,45.043,0,0,1,8.373,5.14C346.06,205.762,348.86,207.7,351.654,209.669Z" transform="translate(-287.196 -102.368)" fill="#f6ca7f"/>
      <path id="Path_174" data-name="Path 174" d="M329.152,208.984c.331,1.726.365,3.518.5,4.855a29.9,29.9,0,0,1-1.563,9.536,13.985,13.985,0,0,1-1.659,3.179,2.063,2.063,0,0,1-3.713-.125,11.34,11.34,0,0,1-1.705-4.376,27.338,27.338,0,0,1,1.405-16.349,7.846,7.846,0,0,1,1.554-2.341c1.023-1.085,2.067-.948,3.051.217a11.481,11.481,0,0,1,2.128,5.4Z" transform="translate(-290.587 -99.055)" fill="#f5f5f5"/>
      <path id="Path_175" data-name="Path 175" d="M331.086,208.045a39.332,39.332,0,0,1,.01,4.181c-.3,3.411-.639,6.809-1.119,10.2a21.863,21.863,0,0,1-1.211,3.977,1.954,1.954,0,0,1-2.022,1.427c-.812-.022-1.634,0-2.662,0a4.069,4.069,0,0,1,.479-.994,13.315,13.315,0,0,0,3.24-6.751,34.419,34.419,0,0,0,.435-12.278c-.138-1.05-.389-2.079-.583-3.119.138-.056.263-.124.4-.182.742.571,1.473,1.155,2.227,1.705a2.154,2.154,0,0,1,.8,1.833Z" transform="translate(-287.963 -97.726)" fill="#ddd"/>
      <path id="Path_176" data-name="Path 176" d="M356.79,283.139c.022.651-.285.9-.936.822a14.054,14.054,0,0,1-5.883-2.033,32.1,32.1,0,0,1-4.662-3.542,43.487,43.487,0,0,0-17.468-9.963,60.953,60.953,0,0,0-19.923-2.205c-1.257.036-2.526.012-4.033.012a24.089,24.089,0,0,1,4.753-8.74,25.116,25.116,0,0,1,14.589-8.59,24.485,24.485,0,0,1,21.409,5.038,30.867,30.867,0,0,1,8.74,12.931,53.694,53.694,0,0,1,3.3,13.607C356.776,281.35,356.756,282.242,356.79,283.139Z" transform="translate(-302.209 -66.887)" fill="#ffbd5c"/>
      <path id="Path_177" data-name="Path 177" d="M341.509,286.8l-1.04.275c-.479-1.77-.982-3.53-1.535-5.287a25.921,25.921,0,0,0-8.249-12.27c-.479-.4-.982-.8-1.535-1.245a19.168,19.168,0,0,0,3.863-8.808,6.62,6.62,0,0,0,.193-.926c.184-4.753.481-9.505.512-14.246a35.166,35.166,0,0,0-1.862-10.624,46.29,46.29,0,0,0-4.043-9.79,2.046,2.046,0,0,1-.08-1.6,29.332,29.332,0,0,0,1.862-6.946c.182-1.194.263-2.387.411-3.77a5.319,5.319,0,0,1,.9.662,27.443,27.443,0,0,1,6.97,17.64c.16,3.484.445,6.958.537,10.442.1,3.8.2,7.619.01,11.426-.309,6.09-.1,12.168.16,18.257a72.636,72.636,0,0,0,2.353,14.589C341.12,285.331,341.3,286.073,341.509,286.8Z" transform="translate(-285.477 -92.746)" fill="#ffbd5c"/>
      <path id="Path_178" data-name="Path 178" d="M400.313,270.563c1.062-.491,10.133-.682,14.4-.285a9.657,9.657,0,0,1-14.4.285Z" transform="translate(-234.195 -51.486)" fill="#f5f5f5"/>
      <path id="Path_179" data-name="Path 179" d="M424.876,270.116c4.238.012,8.489,0,12.819,0a8.48,8.48,0,0,1-1.828,4.033,23.9,23.9,0,0,1-13.743,10.145,27.324,27.324,0,0,1-31.247-13.206,5.916,5.916,0,0,1-.275-.72,3.217,3.217,0,0,1,.605-.171q6.272-.015,12.556-.046a1.535,1.535,0,0,1,1.451.682c3.2,4.809,8.9,5.346,13.5,3.46a11.614,11.614,0,0,0,4.765-3.346,1.726,1.726,0,0,1,1.393-.832Z" transform="translate(-241.045 -51.45)" fill="#4f9ba3"/>
      <path id="Path_180" data-name="Path 180" d="M432.619,249.3a72.945,72.945,0,0,1-.251,8.339c-.058,1.108-.309,2.217-.512,3.656-.445-.537-.732-.81-.948-1.143-1.68-2.6-3.221-5.3-5.049-7.792a47.038,47.038,0,0,0-9.117-9.093,3.369,3.369,0,0,0-.853-.389c.126-.194.263-.4.4-.593,1.062.056,2.135.09,3.209.2,2.64.275,5.3.445,7.906.938a5.827,5.827,0,0,1,5.213,5.871Z" transform="translate(-223.208 -71.078)" fill="#ff5097"/>
      <path id="Path_181" data-name="Path 181" d="M426.014,258.792c.194.537-.72.972-2.169.972q-6.855.019-13.687.012H397.042a5.094,5.094,0,0,1-1.68-.15c-.331-.1-.754-.593-.73-.88s.491-.65.853-.81a3.078,3.078,0,0,1,1.132-.068q13.571,0,27.166.01C424.643,257.877,425.637,257.752,426.014,258.792Z" transform="translate(-238.202 -60.106)" fill="#f5f5f5"/>
      <path id="Path_182" data-name="Path 182" d="M499.644,311.753c.136.331.193.708.341,1.221-1.509.092-2.88.263-4.263.263-11.426,0-22.838-.034-34.262-.044q-14.55-.019-29.122,0-34.939.084-69.871.217c-1.074,0-2.149-.058-3.24-.034a15.411,15.411,0,0,1-13.366-6.992,32.524,32.524,0,0,1-5.027-10.573c-.491-1.76-.958-3.542-1.439-5.312l1.04-.275a67.751,67.751,0,0,0,3.2,9.505,24.531,24.531,0,0,0,5.872,8.3,14.773,14.773,0,0,0,10.42,3.885q24.076.019,48.165-.034,6.375,0,12.749-.058a5.43,5.43,0,0,0,1.656-.273c.195-.07.355-.491.367-.755,0-.182-.252-.445-.447-.525a2.52,2.52,0,0,0-.924-.136q-15.235.034-30.457.1c-9.768.034-19.548.092-29.316.08a19.123,19.123,0,0,1-6.751-.89,16.492,16.492,0,0,1-7.894-6.855,33.566,33.566,0,0,1-3.827-8.637,89.909,89.909,0,0,1-3.462-14.565,74.454,74.454,0,0,1-.72-9.848c-.1-7.792.046-15.605-.068-23.4-.068-4.877-.286-9.768-.682-14.635a27.968,27.968,0,0,0-8.042-17.787,3.192,3.192,0,0,1-1.108-3,29.556,29.556,0,0,0,.092-3.987c.868.582,1.485.994,2.091,1.405q4.2,2.775,8.4,5.563a4.236,4.236,0,0,0,4.992.024c1.194-.8,2.263-1.782,3.452-2.729.708,1.245,1.405,2.468,2.181,3.827-.559.639-1.194,1.417-1.876,2.159a9.939,9.939,0,0,0-2.546,6.785c-.07,8.82-.15,17.64-.036,26.448.07,5.645.341,11.288.732,16.908.389,5.689.892,11.368,1.634,17.023a28.113,28.113,0,0,0,3.279,10.819,16.712,16.712,0,0,0,9.891,7.78,50.924,50.924,0,0,0,12.739,1.942c14.132.571,28.286.355,42.43.411a14.865,14.865,0,0,0,4.867-1.085c.353-.114.639-.743.766-1.194.467-1.576.853-3.175,1.279-4.765a37.084,37.084,0,0,1,16.291-22.51,25.687,25.687,0,0,1,13.1-4.045,34.232,34.232,0,0,1,22.393,6.992,32.06,32.06,0,0,1,11.857,17.423c.16.593.126,1.634,1.132,1.415.8-.171.593-1.073.433-1.634a33.157,33.157,0,0,0-1.656-5.015A34.649,34.649,0,0,0,463.578,271a32.076,32.076,0,0,0-16.347-.377,33.2,33.2,0,0,0-14.611,8.453,38.224,38.224,0,0,0-9.083,13.643c-.229.571-.512,1.12-.754,1.68-.126-.034-.252-.056-.367-.08v-2.079a75.03,75.03,0,0,0-1.668-15.651,30.067,30.067,0,0,0-3.815-9.87,35.1,35.1,0,0,0-2.81-3.564,12.236,12.236,0,0,1-.95-.926c-.228-.331-.5-.853-.387-1.154.1-.273.682-.5,1.062-.525,3.793-.228,7.585-.537,11.39-.571,4.877-.044,9.768.024,14.645.24,4.558.217,9.117.571,13.643,1.074a56.587,56.587,0,0,1,13.523,2.947,42.335,42.335,0,0,1,16.211,11.276,57.377,57.377,0,0,1,7.585,10.889,56.214,56.214,0,0,1,4.25,9.3,57.513,57.513,0,0,1,1.535,5.871,59.376,59.376,0,0,0,3.013,10.181Zm-25.706-16.646a2.471,2.471,0,0,0-2.592-2.845c-1.509-.07-3.029.09-4.548.09q-11.6.051-23.192.058a16.924,16.924,0,0,1-1.714-.058,2.387,2.387,0,0,0-2.788,2.263c-.114,1.714.948,2.752,2.822,2.752,4.821.012,9.63,0,14.453,0v-.01c4.683,0,9.379.01,14.062,0a7.361,7.361,0,0,0,1.876-.194,1.951,1.951,0,0,0,1.622-2.057Z" transform="translate(-284.413 -96.17)" fill="#ffbd5c"/>
      <path id="Path_183" data-name="Path 183" d="M455.4,233.657a4.64,4.64,0,0,1,3,4.444,5.479,5.479,0,0,1-3.165,5.039,17,17,0,0,1-4.147,1.313c-3.3.571-6.625,1.023-9.951,1.429a4.444,4.444,0,0,1-2.181-.435,48.386,48.386,0,0,0-13.024-3.29,218.425,218.425,0,0,0-28.254-1.705c-4.306-.01-8.614.4-12.92.571-2.022.08-4.057.16-6.078.07a7.363,7.363,0,0,1-6.192-3.143,2.729,2.729,0,0,1,1.325-4.454,15.815,15.815,0,0,1,4.981-1.023c4.935-.126,9.891-.046,14.836-.046v-.034c4.821,0,9.654.2,14.463-.058,4.57-.251,9.117-.034,13.687,0,3.922.046,7.844-.319,11.779-.341,5.072-.044,10.145-.01,15.217.148a15.348,15.348,0,0,1,6.618,1.514Z" transform="translate(-254.309 -78.351)" fill="#4f9ba3"/>
      <path id="Path_184" data-name="Path 184" d="M416.78,249.708a3.686,3.686,0,0,1-.07,1.131.945.945,0,0,1-.605.593,11.7,11.7,0,0,1-2.456.012c-.251-.034-.571-.457-.639-.754a6.7,6.7,0,0,1-.046-1.519V226.71h.194V203.859c0-2.1-.092-2.057,2.125-1.806,1.508.182,1.485.287,1.485,1.772Q416.794,226.775,416.78,249.708Z" transform="translate(-225.289 -99.541)" fill="#4f9ba3"/>
      <path id="Path_185" data-name="Path 185" d="M426.014,262.876c.194.537-.72.97-2.169.97q-6.855.017-13.687.012H397.042a5.139,5.139,0,0,1-1.68-.148c-.331-.1-.754-.6-.73-.88s.491-.651.853-.812a3.078,3.078,0,0,1,1.132-.068q13.571,0,27.166.012C424.643,261.962,425.637,261.836,426.014,262.876Z" transform="translate(-238.202 -57.227)" fill="#f5f5f5"/>
      <path id="Path_186" data-name="Path 186" d="M426.014,254.626c.194.537-.72.97-2.169.97q-6.855.019-13.687.012H397.042a5.141,5.141,0,0,1-1.68-.148c-.331-.1-.754-.6-.73-.88s.491-.651.853-.812a3.08,3.08,0,0,1,1.132-.068q13.571,0,27.166.012C424.643,253.717,425.637,253.586,426.014,254.626Z" transform="translate(-238.202 -63.046)" fill="#f5f5f5"/>
      <g id="Group_64" data-name="Group 64" transform="translate(167.407 102.324)">
        <path id="Path_187" data-name="Path 187" d="M433.916,202.647a116.5,116.5,0,0,1-15.583-.457c-2.227-.218-2.227-.206-2.227,2v22.468H416.1q0,11.618.012,23.225c0,1.658.056,1.68,1.705,1.76a17.621,17.621,0,0,1,6.31,1.233,3.276,3.276,0,0,0,1.291.252c2.41-.012,4.809-.058,7.22-.08.788,0,1.119-.4,1.153-1.177.148-3.411.367-6.832.457-10.247.182-6.982.194-13.962.457-20.929.206-5.382.663-10.744,1.006-16.132C435.822,202.681,435.754,202.577,433.916,202.647Z" transform="translate(-390.467 -201.747)" fill="#f6ca7f"/>
        <path id="Path_188" data-name="Path 188" d="M418.9,201.9c-2.718-.012-5.438-.012-8.283-.012a3.761,3.761,0,0,0,0,.732c1.6,5.917,3.221,11.825,4.821,17.735.853,3.107,1.705,6.226,2.5,9.345a4.309,4.309,0,0,1,.16,1.074,2.621,2.621,0,0,1-1.535,2.285,14.664,14.664,0,0,1-1.68.878,53.5,53.5,0,0,1-11.516,3.714c-1.5.3-1.451.319-1.535,1.838-.159,3.221-.193,6.467-.593,9.666s-.341,2.787,2.628,2.718c4.5-.114,9-.319,13.493-.433,2.662-.07,2.341.159,2.353-2.365q.015-9.149.046-18.3.034-13.131.068-26.231c0-.571-.012-1.143-.012-1.705a.808.808,0,0,0-.918-.938Z" transform="translate(-401.069 -201.893)" fill="#f6ca7f"/>
      </g>
      <path id="Path_189" data-name="Path 189" d="M448.453,250.07a1.245,1.245,0,0,1-.8,1.68c-1.509.663-2.995,1.364-4.536,1.942a65.253,65.253,0,0,1-15.7,3.53,90.253,90.253,0,0,1-11.779.275,64.5,64.5,0,0,1-15.519-2.468,43.554,43.554,0,0,1-11.035-4.456c-.766-.469-1.463-1.006-2.217-1.473a2.8,2.8,0,0,1-1.325-2.729c.068-2.662.171-2.776,2.867-3a48.005,48.005,0,0,0,5.287-.709,4.17,4.17,0,0,0,2.65-2.021c1.393-2.183,2.81-4.366,4.112-6.6,4.765-8.2,9.335-16.53,14.666-24.4.993-1.463,1.816-3.039,2.718-4.57a2.976,2.976,0,0,0,.4-.853.653.653,0,0,0-.924-.764,2.4,2.4,0,0,0-.914.878c-4.546,7.461-9.425,14.715-13.663,22.359-2.183,3.922-4.536,7.768-6.821,11.63-.353.593-.8,1.143-1.194,1.714a2.729,2.729,0,0,1-2.079,1.131A126.807,126.807,0,0,1,373.7,242.24a60.75,60.75,0,0,1-10.384-1.074,9.756,9.756,0,0,1-7.495-8.327,18.717,18.717,0,0,1,.982-10.42,9.826,9.826,0,0,1,7.288-6.34c3.622-.853,7.333-1.349,11.037-1.862,2.181-.3,4.408-.309,6.613-.491a1.463,1.463,0,0,0,.926-.5,6.7,6.7,0,0,0,.72-1.325c4.033-7.6,7.792-15.348,12.486-22.585a60.133,60.133,0,0,1,4.558-6.068,7.718,7.718,0,0,1,7.288-2.787,6.747,6.747,0,0,1,3.462,1.828c.341.273.571.742.948.914a3.286,3.286,0,0,0,1.212.034c-.012-.355.125-.834-.046-1.04a8,8,0,0,0-5.287-3.411c-1.12-.114-2.273.034-3.411.022-.4-.012-.96-.034-1.166-.285-1.131-1.417-2.181-2.914-3.518-4.731h15.068c.629,0,1.269.092,1.9.046a4.724,4.724,0,0,1,2.708.605,3.542,3.542,0,0,0,2.331.435,2.967,2.967,0,0,1,2.434.445c2.249,1.211,3.411.732,4.34-1.714,1.68.217,1.726.275,1.223,1.76a7.232,7.232,0,0,1-.411,1.062,3.187,3.187,0,0,0-.171,2.548c1.12,4.021,2.1,8.088,3.257,12.1a2.021,2.021,0,0,1-.629,2.319,27.391,27.391,0,0,0-4.729,6.4,20.861,20.861,0,0,0,5.049,25.831,21.773,21.773,0,0,0,8.373,4.286c.252.068.512.229.732.194,1.6-.287,2.011.73,2.341,1.987,1.509,5.679,3.051,11.356,4.582,17.053C448.373,249.443,448.361,249.774,448.453,250.07Zm-36.194-1.233a1.415,1.415,0,0,0,.493-2.263q-3.155-4.729-6.4-9.4a1.311,1.311,0,0,0-1.965-.481,17.025,17.025,0,0,0-2.537,1.658c-1.381,1.085-1.564,1.782-.594,3.221,1.692,2.524,3.5,4.957,5.287,7.415a3,3,0,0,0,.824.788,11.067,11.067,0,0,0,1.131.583,5.423,5.423,0,0,0,3.76-1.52Z" transform="translate(-265.816 -119.52)" fill="#8bd8ea"/>
      <path id="Path_190" data-name="Path 190" d="M412.442,216.632c.275.958.537,1.93.812,2.9-4.181.72-11.492-4.673-14.28-10.442-3.885-8.015-1.577-17.011,4.913-23.157,1.165,2.113,1.177,2.113-.092,3.953a19.042,19.042,0,0,0-3.07,6.26,15.964,15.964,0,0,0,6.318,17.906,8.335,8.335,0,0,0,4.364,1.692,1.023,1.023,0,0,1,1.035.888Z" transform="translate(-236.477 -110.826)" fill="#f5f5f5"/>
      <path id="Path_191" data-name="Path 191" d="M409.848,211.938a6.189,6.189,0,0,1-3.678-1.3,14.134,14.134,0,0,1-6.3-13.024,16.287,16.287,0,0,1,3.267-8.684l.512.034C405.7,196.554,407.743,204.146,409.848,211.938Z" transform="translate(-234.543 -108.714)" fill="#ffbd5c"/>
      <path id="Path_192" data-name="Path 192" d="M424.82,227.473c.605-.024.766.331.682.853a6.61,6.61,0,0,1-.229.926,13.389,13.389,0,0,1-6.182,7.643,44.169,44.169,0,0,1-4.386,2.239,11.753,11.753,0,0,1-5.358,1.023c-2.971-.068-5.952-.012-8.922-.012v.1c-2.983,0-5.969-.012-8.946,0a21.232,21.232,0,0,0-5.587.97,13.92,13.92,0,0,1-4.146.171c-1.954-.058-3.909-.252-5.873-.389a3.287,3.287,0,0,0-.754-.012.986.986,0,0,0-.89,1.211.853.853,0,0,0,1.177.605,3.767,3.767,0,0,1,1.678-.056c1.726.331,1.475.309,1.68,1.748.321,2.249.812,4.478,1.194,6.717.5,2.937.982,5.871,1.473,8.8.571,3.44,1.131,6.878,1.705,10.305.251,1.5.126,1.69-1.383,1.68-1.77-.024-3.54-.16-5.312-.218q-4.558-.171-9.117-.307c-.766-.024-1.535-.024-2.285-.012-.682.012-.982-.309-1.131-.994-1.473-6.4-3.027-12.79-4.456-19.193-1.05-4.683-1.907-9.413-2.9-14.108q-1.236-5.846-2.606-11.664c-.2-.853-.01-1.12.79-1.291,3.462-.732,6.9-1.566,10.374-2.251,2.844-.571,5.723-1.023,8.6-1.473,1.806-.286,3.644-.469,5.457-.743,2.067-.307,4.124-.639,6.18-1.023a2.418,2.418,0,0,1,2.137.307,39.321,39.321,0,0,0,12.715,5.735,77.131,77.131,0,0,0,23.854,2.776C424.3,227.526,424.557,227.5,424.82,227.473Z" transform="translate(-266.951 -87.79)" fill="#5db3c1"/>
      <path id="Path_193" data-name="Path 193" d="M391.259,219.761c.605.936.571.994-.411,1.588-1.279.788-1.656.812-2.558-.365-1.658-2.161-3.24-4.376-4.8-6.6-.663-.936-.593-1.131.341-1.792.457-.341.96-.605,1.6-.994.766.948,1.576,1.828,2.261,2.8C388.931,216.15,390.095,217.955,391.259,219.761Z" transform="translate(-246.369 -92.728)" fill="#f5f5f5"/>
      <path id="Path_194" data-name="Path 194" d="M383.015,267.889h-6.651q-1.852-4.869-3.6-9.449a30.044,30.044,0,0,0,3.736-1.175c.754-.355,1.023-.138,1.325.433,1.143,2.183,2.285,4.352,3.411,6.547C381.8,265.352,382.329,266.484,383.015,267.889Z" transform="translate(-253.626 -60.635)" fill="#5db3c1"/>
      <path id="Path_195" data-name="Path 195" d="M377.45,259.847a1.125,1.125,0,0,1-.72,1.519,8.591,8.591,0,0,1-1.612.537,1.487,1.487,0,0,1-1.965-1.267c-.7-2.5-1.337-5.017-1.976-7.529-.171-.663-.148-1.245.778-1.383.7-.1.844-.72.81-1.313-.044-.853.321-1.177,1.194-1.023.9-.182,1.279.285,1.461,1.194C376.067,253.679,376.753,256.769,377.45,259.847Z" transform="translate(-254.803 -66.097)" fill="#ead6c1"/>
      <path id="Path_196" data-name="Path 196" d="M377.967,256.22c.16.914.263,1.852.4,2.788a2.043,2.043,0,0,1-.581.194,9.782,9.782,0,0,1-3.736-.229c-1.109-.537-.64-2.171-.853-3.291-.79-4.284-1.337-8.614-2.046-12.909-.379-2.307-.88-4.592-1.327-6.878-.171-.924-.307-1.862-.479-2.935h2.937c.022.263.114.479.056.616a4.383,4.383,0,0,0,1.223,5.5,7.144,7.144,0,0,1,2.171,4.649C376.447,247.884,377.223,252.042,377.967,256.22Z" transform="translate(-256.039 -77.656)" fill="#5db3c1"/>
      <path id="Path_197" data-name="Path 197" d="M385.379,267.152h-27.8c-.024-.171-.058-.341-.092-.512a41.038,41.038,0,0,1,6.17-3.62,40.063,40.063,0,0,0,7.459-4.468,1.91,1.91,0,0,1,2.548-.251,6.124,6.124,0,0,0,6.661.239c.171-.09.331-.182.512-.263.65-.319,1.05-.136,1.3.549.682,1.84,1.364,3.678,2.069,5.507C384.567,265.256,384.963,266.158,385.379,267.152Z" transform="translate(-264.399 -60.047)" fill="#5db3c1"/>
      <path id="Path_198" data-name="Path 198" d="M376.06,259.743a1.876,1.876,0,0,1-.938,2.239,5.571,5.571,0,0,1-6.693-.682,2.178,2.178,0,0,1-.512-.788c-1.12-3.153-2.205-6.31-3.45-9.882,2.3.126,4.306.229,6.31.355.377.022.755.126,1.132.148,1.919.126,1.953.1,2.468,1.988C375,255.311,375.535,257.528,376.06,259.743Z" transform="translate(-259.478 -65.194)" fill="#ead6c1"/>
      <path id="Path_199" data-name="Path 199" d="M386.691,163.448c-.512-1.705-.628-1.794-2.319-1.942-2.011-.171-4.043-.273-6.02-.64-1.052-.2-1.383.217-1.658.994-.433,1.194-.868,2.365-1.267,3.564-.88,2.628-.88,2.729,1.85,3.07a2.741,2.741,0,0,1,2.5,2.181c.341,1.143.776,2.263,1.165,3.394a3.491,3.491,0,0,0,3.039,2.514,35.947,35.947,0,0,0,4.719.2,29.564,29.564,0,0,0,3.29-.377,17.2,17.2,0,0,1-3.37-6.421C387.947,167.812,387.345,165.631,386.691,163.448Z" transform="translate(-252.116 -128.543)" fill="#ead6c1"/>
      <path id="Path_200" data-name="Path 200" d="M387.135,171.305a16.977,16.977,0,0,0,.994,1.942,1.379,1.379,0,0,0,.9.535c1.612.126,3.24.171,4.867.252C393.122,171.522,390.723,170.472,387.135,171.305Z" transform="translate(-243.49 -121.342)" fill="#ead6c1"/>
      <g id="Group_65" data-name="Group 65" transform="translate(0.792 20.528)" opacity="0.2">
        <path id="Path_201" data-name="Path 201" d="M384.782,157.064l1.666,1.429,2.094,3.426,1.489,3.936L379,164.133l-4.642-1.427.5.571,5,1.857-1.071,2.713,12.256.682.171.442,2.476,8.377,2.094,3.619,2.57.285,1.429.1L405.9,182.9l.452,1.8a24.231,24.231,0,0,0,7.925-.5,38.4,38.4,0,0,0,6-2l-.476-1.426,1.975-1.146,2.19-4.284,1.047-4.475c-3.617,3.619-9.33,4.76-17.517,4.76S393.307,164.5,393.307,164.5l-5.142-6.76.191-1.809-17.637-2-.358,1.356,3.213,1.143Z" transform="translate(-256.113 -153.928)"/>
        <path id="Path_202" data-name="Path 202" d="M381.418,173.817l-.213,1.143,3.569,5.142,4.355-.643a13.536,13.536,0,0,0,5.07.928,73.172,73.172,0,0,0,9.973-.524c1.286-.356.452-3.617,1.238-3.475s2.5,1.286,3.284,1.286,2.07-1.143,2.07-1.143l.715,1.286,2.07-3.641-3.141-.715-1.785,2.217-3.5-1.364-2.285.215-3.713-1.429.368.813a2.558,2.558,0,0,1-2.075,3.612c-1.3.121-2.931.217-4.862.217C387.274,177.744,381.418,173.817,381.418,173.817Z" transform="translate(-248.465 -140.406)"/>
        <path id="Path_203" data-name="Path 203" d="M498.432,282.786l-2.094-5.522-78.066.191s-56.361.761-66.452-2.285-13.69-15.633-13.69-15.633l-5.732-9.311,3.428,7.427,2.665,10.853,5.9,10.472,8.569,4.188,21.134.382,41.509-.191,14.427-.1,1.947,3.811H478.63l1.825-4.159Z" transform="translate(-282.89 -86.006)"/>
        <path id="Path_204" data-name="Path 204" d="M323.6,235.6l3.8,2.483,4.093-.571,2.665,4.379,10.757,17.137-.394-26.225,3.424-2.655a17.121,17.121,0,0,0,6.015.128l4-4.855,2.761-.382,1.236,3.523,3.9,2.387,5.046.665,5.617-3.331,1.238-4,2.379-.1,6,4.57,6.569,1.332,17.224.382.762,6.378a58.714,58.714,0,0,0,11.328,9.234c3.387,1.966,12.1,2.616,18.912,2.814-1.547,2.534-3.716,5.174-6.3,5.8-5.287,1.284-39.842,1.855-39.842,1.855l8.568,35.13h-8.124l.143,2.572,7.853.713,5.713,16.422L384.4,312.678l-2.144,2,39.7.285-6.712-12.278-3.426-13.131,2.57-.853L411.1,269.85l7.855.715-.287,2,2.046,2.473-.472.1,5.046,7.618,2.19,10.948,1.047,16.279,8.094-16.661,5.8-5.426s9.806-3.521,15.137-3.428c4.649.084,17.8,2.667,22.945,6.093s14.089,15.614,14.089,15.614l-6.093-12.091-6.189-5.713-8.472-4.855-8.092-2.285s-14.376-.952-22-3.046l-.118-.032a2.323,2.323,0,0,1,.466-4.553c4-.275,7.971-.46,11.409-.46,10.119,0,23.109,5.08,28.549,7.416l1.489,1.151,4.473,3.24,4.285,5.235,5.522,8.663.38-1.705,1.618-8.472s-1.047,0-6.76-2.665c-2.979-1.392-6.47-3.3-9.135-4.8l-7.287-5.336,7.568-1.571L493.058,272l2-1.855.715-3.284a52.5,52.5,0,0,1-10.329,3.522c-5,1-16.852.38-16.852.38l-27.084-1.047-8.155.193a2.769,2.769,0,0,1-2.179-4.558l.051-.061c1.714-2,7.427-2.57,7.427-2.57H494.2l-.715-1.143,8.711-.428.853-16.994s-13.424,5.426-22.42,5.426c-6.531,0-11.919-4.505-14.389-6.98l3.487-.682,4.945-3.047-3.046-10.09s-2.665,5.711-17.8,7.521-18.373.571-18.373.571L427.072,226.3l2.95-1.523,12.568-33.32s-8.093,10.186-14.666,16.755-12.091,13.52-22.851,14.567-25.324-1.9-25.324-1.9l-4.188.952s-.286,1.047-2.476,1.238-2.57-2.761-2.57-2.761-1.9,1.238-4.093,2.665-5.522,0-5.522,0c-2.094,0-5.711-2.856-5.711-2.856l-1.618.853-23.777-15.638-1.809,1.334.476,3.808,6.284,5.142.189,7.234-.952,7.522-3.808-2.856s-2.665,3.332-4.945,3.617-5.331-2.665-5.331-2.665l.476,2.19Zm134.721,8.527-1.24,15.563-17.993.571,10.281-9,.646-2.333h.02l.01-.113.9-3.24Z" transform="translate(-291.707 -127.457)"/>
        <path id="Path_205" data-name="Path 205" d="M330.6,259.94a62.586,62.586,0,0,0-22.563-2.379c-4.945.761-4.666,1.238-4.666,1.238l.1,1.808h4l-1.238,3.332,11.139,1.143,1.236-1.143,5.426,2.094-3.141,5.428a5.407,5.407,0,0,0,3.24,4.945,10.634,10.634,0,0,0,7.427.094l5.14-6s2.572,1.809,4.666,3.619,3.428,5.426,4.76,6.48a18.708,18.708,0,0,0,2.19,1.523l1.525-5.617,7.712,2.19.665-2.283s-8.472-2.952-11.615-5.522S336.309,262.036,330.6,259.94Z" transform="translate(-303.366 -80.964)"/>
      </g>
      <g id="Group_66" data-name="Group 66" transform="translate(6.137 5.786)">
        <path id="Path_206" data-name="Path 206" d="M402.354,150.731a8.034,8.034,0,0,0-5.564-4.864c-1.705-.812-3.6-.965-4.6.779-1.876,3.261,2.452,7.1,5.073,8.23a4.7,4.7,0,0,0,4.313.155A4.028,4.028,0,0,0,402.354,150.731Z" transform="translate(-246.388 -145.284)" fill="#f5f5f5"/>
        <path id="Path_207" data-name="Path 207" d="M400.147,152.082a.842.842,0,0,0-1.114.3.768.768,0,0,0-.438.948,1.25,1.25,0,0,0,1.05.994.916.916,0,0,0,.964-.392,1.257,1.257,0,0,0-.462-1.849Z" transform="translate(-241.571 -140.559)" fill="#f5f5f5"/>
        <path id="Path_208" data-name="Path 208" d="M378.321,152.059a2.54,2.54,0,0,0-.682-.123.725.725,0,0,0-.113-.038h-.176a2.729,2.729,0,0,0-1.876.655c-.564.438-.142,1.219.377,1.424a2.741,2.741,0,0,0,2.669-.358.866.866,0,0,0-.2-1.56Z" transform="translate(-258.041 -140.619)" fill="#f5f5f5"/>
        <path id="Path_209" data-name="Path 209" d="M378.253,150.889a.853.853,0,1,0,.853.853A.853.853,0,0,0,378.253,150.889Z" transform="translate(-256.494 -141.33)" fill="#f5f5f5"/>
        <path id="Path_210" data-name="Path 210" d="M390.324,173.463a4.127,4.127,0,0,0-3.284-.1.968.968,0,0,0-.136.082c-.824-.442-1.84.634-1.045,1.293,1.119.926,3.961,2.621,5.154.916a1.535,1.535,0,0,0-.687-2.188Z" transform="translate(-250.731 -125.686)" fill="#f5f5f5"/>
        <path id="Path_211" data-name="Path 211" d="M388.168,182.8c-.462-1.182-1.444-1.837-2.59-1.056A6.072,6.072,0,0,0,384,183.975a77.7,77.7,0,0,0-5.9,9.954c-.682,1.386-1.857,3.521-.474,4.9,3.637,3.632,7.945-7.036,8.8-8.8C387.387,188.051,389.062,185.084,388.168,182.8Z" transform="translate(-256.786 -119.81)" fill="#f5f5f5"/>
        <path id="Path_212" data-name="Path 212" d="M377.868,193.872a1.378,1.378,0,0,0-.815-.258.817.817,0,0,0-1.194.256,3.227,3.227,0,0,0-.331,3.25c.713,1.054,2,.59,2.568-.326A2.128,2.128,0,0,0,377.868,193.872Z" transform="translate(-258.02 -111.306)" fill="#f5f5f5"/>
        <path id="Path_213" data-name="Path 213" d="M371.384,199.172a9.263,9.263,0,0,0-5.287-.061l-.133.02c-2.486-.119-5.856.019-5.865,2.338-.01,2.909,6.579,1.253,8.1.993C369.167,202.3,374.14,200.615,371.384,199.172Z" transform="translate(-268.696 -107.569)" fill="#f5f5f5"/>
        <path id="Path_214" data-name="Path 214" d="M352.634,203.037a5.064,5.064,0,0,0-.755-.218h-.014a4.2,4.2,0,0,0-.558-.075c-2.776-.375-5.687-.362-7.41,2.217a.863.863,0,0,0,.511,1.253c1.818.566,3.448-.657,5.268-.706,1.175-.032,3.07.958,3.982-.193C354.416,204.338,353.543,203.4,352.634,203.037Z" transform="translate(-280.203 -104.88)" fill="#f5f5f5"/>
        <path id="Path_215" data-name="Path 215" d="M338.188,202.918q-2.181-1.381-4.466-2.6c-.808-.431-1.876-1.207-2.862-.992-1.893.411-1,2.311.078,3.035,2.884,1.941,6.158,3.435,9.132,5.254a.759.759,0,0,0,.588.1.834.834,0,0,0,.931-.389C342.6,205.074,339.76,203.91,338.188,202.918Z" transform="translate(-290.099 -107.191)" fill="#f5f5f5"/>
        <path id="Path_216" data-name="Path 216" d="M339.434,204.79a1.417,1.417,0,0,0-1.738-.222.725.725,0,0,0-.259,1.148,1.134,1.134,0,0,0,1.987.726,1.272,1.272,0,0,0,.01-1.652Z" transform="translate(-284.809 -103.611)" fill="#f5f5f5"/>
        <path id="Path_217" data-name="Path 217" d="M334.039,240.5a.853.853,0,0,0-1.339.171,15.032,15.032,0,0,0-1.04,2.422c-.092.15-.171.3-.271.455a3.725,3.725,0,0,0-.709,1.56,1.826,1.826,0,0,0,1.854,2.217c1.419-.135,1.886-1.6,2.164-2.771a4.466,4.466,0,0,0-.658-4.054Z" transform="translate(-289.477 -78.299)" fill="#f5f5f5"/>
        <path id="Path_218" data-name="Path 218" d="M332.009,237.909v.106a.853.853,0,1,0,1.705,0v-.106a.853.853,0,0,0-1.705,0Z" transform="translate(-288.509 -80.554)" fill="#f5f5f5"/>
        <path id="Path_219" data-name="Path 219" d="M327.559,251.507a13.68,13.68,0,0,0-2.4-1.2c-1.705-.764-4.076-1.25-5.331.111-1.714,1.855,1.448,3.665,2.752,4.355,1.576.836,4.647,2.2,6.383,1.023C330.951,254.433,328.842,252.339,327.559,251.507Z" transform="translate(-297.453 -71.738)" fill="#f5f5f5"/>
        <path id="Path_220" data-name="Path 220" d="M326.971,253.809a.917.917,0,0,0-.7,1.346c.008,1.3,1.617,2.715,2.539,1.252C329.6,255.163,328.275,253.686,326.971,253.809Z" transform="translate(-292.635 -68.743)" fill="#f5f5f5"/>
        <path id="Path_221" data-name="Path 221" d="M411.209,234.453a7.162,7.162,0,0,0-4.083-.056,4.494,4.494,0,0,0-2.341.759,1.291,1.291,0,0,0-.532,1.535c.293.672,1.011.733,1.654.82,1.615.22,3.8.694,5.264-.3C412.195,236.533,412.542,234.959,411.209,234.453Z" transform="translate(-237.608 -82.62)" fill="#f5f5f5"/>
        <path id="Path_222" data-name="Path 222" d="M411.942,234.319a.894.894,0,0,0-.35.1,1.782,1.782,0,0,0-1.141.987c-.454,1.074.626,1.987,1.634,2.055a1.726,1.726,0,0,0,1.92-1.727C413.956,234.626,412.9,234.23,411.942,234.319Z" transform="translate(-233.257 -82.493)" fill="#f5f5f5"/>
        <path id="Path_223" data-name="Path 223" d="M371.874,221.334a5.235,5.235,0,0,0-1.651-.312.853.853,0,0,0-.486-.063c-.135.024-.273.041-.408.063a10.686,10.686,0,0,0-2.15.326,32.855,32.855,0,0,0-3.651.682c-.931.247-2.12.82-1.92,1.976.476,2.751,6.149,1.6,7.844,1.146,1.066-.283,2.71-.645,3.24-1.739a1.475,1.475,0,0,0-.819-2.079Z" transform="translate(-267.648 -91.916)" fill="#f5f5f5"/>
        <path id="Path_224" data-name="Path 224" d="M370.46,220.533a.786.786,0,0,0-.442,1.279s0,.014,0,.02v.1a.883.883,0,0,0,.626.824C372.375,223.35,372.506,220.125,370.46,220.533Z" transform="translate(-261.832 -92.234)" fill="#f5f5f5"/>
        <path id="Path_225" data-name="Path 225" d="M410.7,203.449a3.74,3.74,0,0,0-.841,0,1.731,1.731,0,0,0-1.258.454,1.535,1.535,0,0,0-.058,2.026c.822,1.153,3.035,2.021,4.033.626C413.6,205.118,412.112,203.619,410.7,203.449Z" transform="translate(-234.778 -104.275)" fill="#f5f5f5"/>
        <path id="Path_226" data-name="Path 226" d="M425.616,204.141a7.891,7.891,0,0,0-3.121-.13c-2.747.143-5.764,1-4.487,3.332.757,1.385,3.365,1.151,4.691,1.194a5.2,5.2,0,0,0,4.434-1.525C428.062,205.717,426.872,204.47,425.616,204.141Z" transform="translate(-228.064 -103.931)" fill="#f5f5f5"/>
        <path id="Path_227" data-name="Path 227" d="M425.935,206.633a2.75,2.75,0,0,0-1.814.251.7.7,0,0,0-.42.752,1.161,1.161,0,0,0,.43,1.571c1.17.737,2.156-.512,2.4-1.525A.861.861,0,0,0,425.935,206.633Z" transform="translate(-223.94 -102.052)" fill="#f5f5f5"/>
        <path id="Path_228" data-name="Path 228" d="M404.34,247.741a.8.8,0,0,0-.641-.341,8.085,8.085,0,0,0-1.269.094.853.853,0,0,0-.512-.073,25.31,25.31,0,0,0-4.676,1.26c-3.552,1.117-6.961,2.9-5.878,5.061,1.11,2.217,4.659-.322,5.986-.842,1.958-.769,4.008-1.177,5.969-1.876.832-.3,1.675-.5,2-1.443C405.723,248.454,405.254,247.912,404.34,247.741Z" transform="translate(-246.788 -73.259)" fill="#f5f5f5"/>
        <path id="Path_229" data-name="Path 229" d="M404.009,247.629a1.734,1.734,0,0,0-2.592.06.829.829,0,0,0-.119.974,1.46,1.46,0,0,0,.094.8,1.617,1.617,0,0,0,2.411.6,1.676,1.676,0,0,0,.206-2.433Z" transform="translate(-239.713 -73.487)" fill="#f5f5f5"/>
        <path id="Path_230" data-name="Path 230" d="M368.969,258.517c-.706-.923-1.69-.269-2.352.31-1.518,1.327-2.885,3.143-5.027,3.411-1.073.135-1.086,1.842,0,1.705.16-.02.309-.058.462-.089a.713.713,0,0,0,.975.111l4.79-3.24C368.539,260.251,369.74,259.521,368.969,258.517Z" transform="translate(-268.216 -65.743)" fill="#f5f5f5"/>
        <path id="Path_231" data-name="Path 231" d="M422.928,242.155a6.332,6.332,0,0,0-3.494.1c-.755-.287-1.608.725-.907,1.393.029.029.06.049.089.077a.9.9,0,0,0,.558.512l.053.015a5.927,5.927,0,0,0,3.544,1.47c1.143.06,3.424-.232,3.627-1.705C426.632,242.31,423.986,242.288,422.928,242.155Z" transform="translate(-227.67 -77.098)" fill="#f5f5f5"/>
        <path id="Path_232" data-name="Path 232" d="M424.048,243.972l-.143.142a.853.853,0,1,0,1.206,1.206l.143-.142a.853.853,0,1,0-1.206-1.206Z" transform="translate(-223.869 -75.852)" fill="#f5f5f5"/>
        <path id="Path_233" data-name="Path 233" d="M311.486,272.526a13.183,13.183,0,0,1-1.535-7.353c.157-2.19-3.254-2.181-3.411,0a16.5,16.5,0,0,0,1.992,9.076C309.579,276.183,312.526,274.462,311.486,272.526Z" transform="translate(-306.501 -61.879)" fill="#f5f5f5"/>
        <path id="Path_234" data-name="Path 234" d="M313.8,272.88l-.936-.774a1.753,1.753,0,0,0-2.411,0,1.717,1.717,0,0,0,0,2.411l.936.774a1.753,1.753,0,0,0,2.411,0A1.719,1.719,0,0,0,313.8,272.88Z" transform="translate(-304.066 -56.172)" fill="#f5f5f5"/>
        <path id="Path_235" data-name="Path 235" d="M399.635,273.337a.706.706,0,0,0-.532-.36c-1.279-.223-3.175.038-3.025,1.786.138,1.6,2.432,1.618,3.581,1.25a1.415,1.415,0,0,0-.024-2.676Z" transform="translate(-243.326 -55.266)" fill="#f5f5f5"/>
        <path id="Path_236" data-name="Path 236" d="M401.44,274.848a.772.772,0,0,0-.512.188.813.813,0,0,0-.37.314c-.653,1.045.582,2.48,1.673,1.719a1.25,1.25,0,0,0-.791-2.22Z" transform="translate(-240.288 -53.899)" fill="#f5f5f5"/>
      </g>
      <g id="Group_69" data-name="Group 69">
        <path id="Path_237" data-name="Path 237" d="M425.858,256.886a2.471,2.471,0,0,1,2.592,2.844,1.951,1.951,0,0,1-1.622,2.057,7.355,7.355,0,0,1-1.876.195c-4.683.01-9.379,0-14.062,0v.01c-4.823,0-9.632.012-14.453,0-1.876,0-2.937-1.039-2.822-2.752a2.387,2.387,0,0,1,2.788-2.263,16.943,16.943,0,0,0,1.714.058q11.582-.017,23.192-.058C422.829,256.977,424.349,256.816,425.858,256.886Zm-1.291,3.564c1.45,0,2.364-.435,2.169-.972-.377-1.039-1.364-.914-2.239-.914q-13.588,0-27.166-.01a3.078,3.078,0,0,0-1.132.068c-.353.16-.81.512-.853.81s.4.778.73.88a5.092,5.092,0,0,0,1.68.15h13.116Q417.717,260.462,424.567,260.45Z" transform="translate(-238.925 -60.794)" fill="#3c3372"/>
        <path id="Path_238" data-name="Path 238" d="M425.858,260.969a2.471,2.471,0,0,1,2.592,2.844,1.949,1.949,0,0,1-1.622,2.057,7.285,7.285,0,0,1-1.876.194c-4.683.012-9.379,0-14.062,0v.012c-4.823,0-9.632.01-14.453,0-1.876,0-2.937-1.04-2.822-2.754a2.387,2.387,0,0,1,2.788-2.263,16.925,16.925,0,0,0,1.714.058q11.582-.019,23.192-.058C422.829,261.059,424.349,260.9,425.858,260.969Zm-1.291,3.564c1.45,0,2.364-.433,2.169-.97-.377-1.04-1.364-.914-2.239-.914q-13.588,0-27.166-.012a3.079,3.079,0,0,0-1.132.068c-.353.16-.81.512-.853.812s.4.776.73.88a5.138,5.138,0,0,0,1.68.148h13.116Q417.717,264.545,424.567,264.533Z" transform="translate(-238.925 -57.914)" fill="#3c3372"/>
        <path id="Path_239" data-name="Path 239" d="M425.858,252.719a2.471,2.471,0,0,1,2.592,2.845,1.949,1.949,0,0,1-1.622,2.057,7.285,7.285,0,0,1-1.876.194c-4.683.012-9.379,0-14.062,0v.012c-4.823,0-9.632.01-14.453,0-1.876,0-2.937-1.04-2.822-2.754a2.387,2.387,0,0,1,2.788-2.263,16.924,16.924,0,0,0,1.714.058q11.583-.017,23.193-.058C422.829,252.809,424.349,252.651,425.858,252.719Zm-1.291,3.564c1.45,0,2.364-.433,2.169-.97-.377-1.04-1.364-.914-2.239-.914q-13.588,0-27.166-.012a3.079,3.079,0,0,0-1.132.068c-.353.16-.81.512-.853.812s.4.776.73.88a5.139,5.139,0,0,0,1.68.148h13.116q6.845,0,13.7-.015Z" transform="translate(-238.925 -63.732)" fill="#3c3372"/>
        <g id="Group_68" data-name="Group 68">
          <path id="Path_240" data-name="Path 240" d="M394.074,220.595a1.415,1.415,0,0,1-.493,2.263,5.423,5.423,0,0,1-3.769,1.519,11.086,11.086,0,0,1-1.131-.583,3,3,0,0,1-.824-.788c-1.782-2.457-3.581-4.891-5.286-7.415-.97-1.439-.788-2.137.593-3.221a17.025,17.025,0,0,1,2.538-1.658,1.311,1.311,0,0,1,1.965.481Q390.914,215.863,394.074,220.595Zm-2.457,1.565c.982-.593,1.023-.651.411-1.588-1.165-1.806-2.329-3.61-3.564-5.37-.682-.97-1.5-1.85-2.261-2.8-.639.389-1.143.662-1.6.994-.936.662-1.006.853-.341,1.792,1.565,2.229,3.141,4.444,4.8,6.6.9,1.168,1.277,1.144,2.556.356Z" transform="translate(-247.138 -93.532)" fill="#3c3372"/>
          <g id="Group_67" data-name="Group 67">
            <path id="Path_241" data-name="Path 241" d="M359.139,290.844a3.856,3.856,0,0,1-.022.96c-.114.936-.491,1.255-1.393,1.039-2.273-.537-4.536-1.143-7.016-1.77a9.129,9.129,0,0,0-.445,1.165,19.418,19.418,0,0,1-11.526,13.206,29.318,29.318,0,0,1-15.348,2.446A18.515,18.515,0,0,1,312.1,302.2a25.9,25.9,0,0,1-6.683-10.67,20.955,20.955,0,0,1-.682-10.145c.367-2.091,1.074-4.135,1.68-6.386-.319-.355-.994-.217-1.576-.321a1.925,1.925,0,0,1-1.692-2.867,26.162,26.162,0,0,1,4.627-8.237,25.835,25.835,0,0,1,13.607-8.878c1.565-.387,1.485-.445,1.451-2.067-.058-3.3-.08-6.6-.046-9.891a10.864,10.864,0,0,1,.411-2.227,2.15,2.15,0,0,1,1.84-1.93,3.269,3.269,0,0,1,3.129.948,5.912,5.912,0,0,1,1.257,3.518c.184,2.331.229,4.685.341,7.026.022.571,0,1.143.034,1.714.08,1.6.16,1.68,1.748,1.806a25.6,25.6,0,0,1,20.346,12.236,43.667,43.667,0,0,1,6.25,15.982C358.717,284.778,358.833,287.827,359.139,290.844Zm-2.592-.024c.651.08.958-.17.936-.822-.034-.89-.012-1.782-.114-2.662a53.7,53.7,0,0,0-3.3-13.607,30.866,30.866,0,0,0-8.74-12.931,24.485,24.485,0,0,0-21.409-5.037,25.116,25.116,0,0,0-14.589,8.59,24.089,24.089,0,0,0-4.753,8.74c1.508,0,2.776.024,4.033-.012a60.954,60.954,0,0,1,19.923,2.205A43.486,43.486,0,0,1,346,285.245a32.1,32.1,0,0,0,4.662,3.542A14.054,14.054,0,0,0,356.547,290.82Zm-7.7.138c.138-.525.286-1.023-.331-1.509-1.69-1.325-3.255-2.8-4.935-4.135a11.218,11.218,0,0,0-3.438-2.434c.136,6.685-2.686,11.334-9.072,13.356a12.125,12.125,0,0,1-13.206-4.468c-4.093-5.723-3.187-11.264,1.165-16.53-.056-.138-.124-.275-.182-.411-2.844-.058-5.689-.07-8.527-.171a2.115,2.115,0,0,0-2.229,1.364,20.085,20.085,0,0,0-1.644,12.773,23.364,23.364,0,0,0,7.128,12.5,16.969,16.969,0,0,0,6.124,4.067,24.035,24.035,0,0,0,12.931.467,29.344,29.344,0,0,0,7.711-3.119,16.956,16.956,0,0,0,8.5-11.75Zm-19.284,3.907a10.743,10.743,0,0,0,8.706-12.418c-.194-.994-.549-1.622-1.646-1.84-.239.377-.5.812-.776,1.223-1.04,1.588-2,3.24-3.153,4.731a4.835,4.835,0,0,1-4.719,2.283,9.55,9.55,0,0,1-4.8-2.582,3.116,3.116,0,0,1-.766-3.644,30.843,30.843,0,0,1,1.417-2.9c.571-1.107,1.165-2.2,1.726-3.278-.24-.194-.321-.309-.435-.341-.732-.182-1.5-.286-2.2-.537a1.937,1.937,0,0,0-2.079.491,10.83,10.83,0,0,0-2.758,12.928A11,11,0,0,0,329.562,294.865Zm5.056-14.239a.838.838,0,0,0,.182-.525c-.022-.264-.09-.682-.251-.755-2.183-.844-4.364-1.656-6.569-2.41a1.057,1.057,0,0,0-.948.365c-1.062,1.942-2.091,3.9-3.017,5.907a1.765,1.765,0,0,0,.138,1.576,7.482,7.482,0,0,0,4.181,2.411,3.184,3.184,0,0,0,2.775-1.395C332.36,284.148,333.458,282.366,334.618,280.625Zm-7.711-27.041c1.235-.16,1.325-.171,1.291-1.383-.08-3.039-.229-6.078-.377-9.117a4.561,4.561,0,0,0-.331-1.279c-.4-1.12-1.062-1.726-1.794-1.68-.628.046-1.155.868-1.194,2.137-.058,1.705-.012,3.411-.012,5.13h-.08v2.478c.012.571.022,1.143.046,1.714.056,2.244.125,2.3,2.444,2.005Z" transform="translate(-302.902 -73.753)" fill="#3c3372"/>
            <path id="Path_242" data-name="Path 242" d="M508.416,357.746c.571,1.612.447,2.137-1.221,2.423a33.914,33.914,0,0,1-5.472.445c-3.486.046-6.982-.012-10.466-.068a1.548,1.548,0,0,0-1.69,1.107,25.63,25.63,0,0,1-9.048,11.015,26.114,26.114,0,0,1-18.017,4.591,28.329,28.329,0,0,1-23.122-15.479,2.13,2.13,0,0,0-2.285-1.165q-15.519.034-31.037.046-16.946,0-33.885.022c-1.576,0-3.141.114-4.717.251a18.919,18.919,0,0,1-5.628-.605c-6.946-1.485-10.648-6.625-13.607-12.486a62.983,62.983,0,0,1-3.472-10.42,48.274,48.274,0,0,0-3.382-10.053,25.287,25.287,0,0,0-5.919-7.347,20,20,0,0,0-2.582-1.576c-.776-.469-.822-.788-.114-1.383a12.465,12.465,0,0,0,4-7.162,68.925,68.925,0,0,0,1.023-17.993,27.757,27.757,0,0,0-1.177-6.535c-.936-3.143-2.171-6.2-3.3-9.289-.148-.411-.435-.776-.593-1.194-.423-1.12-1.12-1.383-2.353-1.235a8.955,8.955,0,0,1-9.768-6.34,30.627,30.627,0,0,1-1.143-9.014,25.569,25.569,0,0,1,1.347-8.591,16.5,16.5,0,0,1,1.383-3.107c1.194-1.942,2.684-3.438,5.457-2.5-.445-2.684.984-4.284,2.548-5.815a7.879,7.879,0,0,1,5.576-2.473,3.047,3.047,0,0,0,1.714-.662,8.469,8.469,0,0,1,8.443-1.108,24.3,24.3,0,0,1,7.408,4.555q1.97,1.629,3.941,3.279a6.09,6.09,0,0,1,2.411,4.524c.467-.252.822-.447,1.177-.617a12.74,12.74,0,0,1,8.064-1.451,14.452,14.452,0,0,1,5.747,1.794c.435.275.708.068.88-.341a6.217,6.217,0,0,1,5.232-3.581,2.046,2.046,0,0,0,1.245-.682,14.393,14.393,0,0,1,10.1-5.414c4.512-.651,9.038-1.211,13.571-1.726a2.289,2.289,0,0,0,1.977-1.427c3.736-6.97,7.473-13.927,11.38-20.8a56.393,56.393,0,0,1,4.821-6.808,39.787,39.787,0,0,1,3.552-3.486l-1.976-2.684c-.377-.512-.742-1.023-1.108-1.535-.5-.682-1.073-1.395-.674-2.251s1.3-.88,2.137-.914c2.033-.068,4.055-.126,6.09-.182.628-.024,1.255-.012,1.9-.012-.341-2.193-1.074-2.856-3.1-2.708a35.427,35.427,0,0,1-7.391.1,5.3,5.3,0,0,1-4.49-3.029,36.476,36.476,0,0,1-1.463-3.907,1.472,1.472,0,0,0-1.439-1.223,7.376,7.376,0,0,1-2.011-.535c-1.634-.6-1.987-1.269-1.461-2.891.559-1.738,1.194-3.462,1.782-5.2.433-1.267.423-1.291-.892-1.656-.239-.068-.5-.114-.73-.2-3.1-1.327-2.868-1.132-2.868-4.093,0-.766.012-1.535.08-2.285a.853.853,0,0,0-.812-1.039,15.446,15.446,0,0,1-2.033-.435c-.708-.194-1.553-.217-1.772-1.177a3.157,3.157,0,0,1,.984-3.051,20.294,20.294,0,0,1,6.671-3.141,4.569,4.569,0,0,0,4.033-3.622,4.015,4.015,0,0,1,.853-1.473c.217-.273.628-.628.9-.582,1.194.2,1.656-.605,2.3-1.337a26.848,26.848,0,0,1,12.717-7.918,20.372,20.372,0,0,1,13.777.447,21.316,21.316,0,0,1,10.454,8.75,33.066,33.066,0,0,1,5.094,21.2,42.228,42.228,0,0,1-2.49,11.652,16.832,16.832,0,0,1-2.193,3.724c-.629.853-.982,1.5-.355,2.5a4.745,4.745,0,0,1,.629,1.965,2.819,2.819,0,0,1-.333,1.806c-1.1,1.5-1.143,3.336-1.862,4.945a2.3,2.3,0,0,0,.1,1.291c1.554,5.735,3.129,11.458,4.673,17.205q2.981,11.173,5.928,22.357c.435,1.658.413,1.6,2.161,1.646,4.821.136,9.642.263,14.451.512a184.856,184.856,0,0,0,19.193.491c.319-.01.64-.01.948,0,1.291.07,1.622.3,1.634,1.566q.034,3.051-.126,6.09c-.194,3.735-.537,7.459-.662,11.2-.194,6.02-.24,12.041-.423,18.063-.148,4.877-.411,9.756-.651,14.633-.08,1.623-.525,2.057-2.239,2.171-1.519.092-3.039.08-4.558.126-.355.012-.708.068-1.291.136a6.572,6.572,0,0,1,1.313,5.689,6.794,6.794,0,0,1-3.839,5.107,17.947,17.947,0,0,1-5.436,1.588,44.173,44.173,0,0,0-6.924,1.405,5.222,5.222,0,0,0,1.143.321c3.163.171,6.328.251,9.482.479a33.477,33.477,0,0,1,5.256.778,7.785,7.785,0,0,1,5.884,7.14,41.7,41.7,0,0,1-1.194,13.561,2.514,2.514,0,0,0,.126,1.976c2.491,4.707,3.255,9.939,4.627,15.007C506.589,352.891,507.538,355.313,508.416,357.746Zm-1.6.948c-.15-.512-.206-.89-.341-1.221a59.367,59.367,0,0,1-3-10.181,57.463,57.463,0,0,0-1.535-5.871,56.218,56.218,0,0,0-4.25-9.3,57.38,57.38,0,0,0-7.585-10.888,42.333,42.333,0,0,0-16.221-11.276,56.59,56.59,0,0,0-13.5-2.935c-4.524-.5-9.083-.853-13.643-1.074-4.877-.217-9.768-.285-14.645-.24-3.8.034-7.6.341-11.39.571-.389.024-.96.252-1.062.525-.114.309.159.824.387,1.155a12.224,12.224,0,0,0,.95.926,35.094,35.094,0,0,1,2.81,3.564,30.069,30.069,0,0,1,3.815,9.87,75.033,75.033,0,0,1,1.668,15.652v2.079c.114.024.24.046.367.08.251-.559.525-1.108.754-1.68a38.224,38.224,0,0,1,9.083-13.643,33.2,33.2,0,0,1,14.611-8.453,32.077,32.077,0,0,1,16.347.377,34.649,34.649,0,0,1,23.5,19.661,33.16,33.16,0,0,1,1.656,5.015c.16.561.367,1.463-.433,1.634-1.006.218-.972-.822-1.132-1.415A32.06,32.06,0,0,0,482.162,324.2a34.233,34.233,0,0,0-22.393-6.992,25.688,25.688,0,0,0-13.1,4.045,37.084,37.084,0,0,0-16.291,22.51c-.423,1.589-.812,3.189-1.279,4.765-.126.445-.413,1.074-.766,1.194a14.865,14.865,0,0,1-4.867,1.085c-14.144-.056-28.3.16-42.43-.411a50.924,50.924,0,0,1-12.739-1.942,16.712,16.712,0,0,1-9.891-7.78,28.114,28.114,0,0,1-3.279-10.819c-.742-5.655-1.245-11.334-1.634-17.023-.4-5.628-.662-11.255-.732-16.908-.114-8.808-.034-17.628.036-26.448a9.938,9.938,0,0,1,2.546-6.786c.682-.742,1.315-1.519,1.876-2.159-.776-1.364-1.473-2.582-2.181-3.827-1.194.948-2.263,1.93-3.452,2.729a4.236,4.236,0,0,1-4.992-.024q-4.2-2.793-8.4-5.563c-.605-.411-1.223-.824-2.091-1.405a29.546,29.546,0,0,1-.092,3.987,3.192,3.192,0,0,0,1.108,3,27.967,27.967,0,0,1,8.042,17.787c.389,4.867.607,9.758.682,14.635.114,7.792-.034,15.605.068,23.4a74.449,74.449,0,0,0,.72,9.848,89.9,89.9,0,0,0,3.462,14.565,33.57,33.57,0,0,0,3.827,8.637,16.493,16.493,0,0,0,7.894,6.855,19.121,19.121,0,0,0,6.751.89c9.768.012,19.548-.046,29.316-.08l30.457-.1a2.521,2.521,0,0,1,.924.136c.194.08.447.341.447.525-.012.264-.17.682-.367.755a5.433,5.433,0,0,1-1.656.273q-6.374.051-12.749.058-24.095.034-48.165.034a14.773,14.773,0,0,1-10.42-3.885,24.531,24.531,0,0,1-5.871-8.3,67.755,67.755,0,0,1-3.2-9.505c-.206-.732-.389-1.473-.583-2.217a72.634,72.634,0,0,1-2.353-14.589c-.263-6.09-.469-12.167-.16-18.257.194-3.8.092-7.619-.01-11.426-.092-3.484-.377-6.958-.537-10.442a27.441,27.441,0,0,0-6.97-17.64,5.318,5.318,0,0,0-.9-.662c-.148,1.381-.229,2.582-.411,3.77a29.331,29.331,0,0,1-1.862,6.946,2.047,2.047,0,0,0,.08,1.6,46.3,46.3,0,0,1,4.043,9.79,35.162,35.162,0,0,1,1.862,10.624c-.022,4.741-.319,9.494-.512,14.246a6.625,6.625,0,0,1-.193.926,19.167,19.167,0,0,1-3.863,8.808l1.535,1.245a25.921,25.921,0,0,1,8.249,12.27c.559,1.748,1.062,3.508,1.535,5.286s.948,3.552,1.439,5.312a32.526,32.526,0,0,0,5.027,10.573,15.411,15.411,0,0,0,13.366,6.992c1.085-.024,2.159.034,3.24.034q34.942-.119,69.871-.217,14.569-.036,29.122,0c11.426.01,22.836.044,34.262.044C503.938,358.957,505.309,358.787,506.818,358.695Zm-2.937-111.673c.125-1.876.056-1.976-1.782-1.907a116.5,116.5,0,0,1-15.583-.457c-2.227-.218-2.227-.206-2.227,2v22.468h-.005q0,11.618.012,23.225c0,1.658.056,1.68,1.705,1.76a17.622,17.622,0,0,1,6.31,1.233,3.276,3.276,0,0,0,1.291.252c2.41-.012,4.809-.058,7.22-.08.788,0,1.119-.4,1.153-1.177.148-3.411.367-6.832.457-10.247.182-6.982.194-13.962.457-20.929.193-5.389.65-10.749.992-16.139ZM500.4,328.454a72.932,72.932,0,0,0,.251-8.339,5.827,5.827,0,0,0-5.21-5.871c-2.6-.493-5.266-.663-7.906-.938-1.074-.114-2.147-.148-3.209-.2-.138.194-.275.4-.4.593a3.362,3.362,0,0,1,.853.389,47.034,47.034,0,0,1,9.117,9.093c1.828,2.491,3.37,5.188,5.05,7.792a14.194,14.194,0,0,0,.948,1.143c.2-1.439.45-2.548.508-3.656Zm-5.061-26.813a4.64,4.64,0,0,0-3-4.444,15.348,15.348,0,0,0-6.615-1.519c-5.072-.159-10.145-.193-15.217-.148-3.922.024-7.86.389-11.779.341-4.57-.034-9.117-.251-13.687,0-4.809.263-9.642.058-14.463.058v.034c-4.945,0-9.9-.08-14.836.046a15.816,15.816,0,0,0-4.981,1.023,2.729,2.729,0,0,0-1.325,4.454,7.363,7.363,0,0,0,6.192,3.143c2.021.09,4.055.01,6.078-.07,4.306-.171,8.614-.582,12.92-.571a218.424,218.424,0,0,1,28.254,1.705,48.388,48.388,0,0,1,13.024,3.29,4.444,4.444,0,0,0,2.181.435c3.325-.4,6.651-.853,9.951-1.429a17,17,0,0,0,4.147-1.313,5.479,5.479,0,0,0,3.162-5.034ZM487.9,360.557c-4.33,0-8.581.012-12.819,0a1.726,1.726,0,0,0-1.393.824,11.613,11.613,0,0,1-4.765,3.346c-4.6,1.886-10.305,1.349-13.5-3.46a1.535,1.535,0,0,0-1.451-.682q-6.289.036-12.556.046a3.22,3.22,0,0,0-.605.171,5.93,5.93,0,0,0,.275.72,27.324,27.324,0,0,0,31.247,13.206,23.9,23.9,0,0,0,13.743-10.145A8.479,8.479,0,0,0,487.9,360.557Zm-5.234-67.369a3.681,3.681,0,0,0,.07-1.131q0-22.93-.012-45.873c0-1.485.022-1.589-1.485-1.772-2.217-.251-2.125-.3-2.125,1.806q.019,11.426,0,22.851h-.194V291.53a6.7,6.7,0,0,0,.046,1.52c.068.3.389.72.64.754a11.7,11.7,0,0,0,2.456-.012.945.945,0,0,0,.605-.6Zm-5.254-46.315c0-.571-.012-1.143-.012-1.705a.808.808,0,0,0-.914-.936c-2.718-.012-5.438-.012-8.283-.012a3.762,3.762,0,0,0,0,.732c1.6,5.917,3.221,11.825,4.821,17.735.853,3.107,1.705,6.226,2.5,9.345a4.3,4.3,0,0,1,.16,1.074,2.621,2.621,0,0,1-1.535,2.285,14.663,14.663,0,0,1-1.68.878,53.5,53.5,0,0,1-11.516,3.714c-1.5.3-1.451.319-1.535,1.838-.159,3.221-.193,6.467-.593,9.666s-.341,2.786,2.628,2.718c4.5-.114,9-.319,13.493-.433,2.662-.07,2.341.159,2.353-2.365q.015-9.149.046-18.3.029-13.129.065-26.233Zm-4.33,27.248a1.245,1.245,0,0,0,.8-1.68c-.092-.3-.08-.628-.16-.924q-2.3-8.536-4.582-17.053c-.331-1.257-.742-2.273-2.341-1.987-.228.034-.479-.126-.732-.194A21.774,21.774,0,0,1,457.693,248a20.861,20.861,0,0,1-5.049-25.831,27.39,27.39,0,0,1,4.729-6.4A2.021,2.021,0,0,0,458,213.45c-1.155-4.009-2.137-8.076-3.257-12.1a3.187,3.187,0,0,1,.171-2.548,7.24,7.24,0,0,0,.411-1.062c.511-1.485.457-1.535-1.223-1.76-.936,2.445-2.091,2.925-4.34,1.714a2.967,2.967,0,0,0-2.434-.445,3.542,3.542,0,0,1-2.331-.435,4.723,4.723,0,0,0-2.708-.605c-.628.046-1.267-.046-1.9-.046H425.326c1.337,1.816,2.387,3.313,3.518,4.731.206.251.766.273,1.166.285,1.131.012,2.283-.136,3.411-.022a8,8,0,0,1,5.287,3.411c.171.206.034.682.046,1.04a3.286,3.286,0,0,1-1.212-.034c-.377-.171-.605-.641-.948-.914a6.746,6.746,0,0,0-3.462-1.828,7.718,7.718,0,0,0-7.289,2.786,60.116,60.116,0,0,0-4.558,6.068c-4.695,7.231-8.453,14.988-12.486,22.585a6.7,6.7,0,0,1-.72,1.325,1.463,1.463,0,0,1-.926.5c-2.2.182-4.434.194-6.613.491-3.7.512-7.415,1.006-11.037,1.862a9.826,9.826,0,0,0-7.289,6.34,18.717,18.717,0,0,0-.982,10.42,9.756,9.756,0,0,0,7.495,8.327,60.752,60.752,0,0,0,10.384,1.074,126.8,126.8,0,0,0,18.953-1.085,2.729,2.729,0,0,0,2.079-1.131c.389-.571.836-1.12,1.194-1.714,2.285-3.863,4.638-7.7,6.821-11.63,4.238-7.643,9.117-14.9,13.663-22.359a2.4,2.4,0,0,1,.914-.878.653.653,0,0,1,.924.764,2.979,2.979,0,0,1-.4.853c-.9,1.535-1.726,3.107-2.718,4.57-5.324,7.872-9.891,16.2-14.666,24.4-1.3,2.239-2.718,4.422-4.112,6.6a4.17,4.17,0,0,1-2.65,2.021,48,48,0,0,1-5.287.709c-2.7.229-2.8.341-2.867,3a2.8,2.8,0,0,0,1.325,2.729c.754.467,1.451,1,2.217,1.473a43.552,43.552,0,0,0,11.035,4.456,64.5,64.5,0,0,0,15.519,2.468,90.269,90.269,0,0,0,11.779-.275,65.247,65.247,0,0,0,15.7-3.53c1.555-.576,3.041-1.284,4.55-1.947ZM468.02,250.6c-.275-.97-.537-1.942-.812-2.9a1.023,1.023,0,0,0-1.039-.88,8.335,8.335,0,0,1-4.364-1.692,15.964,15.964,0,0,1-6.318-17.906,19.041,19.041,0,0,1,3.07-6.26c1.269-1.84,1.257-1.84.092-3.953-6.49,6.139-8.8,15.136-4.913,23.157,2.792,5.767,10.1,11.153,14.284,10.433Zm3.752,110.086c-4.272-.4-13.342-.206-14.4.285a9.657,9.657,0,0,0,14.4-.285Zm-8.9-116.871a6.189,6.189,0,0,0,3.678,1.3c-2.1-7.792-4.147-15.379-6.192-22.976l-.512-.034a16.285,16.285,0,0,0-3.267,8.684,14.134,14.134,0,0,0,6.287,13.024Zm-1.5-73.39a27.173,27.173,0,0,0-1.235-9.265,25.3,25.3,0,0,0-9.858-14.417,17.8,17.8,0,0,0-12.619-3.039,23.966,23.966,0,0,0-12.406,5.3c-1.3,1.074-2.411,2.387-3.61,3.581-.559.559-.479,1.05,0,1.656a20.125,20.125,0,0,1,1.93,2.8,12.466,12.466,0,0,1,1.177,7.21,2.333,2.333,0,0,0,.72,2.009,19.867,19.867,0,0,1,5.679,11.334,33.483,33.483,0,0,0,1.576,6.809,9.019,9.019,0,0,0,7.974,6.066,26.6,26.6,0,0,0,6.809-.034c1.942-.251,3.9-.479,5.827-.812a6.438,6.438,0,0,0,4.889-3.793,20.088,20.088,0,0,0,.822-1.907,39.842,39.842,0,0,0,2.321-13.5ZM457.8,281.638c.046-.754-.3-1-1.023-.9-1.313.194-2.616.423-3.941.512-.948.058-1.233.435-1.405,1.364A13.315,13.315,0,0,1,446,291.169c-1.364.994-2.786,1.9-4.181,2.834l.068.273c.629,0,1.247.012,1.862,0q5.6-.084,11.185-.159c.319-.012.639-.024.948-.012.788.034,1.155-.355,1.194-1.12.058-1.073.148-2.147.206-3.221q.244-4.065.5-8.126Zm-1-87.751a3.269,3.269,0,0,0-.663-2.662c-.479-.742-1.119-.307-1.705-.2-1.93.341-3.839.754-5.769.994-1.876.217-3.781.251-5.986.387a6.932,6.932,0,0,0,3.411,3.143.965.965,0,0,0,1.177-.194c1.04-.778,1.062-.72,2.113.01a11.025,11.025,0,0,0,1.932,1.154c.457.206.878.012.924-.593.012-.252-.01-.5.012-.754.136-1.337.617-1.668,1.876-1.3a11.554,11.554,0,0,0,1.792.5,1.083,1.083,0,0,0,.875-.481ZM449.8,282.426c.08-.512-.08-.868-.682-.853-.263.022-.512.044-.766.044a77.131,77.131,0,0,1-23.854-2.776,39.321,39.321,0,0,1-12.715-5.735,2.418,2.418,0,0,0-2.137-.307c-2.057.387-4.113.72-6.18,1.023-1.806.275-3.644.457-5.457.744-2.879.457-5.757.9-8.6,1.473-3.474.682-6.912,1.519-10.374,2.251-.8.171-.994.445-.79,1.291q1.364,5.808,2.606,11.664c.994,4.695,1.85,9.425,2.9,14.108,1.429,6.41,2.983,12.79,4.456,19.193.148.682.445,1.006,1.131.994.755-.012,1.519-.012,2.285.012q4.558.135,9.117.307c1.772.058,3.542.194,5.312.218,1.509.01,1.634-.182,1.383-1.68-.571-3.428-1.131-6.866-1.705-10.305-.491-2.925-.972-5.859-1.473-8.8-.389-2.239-.88-4.468-1.194-6.717-.2-1.439.046-1.417-1.68-1.748a3.767,3.767,0,0,0-1.678.056.853.853,0,0,1-1.177-.605.986.986,0,0,1,.89-1.211,3.289,3.289,0,0,1,.754.012c1.965.136,3.922.331,5.873.389a13.919,13.919,0,0,0,4.146-.171,21.235,21.235,0,0,1,5.587-.97c2.983-.012,5.969,0,8.946,0v-.1c2.971,0,5.952-.056,8.922.012A11.754,11.754,0,0,0,439,293.217a44.171,44.171,0,0,0,4.386-2.239,13.389,13.389,0,0,0,6.182-7.643A6.609,6.609,0,0,0,449.8,282.426Zm-13.013-88.094c1.612.126,3.24.171,4.867.252-.776-2.514-3.175-3.564-6.763-2.729a16.963,16.963,0,0,0,.994,1.942,1.379,1.379,0,0,0,.9.534Zm-3.552-5.287c-.341-.7-.481-1.023-.663-1.325a18.09,18.09,0,0,1-2.422-6.139c-.457-2.285-.822-4.6-1.427-6.854a17.2,17.2,0,0,0-5.142-7.94c.034.616-.012.766.046.844a37.736,37.736,0,0,1,4.093,9.72c.868,2.764,1.724,5.541,2.706,8.259a6.378,6.378,0,0,0,2.809,3.433Zm-5.4,1.085a29.566,29.566,0,0,0,3.29-.377,17.2,17.2,0,0,1-3.37-6.421c-.674-2.171-1.279-4.352-1.93-6.535-.512-1.705-.628-1.794-2.319-1.942-2.011-.171-4.043-.273-6.02-.639-1.052-.2-1.383.217-1.658.994-.433,1.194-.868,2.365-1.267,3.564-.88,2.628-.88,2.729,1.85,3.07a2.74,2.74,0,0,1,2.5,2.181c.341,1.143.778,2.263,1.165,3.394a3.491,3.491,0,0,0,3.039,2.514,35.944,35.944,0,0,0,4.719.2Zm-.217,153.955a125.469,125.469,0,0,0-.525-14.052,49.735,49.735,0,0,0-2.4-11.7,19.368,19.368,0,0,0-5.438-8.752,3.593,3.593,0,0,1-1.485-3.061c-1.646-.229-3.2-.445-4.753-.651-.64-.09-.853.171-.708.936.3,1.555.651,3.1.948,4.65.72,3.851,1.417,7.711,2.147,11.562.263,1.347.148,1.782-1.165,2.079-.926.217-.914.605-.732,1.337.367,1.535.629,3.1,1.006,4.627a23.4,23.4,0,0,0,1.519,5.254c2.1,3.965,4.135,7.952,6.044,12.019a1.1,1.1,0,0,0,1.143.754c1.325-.022,2.65-.01,4.123-.01.092-1.715.263-3.349.275-4.995Zm-4.468-180.367a11.333,11.333,0,0,0-3.5-9.255c-.5-.512-.853-.411-1.131.194s-.537,1.143-.754,1.736a3.752,3.752,0,0,1-2.936,2.558,19.612,19.612,0,0,0-7.254,3.119,3.891,3.891,0,0,0-.7,1.023,5.23,5.23,0,0,0,.936.481c4.227,1.194,8.625,1.085,12.578,1.736.537,0,.732-.012.914,0,1.7.015,1.7.015,1.838-1.594Zm1.429,9.584a20.715,20.715,0,0,0-2.764-5.324,2.558,2.558,0,0,0-2.057-1.143c-2.195-.1-4.4-.341-6.593-.525-1.748-.148-1.748-.148-1.953,1.535a7.47,7.47,0,0,0-.046,1.143c0,1.535.09,1.748,1.473,2.251a44.168,44.168,0,0,0,11.939,2.062Zm-10.59,175.845h6.651c-.682-1.405-1.213-2.538-1.784-3.644-1.119-2.195-2.261-4.364-3.411-6.547-.3-.571-.571-.788-1.325-.433a30.026,30.026,0,0,1-3.736,1.175q1.755,4.574,3.605,9.448Zm-.812-11.98a1.125,1.125,0,0,0,.72-1.519c-.7-3.083-1.383-6.168-2.023-9.265-.182-.914-.559-1.381-1.461-1.194-.88-.148-1.245.182-1.194,1.023.034.593-.114,1.211-.81,1.313-.926.138-.948.72-.778,1.383.639,2.512,1.279,5.026,1.977,7.529a1.487,1.487,0,0,0,1.965,1.267A8.594,8.594,0,0,0,413.172,337.167Zm.4-13.926c-.136-.936-.239-1.876-.4-2.788-.743-4.17-1.519-8.327-2.239-12.5a7.144,7.144,0,0,0-2.171-4.649,4.383,4.383,0,0,1-1.223-5.5c.058-.136-.034-.353-.056-.616h-2.937c.171,1.073.309,2.011.479,2.935.447,2.285.948,4.57,1.327,6.878.708,4.3,1.255,8.626,2.046,12.909.217,1.12-.252,2.754.853,3.291a9.782,9.782,0,0,0,3.736.229,2.047,2.047,0,0,0,.583-.2ZM384.428,349h27.8c-.411-.994-.812-1.9-1.177-2.822-.7-1.828-1.393-3.666-2.069-5.507-.251-.682-.651-.868-1.3-.549-.171.08-.341.171-.512.263a6.124,6.124,0,0,1-6.661-.239,1.91,1.91,0,0,0-2.548.251,40.067,40.067,0,0,1-7.459,4.468,41.038,41.038,0,0,0-6.17,3.62,4.967,4.967,0,0,1,.1.508ZM407.7,271.546c1.714-.251,1.705-.287,1.668-1.954-.012-.124-.012-.251-.012-.377-.022-1.05-.056-2.091-.078-3.141-1.074.034-2.149.092-3.211.126a133.515,133.515,0,0,1-13.869-.3,14.349,14.349,0,0,1-10.35-4.831c-1.291-1.485-2.387-1.315-3.24.365a11.19,11.19,0,0,1-8.225,6.1c-3.7.708-8.74-1.669-9.265-5.645-.08-.605-.457-.651-.938-.682a2.515,2.515,0,0,0-1.862.742,10.984,10.984,0,0,0-3.963,8.684c-.07,4.809-.228,9.63-.377,15.582.078,1.658.228,4.444.341,7.232q.377,8.825.742,17.662c.046,1.269.068,2.536.182,3.8.275,3.153.674,6.294.853,9.459a55.68,55.68,0,0,0,1.838,10.831,15.493,15.493,0,0,0,10.534,11.55,36.732,36.732,0,0,0,12.156,1.85,1.753,1.753,0,0,0,1.05-.217,51.864,51.864,0,0,1,9.038-5.53c2.195-1.245,4.354-2.57,6.455-3.963,1.3-.853,1.12-.651.663-1.954-.948-2.742-1.988-5.457-2.868-8.237a2.006,2.006,0,0,0-2.217-1.6c-1.143.034-2.273.148-3.411.148a2.42,2.42,0,0,1-2.558-1.828,12.856,12.856,0,0,1-.321-1.291q-1.535-6.751-3.07-13.5c-1.257-5.628-2.49-11.242-3.752-16.862-1.132-5.061-2.263-10.111-3.44-15.16-.171-.778-.08-1.235.709-1.463.479-.136.958-.319,1.45-.445a171.327,171.327,0,0,1,18.44-3.6c3.631-.535,7.275-1.027,10.907-1.564Zm-.812,67.14a1.876,1.876,0,0,0,.938-2.239c-.525-2.217-1.062-4.434-1.668-6.625-.512-1.886-.549-1.862-2.468-1.988-.377-.022-.755-.126-1.132-.148-2.011-.126-4.021-.229-6.31-.355,1.245,3.581,2.329,6.729,3.45,9.882a2.176,2.176,0,0,0,.512.788,5.571,5.571,0,0,0,6.678.679Zm-26.526-94.531a3.027,3.027,0,0,0-.435-.012A3.734,3.734,0,0,0,377,246.588a13.4,13.4,0,0,0-.285,9.287,3.441,3.441,0,0,0,3.324,2.411,43.145,43.145,0,0,1-.914-6.97A47.4,47.4,0,0,1,380.361,244.155ZM377.174,260.5c.263-.616.4-1.1-.286-1.634a6.68,6.68,0,0,1-2.4-5.368,40.255,40.255,0,0,1,.058-4.376,1.485,1.485,0,0,0-.72-1.554,10.744,10.744,0,0,0-5.027-1.577,10.077,10.077,0,0,0-11.255,6.139,6.219,6.219,0,0,0-.078,5.677,2.369,2.369,0,0,0,3.24,1.364c-.056-.559-.126-1.131-.148-1.69a7.735,7.735,0,0,1,1.337-4.855,4.632,4.632,0,0,1,4.9-2.183,5.628,5.628,0,0,1,4.775,4.981,6.837,6.837,0,0,1-3,6.17,3.973,3.973,0,0,1-4,.217,19.406,19.406,0,0,0-1.816-.743,4.562,4.562,0,0,0,2.377,3.736,7.333,7.333,0,0,0,7.573.183A9.177,9.177,0,0,0,377.174,260.5Zm-9.095-.605a5.024,5.024,0,0,0,1.85-3.724c-.022-.273-.022-.467-.044-.662a4.128,4.128,0,0,0-3.177-3.37,3.1,3.1,0,0,0-3.62,1.8,9.654,9.654,0,0,0-.96,2.856,2.184,2.184,0,0,0,.423,1.748,13.924,13.924,0,0,0,3.24,1.908,2.174,2.174,0,0,0,2.289-.561ZM357.752,248.45a4.927,4.927,0,0,0-1.611-5.336c-1.668-1.337-3.278-2.776-4.969-4.093a19.546,19.546,0,0,0-7.14-3.817,7.364,7.364,0,0,0-5.015.824c2.491,1.535,4.8,2.844,6.992,4.318,3.24,2.193,6.4,4.5,9.608,6.751.639.46,1.337.849,2.133,1.352ZM356.232,251c.389-1.143.445-1.12-.525-1.806-2.8-1.965-5.6-3.907-8.375-5.9a45.044,45.044,0,0,0-8.373-5.14,6.434,6.434,0,0,0-4.41-.537,8.752,8.752,0,0,0-5.1,4.25,2.407,2.407,0,0,0-.228.708,3.688,3.688,0,0,0,1.165,2.708,39.5,39.5,0,0,0,6.787,5.7c3.107,2.273,6.34,4.376,9.528,6.523,2.113,1.417,3.107,1.364,5.1-.263A13.482,13.482,0,0,0,356.232,251Zm-21.847,5.392a39.324,39.324,0,0,0-.01-4.181,2.154,2.154,0,0,0-.812-1.84c-.754-.547-1.485-1.131-2.227-1.705-.138.058-.263.126-.4.182.194,1.04.445,2.069.583,3.119a34.419,34.419,0,0,1-.435,12.278,13.314,13.314,0,0,1-3.24,6.751,4.069,4.069,0,0,0-.479.994c1.023,0,1.85-.022,2.662,0a1.954,1.954,0,0,0,2.022-1.427,21.86,21.86,0,0,0,1.211-3.977C333.738,263.2,334.08,259.794,334.385,256.39Zm-4.067.285c-.136-1.337-.171-3.129-.5-4.855a11.481,11.481,0,0,0-2.125-5.4c-.984-1.165-2.022-1.3-3.051-.217a7.844,7.844,0,0,0-1.554,2.341,27.338,27.338,0,0,0-1.405,16.349,11.34,11.34,0,0,0,1.705,4.376,2.063,2.063,0,0,0,3.712.124,13.982,13.982,0,0,0,1.658-3.175,29.9,29.9,0,0,0,1.552-9.54Z" transform="translate(-291.244 -141.891)" fill="#3c3372"/>
          </g>
        </g>
      </g>
    </g>
  </g>
</svg>
